# Blender 4.2.3 LTS
# www.blender.org
mtllib asteroid6.mtl
o Asteroid
v -1.492750 1.446489 1.164819
v 2.060951 -1.375026 0.782854
v -0.690793 -0.950580 2.162664
v 0.420061 1.904268 -0.732388
v 0.845273 -1.632764 -1.697920
v 0.368073 2.192764 0.540488
v 1.869739 -1.364822 1.238834
v -1.532537 0.151265 -1.607412
v -1.211110 -0.337268 -1.926461
v -2.009016 0.754477 0.865642
v -1.456701 1.251798 1.394915
v -0.126667 0.319943 2.405716
v -0.430263 -0.479620 -2.217715
v -0.701218 -0.750249 -2.173129
v 1.979849 -1.461247 -0.038837
v 1.633992 -0.760680 -1.338462
v 1.702709 0.352738 -0.966978
v 1.735102 1.334617 0.668586
v 1.677442 1.260342 -0.208462
v -0.707975 0.656229 -1.876905
v 0.769527 -0.089507 -1.944986
v -1.123764 1.857145 0.712981
v -1.185008 -0.505571 2.041608
v -1.306634 -1.543382 1.017369
v -1.669086 -1.301171 -0.426471
v 1.129524 -1.825169 -1.074768
v 1.248078 -1.425950 -1.512245
v -0.602333 -0.136793 2.372356
v -0.382332 2.067679 1.115009
v 2.102697 0.530512 0.834476
v 0.664458 0.326988 2.359785
v 1.285886 1.566547 -0.456374
v -0.428997 1.678145 -1.052605
v 1.509423 -1.884313 0.593293
v -0.944348 -2.053830 -0.848516
v -0.898353 0.270878 2.219822
v -1.754275 0.686202 1.354990
v -1.931206 1.067801 0.268020
v 0.113791 2.007801 1.322443
v 1.028800 1.889574 -0.184665
v 2.092400 -0.421322 -0.510269
v -0.492942 -2.266777 -0.713651
v -2.021728 -0.537307 0.314628
v 0.423923 -1.773049 1.566122
v 0.203530 -2.308782 -0.497176
v 0.594668 -0.436453 2.416011
v -1.453323 -0.945643 1.576165
v 1.832050 -0.849140 1.578179
v -1.692067 1.403611 0.698634
v -0.698295 1.989780 -0.328308
v 2.213876 -1.041665 -0.016780
v 1.185350 1.089751 -1.108399
v -1.724964 -1.093318 0.797501
v -1.885583 0.797647 -0.480987
v -0.358460 1.546769 1.729922
v 1.001929 1.816271 1.156376
v 0.462992 2.100824 1.083440
v 1.156004 1.919910 0.402614
v 0.339933 0.771478 -1.736585
v 0.778741 1.809737 -0.719194
v -0.245448 2.254692 0.517146
v -1.868408 -0.071410 1.180872
v 1.729743 0.268548 1.682685
v -0.880454 -1.479839 1.643210
v -0.171050 -1.184523 2.131965
v -1.115088 1.920379 0.061122
v 0.511068 1.415886 -1.297398
v -0.627020 1.109683 -1.593753
v -1.148768 1.539846 -0.828911
v -1.487507 0.612930 -1.445288
v 0.180522 -2.112460 -1.318873
v -1.103846 -1.674930 -1.494136
v 2.185117 0.563000 0.446717
v 2.310926 0.044600 0.470135
v -1.445493 -1.647296 0.121160
v -0.037547 -2.296777 0.296786
v -0.695882 -2.094739 0.567235
v -2.063457 0.005234 -0.353389
v 1.640683 1.101337 1.159871
v 0.878095 -1.334080 1.946479
v 1.400680 -1.141831 1.832420
v 0.534023 1.511172 1.800020
v 1.636632 -1.665876 1.103169
v -0.158938 -1.918587 1.303622
v -0.257238 -1.869243 -1.721195
v 1.723926 -1.761960 0.286520
v 0.996173 -0.840539 -1.890539
v 0.379607 -0.749188 -2.133824
v -1.503485 -0.730982 -1.516002
v 0.043906 -0.260777 2.493602
v -1.801165 -0.669703 -0.899142
v -0.095500 -1.265872 -2.141094
v 0.450753 -2.222540 0.576832
v -0.994051 -1.234637 -1.922255
v 2.258902 -0.918246 0.516669
v -0.961721 0.221145 -1.978347
v 1.391617 -0.183810 2.074332
v 2.080546 -1.020198 1.177706
vn -0.0305 0.6793 0.7332
vn 0.4417 -0.2157 0.8708
vn -0.7679 -0.3377 -0.5443
vn 0.8468 0.1206 -0.5181
vn 0.1574 0.0582 0.9858
vn -0.0468 -0.1166 -0.9921
vn -0.9986 -0.0125 0.0523
vn -0.8949 -0.2613 0.3618
vn 0.9958 -0.0572 -0.0708
vn -0.9727 -0.0829 0.2167
vn -0.5515 0.1704 -0.8166
vn 0.8467 0.5226 -0.0999
vn 0.0936 0.9842 0.1503
vn -0.2195 -0.5170 -0.8274
vn -0.3666 0.9086 0.2003
vn 0.8241 -0.4411 0.3554
vn 0.3868 -0.6850 0.6174
vn 0.3725 0.0452 -0.9270
vn 0.7275 -0.3393 0.5963
vn -0.2897 0.9466 -0.1414
vn 0.6833 -0.6650 0.3014
vn -0.6150 0.7646 0.1926
vn 0.0485 0.4312 0.9009
vn -0.4326 0.5318 -0.7280
vn -0.5548 -0.4209 0.7177
vn 0.3158 0.7478 0.5840
vn 0.9454 0.2394 0.2210
vn 0.0825 -0.0618 -0.9947
vn -0.7885 -0.0225 0.6147
vn 0.0427 0.7592 -0.6494
vn 0.3851 0.0327 0.9223
vn -0.8779 0.4615 0.1277
vn 0.7581 -0.6521 -0.0064
vn -0.9185 -0.0388 -0.3934
vn -0.5346 -0.4866 0.6910
vn 0.3353 -0.9141 -0.2278
vn 0.5746 0.6159 -0.5390
vn -0.7678 -0.0910 -0.6342
vn -0.3702 0.4654 0.8040
vn 0.7527 0.0073 0.6583
vn 0.7982 0.3792 0.4681
vn -0.3912 -0.1895 0.9006
vn 0.5205 -0.2940 -0.8016
vn -0.8509 -0.3689 -0.3740
vn 0.3410 0.9349 0.0987
vn -0.4527 0.4443 -0.7731
vn 0.6051 -0.7625 -0.2288
vn -0.9872 0.1516 -0.0491
vn -0.0991 -0.3427 0.9342
vn -0.4381 0.8138 0.3818
vn 0.8827 0.3155 -0.3482
vn 0.9359 -0.2839 0.2087
vn 0.5235 0.2994 0.7977
vn -0.3659 0.7030 0.6098
vn 0.0137 -0.9724 -0.2327
vn 0.9202 -0.3913 0.0129
vn -0.4602 0.6021 -0.6525
vn 0.1435 -0.5909 -0.7939
vn -0.3784 0.0834 -0.9219
vn 0.3042 -0.9526 0.0065
vn 0.8687 0.4429 0.2218
vn 0.0557 0.1654 0.9847
vn 0.8225 -0.3627 -0.4380
vn -0.7954 0.3854 0.4678
vn 0.0034 0.6889 -0.7249
vn 0.5044 0.4138 0.7579
vn -0.7572 -0.6275 -0.1812
vn -0.6234 0.7790 0.0673
vn 0.3070 0.9447 -0.1153
vn -0.2341 -0.3318 -0.9138
vn -0.0593 -0.9982 -0.0029
vn -0.1443 -0.9085 -0.3922
vn -0.7364 0.5401 -0.4075
vn -0.2206 -0.2208 0.9500
vn 0.6370 0.7354 0.2313
vn 0.5918 -0.1921 0.7829
vn -0.4455 -0.8081 0.3854
vn 0.6764 0.6064 0.4180
vn 0.7533 0.4340 -0.4942
vn 0.9746 0.0131 -0.2235
vn -0.5142 -0.1284 -0.8480
vn -0.3329 -0.6134 -0.7162
vn -0.7639 -0.5307 0.3671
vn 0.1210 -0.9913 0.0517
vn 0.5504 0.7487 -0.3693
vn 0.7047 -0.6087 -0.3646
vn -0.9717 0.1971 -0.1303
vn -0.8062 -0.1209 0.5791
vn -0.8852 0.0266 0.4645
vn 0.8736 -0.4854 -0.0353
vn 0.0139 -0.3673 0.9300
vn -0.9010 -0.0740 -0.4275
vn -0.2370 0.4340 0.8692
vn -0.8572 -0.4112 -0.3099
vn -0.2590 -0.9619 0.0882
vn 0.1612 0.1824 -0.9699
vn 0.8055 -0.4277 -0.4103
vn 0.7083 0.5133 -0.4846
vn 0.6425 -0.7515 0.1496
vn 0.3226 -0.3567 0.8767
vn 0.4343 0.8761 0.2092
vn -0.7957 0.3952 0.4590
vn -0.3300 0.7086 -0.6237
vn -0.3954 0.9147 0.0835
vn -0.4385 -0.8973 0.0510
vn -0.0556 -0.9369 0.3452
vn 0.0957 -0.4375 0.8941
vn -0.7142 -0.1759 -0.6775
vn -0.3750 0.6779 0.6323
vn -0.5816 -0.7929 0.1820
vn -0.0295 0.9582 -0.2844
vn 0.2126 0.7648 0.6082
vn -0.3052 0.8283 -0.4699
vn 0.3603 -0.8323 -0.4213
vn 0.0405 -0.9093 0.4142
vn -0.5420 -0.8374 0.0709
vn 0.6205 0.2963 -0.7261
vn -0.7637 -0.6171 0.1899
vn -0.0776 0.2691 -0.9600
vn 0.6483 -0.3849 0.6569
vn 0.6560 -0.1897 -0.7305
vn 0.2828 -0.7783 0.5606
vn 0.4733 0.6106 -0.6350
vn -0.8216 0.4802 0.3071
vn -0.4826 -0.0228 0.8756
vn -0.9256 -0.2398 0.2928
vn -0.6156 0.2717 0.7397
vn -0.2420 -0.6341 0.7344
vn 0.1739 -0.7475 -0.6411
vn 0.9045 0.0726 0.4201
vn -0.1495 -0.9314 0.3318
vn -0.8694 -0.4922 0.0439
vn 0.4690 -0.6383 0.6104
vn 0.2108 -0.9165 0.3400
vn -0.0412 0.9500 0.3096
vn -0.7315 0.6717 -0.1176
vn 0.1809 0.9678 -0.1751
vn 0.9041 0.2511 -0.3458
vn -0.0825 0.9040 -0.4196
vn 0.5647 -0.6801 -0.4676
vn -0.6866 0.0878 0.7217
vn 0.6383 0.1377 -0.7574
vn 0.8550 0.0298 0.5178
vn -0.4517 0.8264 -0.3362
vn -0.2866 -0.8664 -0.4089
vn -0.0501 0.4746 0.8788
vn -0.7461 -0.6566 -0.1103
vn -0.1649 0.1001 0.9812
vn 0.8140 0.4483 0.3693
vn 0.3942 -0.9098 -0.1299
vn 0.9662 -0.0399 0.2545
vn 0.4298 0.4278 -0.7952
vn 0.7304 0.6749 -0.1052
vn -0.1427 -0.7418 0.6553
vn 0.8900 -0.1641 -0.4254
vn -0.9081 0.2148 -0.3595
vn 0.0931 0.3070 -0.9472
vn -0.3124 -0.8469 0.4304
vn -0.7436 0.6133 -0.2665
vn 0.2217 0.7551 -0.6170
vn 0.3160 -0.2806 -0.9063
vn 0.0342 -0.6745 0.7375
vn -0.2412 0.1816 0.9533
vn 0.0566 0.5215 -0.8514
vn -0.2746 0.1177 -0.9543
vn -0.6253 -0.6093 0.4876
vn 0.6809 0.7089 -0.1841
vn 0.5645 0.5075 0.6510
vn -0.1774 0.7475 0.6401
vn -0.9562 -0.2535 -0.1461
vn -0.5430 0.3249 -0.7744
vn 0.6385 -0.7521 0.1629
vn 0.9045 0.0823 0.4184
vn -0.8940 -0.4467 0.0350
vn 0.2727 -0.8731 0.4041
vn -0.0088 0.9549 0.2967
vn 0.1071 0.9483 -0.2989
vn 0.2551 0.9317 -0.2585
vn 0.9279 0.2113 -0.3072
vn 0.6621 0.2001 -0.7222
vn -0.3090 -0.8516 -0.4234
vn 0.3818 -0.9189 -0.0995
vn 0.4384 0.4121 -0.7988
vn -0.1105 -0.7446 0.6583
vn -0.9057 0.1388 -0.4005
vn 0.1214 0.2903 -0.9492
vn -0.7294 0.6386 -0.2454
vn 0.3178 -0.2795 -0.9060
vn 0.0691 0.5492 -0.8328
vn 0.6787 0.7071 -0.1985
vn 0.5656 0.4810 0.6699
vn -0.9435 -0.3011 -0.1386
vt 0.738433 0.307590
vt 0.651915 0.513832
vt 0.615781 0.307600
vt 0.849857 0.944554
vt 0.912058 0.713321
vt 0.580918 0.760714
vt 0.385474 0.690813
vt 0.492886 0.568761
vt 0.598230 0.849586
vt 0.118203 0.047376
vt 0.059162 0.145799
vt 0.080906 0.339782
vt 0.903720 0.744347
vt 0.964199 0.553183
vt 0.221915 0.725817
vt 0.130610 0.685886
vt 0.258678 0.488380
vt 0.937223 0.385614
vt 0.886255 0.176176
vt 0.976031 0.586472
vt 0.853932 0.155735
vt 0.893013 0.053138
vt 0.990818 0.104150
vt 0.021026 0.656434
vt 0.211694 0.604762
vt 0.195362 0.437986
vt 0.442390 0.986520
vt 0.137609 0.879039
vt 0.230743 0.914957
vt 0.317189 0.562131
vt 0.130391 0.621007
vt 0.214130 0.348936
vt 0.513591 0.189968
vt 0.571288 0.062065
vt 0.559257 0.323386
vt 0.369400 0.403273
vt 0.689971 0.034545
vt 0.651794 0.160554
vt 0.316280 0.727755
vt 0.411623 0.671689
vt 0.318371 0.584713
vt 0.683261 0.624828
vt 0.440089 0.568253
vt 0.044520 0.297589
vt 0.142776 0.212481
vt 0.151624 0.394724
vt 0.422767 0.839757
vt 0.545506 0.199864
vt 0.636595 0.170446
vt 0.771695 0.177883
vt 0.783589 0.034348
vt 0.947186 0.512813
vt 0.597872 0.808902
vt 0.365839 0.553571
vt 0.260544 0.713874
vt 0.868995 0.335893
vt 0.957047 0.189537
vt 0.506939 0.482147
vt 0.028634 0.707547
vt 0.153141 0.741692
vt 0.903520 0.039130
vt 0.279783 0.187547
vt 0.434597 0.333143
vt 0.376787 0.050846
vt 0.810725 0.319886
vt 0.336741 0.391766
vt 0.272124 0.374735
vt 0.578408 0.988926
vt 0.790107 0.734078
vt 0.790727 0.163235
vt 0.378564 0.231690
vt 0.295820 0.011424
vt 0.460859 0.064139
vt 0.276233 0.171550
vt 0.190113 0.043840
vt 0.339255 0.006345
vt 0.827870 0.033837
vt 0.952837 0.294460
vt 0.259162 0.957177
vt 0.814657 0.961433
vt 0.361255 0.711318
vt 0.986378 0.381666
vt 0.215205 0.097734
vt 0.268314 0.170987
vt 0.411837 0.344126
vt 0.808441 0.451288
vt 0.505562 0.208225
vt 0.563007 0.458933
vt 0.100208 0.889860
vt 0.538531 0.198784
vt 0.408389 0.414782
vt 0.551067 0.354355
vt 0.739437 0.475346
vt 0.365357 0.169519
vt 0.563965 0.024787
vt 0.791955 0.574805
vt 0.781085 0.014466
vt 0.657383 0.015249
vt 0.673360 0.240459
vt 0.719017 0.273590
vt 0.655876 0.414723
vt 0.162862 0.368139
vt 0.006345 0.573878
s 0
usemtl Material
f 55/1/1 82/2/1 39/3/1
f 97/4/2 46/5/2 81/6/2
f 94/7/3 72/8/3 89/9/3
f 16/10/4 17/11/4 41/12/4
f 46/5/5 31/13/5 90/14/5
f 14/15/6 13/16/6 92/17/6
f 43/18/7 10/19/7 78/20/7
f 53/21/8 47/22/8 62/23/8
f 74/24/9 95/25/9 51/26/9
f 10/19/10 43/18/10 62/23/10
f 8/27/11 96/28/11 9/29/11
f 18/30/12 73/31/12 19/32/12
f 6/33/13 61/34/13 57/35/13
f 92/17/14 85/36/14 94/7/14
f 22/37/15 29/38/15 61/34/15
f 98/39/16 7/40/16 2/41/16
f 80/42/17 83/43/17 81/6/17
f 21/44/18 87/45/18 88/46/18
f 98/39/19 48/47/19 7/40/19
f 61/34/20 50/48/20 66/49/20
f 7/40/21 83/43/21 2/41/21
f 22/37/22 49/50/22 1/51/22
f 31/13/23 82/2/23 12/52/23
f 70/53/24 68/54/24 20/55/24
f 47/22/25 3/56/25 23/57/25
f 57/35/26 82/2/26 56/58/26
f 74/59/27 73/31/27 30/60/27
f 13/16/28 88/46/28 92/17/28
f 37/61/29 62/23/29 23/57/29
f 67/62/30 33/63/30 4/64/30
f 31/13/31 46/5/31 97/4/31
f 49/50/32 38/65/32 10/19/32
f 2/41/33 86/66/33 15/67/33
f 8/68/34 91/69/34 78/20/34
f 64/70/35 3/56/35 47/22/35
f 71/71/36 26/72/36 45/73/36
f 32/74/37 52/75/37 60/76/37
f 89/9/38 8/68/38 9/29/38
f 55/1/39 11/77/39 36/78/39
f 48/47/40 63/79/40 97/80/40
f 30/60/41 79/81/41 63/79/41
f 28/82/42 23/57/42 3/56/42
f 27/83/43 5/84/43 87/45/43
f 91/69/44 89/9/44 72/8/44
f 57/35/45 58/85/45 6/33/45
f 96/28/46 70/53/46 20/55/46
f 86/66/47 26/72/47 15/67/47
f 10/19/48 38/65/48 78/20/48
f 65/86/49 90/14/49 3/56/49
f 22/37/50 1/51/50 29/38/50
f 73/31/51 17/11/51 19/32/51
f 95/25/52 98/39/52 2/41/52
f 97/4/53 63/79/53 31/13/53
f 29/38/54 1/51/54 55/1/54
f 42/87/55 71/71/55 45/73/55
f 2/41/56 51/26/56 95/25/56
f 68/54/57 70/53/57 69/88/57
f 85/36/58 92/17/58 5/84/58
f 96/89/59 14/15/59 9/29/59
f 93/90/60 45/73/60 34/91/60
f 18/30/61 30/60/61 73/31/61
f 90/14/62 31/13/62 12/52/62
f 51/26/63 27/83/63 16/10/63
f 37/61/64 11/77/64 10/19/64
f 33/63/65 67/62/65 68/54/65
f 82/2/66 31/13/66 63/79/66
f 35/92/67 25/93/67 72/8/67
f 22/37/68 66/49/68 49/50/68
f 40/94/69 6/33/69 58/85/69
f 14/15/70 92/17/70 94/7/70
f 42/87/71 45/73/71 76/95/71
f 85/36/72 71/71/72 42/87/72
f 54/96/73 69/88/73 70/53/73
f 90/14/74 28/82/74 3/56/74
f 56/58/75 18/30/75 58/85/75
f 48/47/76 97/4/76 81/6/76
f 24/97/77 77/98/77 64/70/77
f 18/30/78 56/58/78 79/81/78
f 19/32/79 17/11/79 52/75/79
f 41/12/80 74/24/80 51/26/80
f 14/15/81 94/7/81 9/29/81
f 85/36/82 72/8/82 94/7/82
f 53/21/83 24/97/83 47/22/83
f 93/90/84 76/95/84 45/73/84
f 60/76/85 40/94/85 32/74/85
f 26/72/86 27/83/86 15/67/86
f 38/65/87 54/96/87 78/20/87
f 47/22/88 23/57/88 62/23/88
f 10/19/89 62/23/89 37/61/89
f 2/41/90 15/67/90 51/26/90
f 90/14/91 65/86/91 46/5/91
f 91/69/92 8/68/92 89/9/92
f 12/52/93 55/1/93 36/78/93
f 91/69/94 72/8/94 25/93/94
f 42/87/95 76/95/95 77/98/95
f 88/46/96 13/16/96 21/44/96
f 27/83/97 51/26/97 15/67/97
f 32/74/98 19/32/98 52/75/98
f 2/41/99 34/91/99 86/66/99
f 80/42/100 81/6/100 46/5/100
f 58/85/101 57/35/101 56/58/101
f 1/51/102 10/19/102 11/77/102
f 33/63/103 68/54/103 69/88/103
f 66/49/104 22/37/104 61/34/104
f 42/87/105 77/98/105 35/92/105
f 76/95/106 93/90/106 84/99/106
f 65/86/107 80/42/107 46/5/107
f 9/29/108 94/7/108 89/9/108
f 11/77/109 55/1/109 1/51/109
f 77/98/110 24/97/110 75/100/110
f 61/34/111 4/64/111 50/48/111
f 57/35/112 39/3/112 82/2/112
f 33/63/113 69/88/113 50/48/113
f 26/72/114 71/71/114 5/84/114
f 84/99/115 93/90/115 44/101/115
f 75/100/116 35/92/116 77/98/116
f 17/11/117 21/44/117 52/75/117
f 75/100/118 24/97/118 53/21/118
f 96/28/119 20/55/119 13/16/119
f 48/47/120 81/6/120 7/40/120
f 87/45/121 16/10/121 27/83/121
f 44/101/122 83/43/122 80/42/122
f 52/75/123 67/62/123 60/76/123
f 49/50/124 10/19/124 1/51/124
f 36/78/125 23/57/125 28/82/125
f 43/18/126 53/21/126 62/23/126
f 11/77/127 37/61/127 36/78/127
f 3/56/128 64/70/128 65/86/128
f 71/71/129 85/36/129 5/84/129
f 63/79/130 74/59/130 30/60/130
f 77/98/131 76/95/131 84/99/131
f 53/21/132 25/93/132 75/100/132
f 7/40/133 81/6/133 83/43/133
f 44/101/134 34/91/134 83/43/134
f 61/34/135 39/3/135 57/35/135
f 49/50/136 66/49/136 38/65/136
f 40/94/137 4/64/137 61/34/137
f 73/31/138 41/12/138 17/11/138
f 33/63/139 50/48/139 4/64/139
f 26/72/140 5/84/140 27/83/140
f 36/78/141 37/61/141 23/57/141
f 21/44/142 16/10/142 87/45/142
f 98/39/143 63/79/143 48/47/143
f 66/49/144 50/48/144 69/88/144
f 35/92/145 85/36/145 42/87/145
f 82/2/146 55/1/146 12/52/146
f 25/93/147 35/92/147 75/100/147
f 12/52/148 28/82/148 90/14/148
f 79/81/149 30/60/149 18/30/149
f 86/66/150 45/73/150 26/72/150
f 95/25/151 74/24/151 98/39/151
f 52/75/152 59/102/152 67/62/152
f 19/32/153 58/85/153 18/30/153
f 84/99/154 65/86/154 64/70/154
f 51/26/155 16/10/155 41/12/155
f 78/20/156 70/53/156 8/68/156
f 59/102/157 13/16/157 20/55/157
f 64/70/158 77/98/158 84/99/158
f 38/65/159 69/88/159 54/96/159
f 4/64/160 60/76/160 67/62/160
f 5/84/161 88/46/161 87/45/161
f 44/101/162 80/42/162 65/86/162
f 12/52/163 36/78/163 28/82/163
f 68/54/164 59/102/164 20/55/164
f 14/15/165 96/89/165 13/16/165
f 47/22/166 24/97/166 64/70/166
f 19/32/167 40/94/167 58/85/167
f 82/2/168 79/81/168 56/58/168
f 39/3/169 29/38/169 55/1/169
f 91/69/170 43/18/170 78/20/170
f 96/28/171 8/27/171 70/53/171
f 2/41/172 83/43/172 34/91/172
f 63/79/173 98/39/173 74/59/173
f 53/21/174 43/18/174 25/93/174
f 44/101/175 93/90/175 34/91/175
f 61/34/176 29/38/176 39/3/176
f 61/34/177 6/33/177 40/94/177
f 40/94/178 60/76/178 4/64/178
f 73/31/179 74/103/179 41/12/179
f 21/44/180 17/11/180 16/10/180
f 35/92/181 72/8/181 85/36/181
f 86/66/182 34/91/182 45/73/182
f 52/75/183 21/44/183 59/102/183
f 84/99/184 44/101/184 65/86/184
f 78/20/185 54/96/185 70/53/185
f 59/102/186 21/44/186 13/16/186
f 38/65/187 66/49/187 69/88/187
f 5/84/188 92/17/188 88/46/188
f 68/54/189 67/62/189 59/102/189
f 19/32/190 32/74/190 40/94/190
f 82/2/191 63/79/191 79/81/191
f 91/69/192 25/93/192 43/18/192
