solid 
facet normal 0.049369026 0.72176206 0.69037825
 outer loop
  vertex -0.33185074 1.9013001 1.4547398
  vertex 0.5313284 1.5109434 1.8011156
  vertex 0.6071749 2.0280948 1.2550313
 endloop
endfacet
facet normal 0.4433315 -0.15544814 0.88277584
 outer loop
  vertex 1.6175396 -0.014193707 1.9264039
  vertex 0.36400694 -0.3476248 2.4972162
  vertex 1.1583344 -1.2268363 1.9434831
 endloop
endfacet
facet normal -0.9060292 -0.2280601 0.35651043
 outer loop
  vertex -1.5591383 -1.3429725 0.9445396
  vertex -1.3489921 -0.74586254 1.8605733
  vertex -1.9962374 0.5944684 1.0730869
 endloop
endfacet
facet normal 0.99734104 -0.07225439 0.009494733
 outer loop
  vertex 2.2746563 0.3694798 0.5215288
  vertex 2.1544023 -1.2639694 0.72273576
  vertex 2.1649175 -1.2169716 -0.024147386
 endloop
endfacet
facet normal 0.84348947 0.5305585 -0.08386367
 outer loop
  vertex 1.6889163 1.3513458 0.8419525
  vertex 2.2746563 0.3694798 0.5215288
  vertex 1.5622286 1.3685409 -0.3234721
 endloop
endfacet
facet normal -0.21295033 -0.5193275 -0.82761765
 outer loop
  vertex -0.09625391 -1.2666953 -2.1398034
  vertex -0.25740078 -1.8683375 -1.7208109
  vertex -1.082657 -1.5051999 -1.7363359
 endloop
endfacet
facet normal -0.35426483 0.8942138 0.273639
 outer loop
  vertex -1.1371208 1.9391308 0.28857705
  vertex -0.33185074 1.9013001 1.4547398
  vertex -0.09335731 2.2791717 0.5286723
 endloop
endfacet
facet normal 0.8029176 -0.45746237 0.38216686
 outer loop
  vertex 2.0234346 -0.99401 1.3210411
  vertex 1.7827705 -1.5022941 1.2182395
  vertex 2.1544023 -1.2639694 0.72273576
 endloop
endfacet
facet normal -0.25806236 0.94239646 -0.21282104
 outer loop
  vertex -0.09335731 2.2791717 0.5286723
  vertex -0.5257068 1.8651868 -0.7802433
  vertex -1.1371208 1.9391308 0.28857705
 endloop
endfacet
facet normal -0.6595467 0.7294845 0.18124731
 outer loop
  vertex -1.1371208 1.9391308 0.28857705
  vertex -1.8833464 1.2104055 0.50608766
  vertex -1.4838201 1.3810242 1.2732302
 endloop
endfacet
facet normal 0.27083755 -0.8809625 0.3880103
 outer loop
  vertex 1.596801 -1.8627814 0.52957666
  vertex 1.7827705 -1.5022941 1.2182395
  vertex 0.18169631 -1.9077349 1.4152778
 endloop
endfacet
facet normal 0.25540468 -0.89627415 0.36257574
 outer loop
  vertex 1.596801 -1.8627814 0.52957666
  vertex 0.18169631 -1.9077349 1.4152778
  vertex 0.20816693 -2.2925167 0.44546467
 endloop
endfacet
facet normal 0.1422946 -0.03853021 -0.9890741
 outer loop
  vertex -0.5493713 -0.5822635 -2.2316544
  vertex 0.8302984 -0.558267 -2.034101
  vertex -0.09625391 -1.2666953 -2.1398034
 endloop
endfacet
facet normal 0.012996187 0.74839187 -0.6631296
 outer loop
  vertex 0.40178943 1.1940085 -1.5195414
  vertex -0.5257068 1.8651868 -0.7802433
  vertex 0.63483965 1.8653057 -0.75736445
 endloop
endfacet
facet normal 0.4028542 0.05000405 0.91389716
 outer loop
  vertex 0.40936494 0.36402553 2.438284
  vertex 0.36400694 -0.3476248 2.4972162
  vertex 1.6175396 -0.014193707 1.9264039
 endloop
endfacet
facet normal 0.7366123 -0.6755511 -0.032138627
 outer loop
  vertex 2.1544023 -1.2639694 0.72273576
  vertex 1.596801 -1.8627814 0.52957666
  vertex 2.1649175 -1.2169716 -0.024147386
 endloop
endfacet
facet normal -0.92219543 0.022091914 -0.38609263
 outer loop
  vertex -1.4381839 -0.06426289 -1.7620025
  vertex -1.6606555 -0.7418903 -1.2693948
  vertex -2.1278605 -0.16815485 -0.120630905
 endloop
endfacet
facet normal -0.48028004 -0.5164308 0.7089642
 outer loop
  vertex -0.8801096 -1.479055 1.6441332
  vertex -0.5264645 -1.0799676 2.1744134
  vertex -1.3489921 -0.74586254 1.8605733
 endloop
endfacet
facet normal 0.5790755 0.640684 -0.504178
 outer loop
  vertex 1.5622286 1.3685409 -0.3234721
  vertex 1.1859607 1.0908622 -1.1084962
  vertex 0.63483965 1.8653057 -0.75736445
 endloop
endfacet
facet normal -0.34340918 0.47839752 0.80821157
 outer loop
  vertex -0.33185074 1.9013001 1.4547398
  vertex -1.4838201 1.3810242 1.2732302
  vertex -0.8165214 0.10678916 2.3110123
 endloop
endfacet
facet normal 0.8161073 0.33263618 0.47256964
 outer loop
  vertex 2.2746563 0.3694798 0.5215288
  vertex 1.6889163 1.3513458 0.8419525
  vertex 1.6175396 -0.014193707 1.9264039
 endloop
endfacet
facet normal -0.42036372 -0.20449376 0.8840117
 outer loop
  vertex -0.8165214 0.10678916 2.3110123
  vertex -1.3489921 -0.74586254 1.8605733
  vertex -0.5264645 -1.0799676 2.1744134
 endloop
endfacet
facet normal 0.27332038 0.95951176 0.06806765
 outer loop
  vertex 0.6071749 2.0280948 1.2550313
  vertex 1.1121548 1.9549947 0.2577746
  vertex -0.09335731 2.2791717 0.5286723
 endloop
endfacet
facet normal 0.622421 -0.74722916 -0.23289628
 outer loop
  vertex 1.596801 -1.8627814 0.52957666
  vertex 1.0327352 -1.6739042 -1.5839005
  vertex 2.1649175 -1.2169716 -0.024147386
 endloop
endfacet
facet normal -0.98429024 0.17650719 -0.0042330767
 outer loop
  vertex -1.9962374 0.5944684 1.0730869
  vertex -1.8833464 1.2104055 0.50608766
  vertex -2.1278605 -0.16815485 -0.120630905
 endloop
endfacet
facet normal -0.4313195 0.8415745 0.32513997
 outer loop
  vertex -1.1371208 1.9391308 0.28857705
  vertex -1.4838201 1.3810242 1.2732302
  vertex -0.33185074 1.9013001 1.4547398
 endloop
endfacet
facet normal 0.8774161 0.3364356 -0.3419828
 outer loop
  vertex 2.2746563 0.3694798 0.5215288
  vertex 1.899009 -0.11729929 -0.92114246
  vertex 1.5622286 1.3685409 -0.3234721
 endloop
endfacet
facet normal -0.463508 0.601809 -0.6503739
 outer loop
  vertex -0.7998161 0.6243064 -1.9242183
  vertex -1.6197278 0.7445708 -1.2286001
  vertex -1.1459715 1.5404632 -0.8297751
 endloop
endfacet
facet normal 0.17287138 -0.59364355 -0.7859408
 outer loop
  vertex -0.25740078 -1.8683375 -1.7208109
  vertex -0.09625391 -1.2666953 -2.1398034
  vertex 1.0327352 -1.6739042 -1.5839005
 endloop
endfacet
facet normal -0.3922428 0.14983518 -0.90757644
 outer loop
  vertex -0.7998161 0.6243064 -1.9242183
  vertex -0.5493713 -0.5822635 -2.2316544
  vertex -1.4381839 -0.06426289 -1.7620025
 endloop
endfacet
facet normal 0.29699552 -0.9545103 -0.026528511
 outer loop
  vertex 0.20816693 -2.2925167 0.44546467
  vertex 0.18152626 -2.2607365 -0.996257
  vertex 1.596801 -1.8627814 0.52957666
 endloop
endfacet
facet normal 0.7936996 -0.39888874 -0.45926973
 outer loop
  vertex 2.1649175 -1.2169716 -0.024147386
  vertex 1.0327352 -1.6739042 -1.5839005
  vertex 1.6333239 -0.761889 -1.3380876
 endloop
endfacet
facet normal -0.08110118 0.6852076 -0.72381836
 outer loop
  vertex -0.5257068 1.8651868 -0.7802433
  vertex 0.40178943 1.1940085 -1.5195414
  vertex -0.7998161 0.6243064 -1.9242183
 endloop
endfacet
facet normal 0.46031374 0.39322188 0.7959194
 outer loop
  vertex 0.5313284 1.5109434 1.8011156
  vertex 0.40936494 0.36402553 2.438284
  vertex 1.6175396 -0.014193707 1.9264039
 endloop
endfacet
facet normal -0.7103263 -0.66266644 -0.23729664
 outer loop
  vertex -0.76479447 -2.1935594 -0.76553977
  vertex -1.5572183 -1.5600246 -0.16267736
  vertex -1.082657 -1.5051999 -1.7363359
 endloop
endfacet
facet normal -0.29302505 -0.31513244 -0.9026782
 outer loop
  vertex -0.5493713 -0.5822635 -2.2316544
  vertex -0.09625391 -1.2666953 -2.1398034
  vertex -1.082657 -1.5051999 -1.7363359
 endloop
endfacet
facet normal -0.07578464 -0.9969119 -0.020574808
 outer loop
  vertex -0.76479447 -2.1935594 -0.76553977
  vertex 0.18152626 -2.2607365 -0.996257
  vertex 0.20816693 -2.2925167 0.44546467
 endloop
endfacet
facet normal -0.1601562 -0.9053556 -0.39329538
 outer loop
  vertex -0.25740078 -1.8683375 -1.7208109
  vertex 0.18152626 -2.2607365 -0.996257
  vertex -0.76479447 -2.1935594 -0.76553977
 endloop
endfacet
facet normal -0.21474649 -0.16332084 0.9629176
 outer loop
  vertex 0.36400694 -0.3476248 2.4972162
  vertex -0.8165214 0.10678916 2.3110123
  vertex -0.5264645 -1.0799676 2.1744134
 endloop
endfacet
facet normal 0.5785261 0.7808641 0.23570941
 outer loop
  vertex 0.6071749 2.0280948 1.2550313
  vertex 1.6889163 1.3513458 0.8419525
  vertex 1.1121548 1.9549947 0.2577746
 endloop
endfacet
facet normal 0.6080312 -0.2195043 0.76296514
 outer loop
  vertex 2.0234346 -0.99401 1.3210411
  vertex 1.6175396 -0.014193707 1.9264039
  vertex 1.1583344 -1.2268363 1.9434831
 endloop
endfacet
facet normal -0.52141005 -0.77588147 0.35516113
 outer loop
  vertex -1.5591383 -1.3429725 0.9445396
  vertex -0.6957294 -2.0957904 0.5675069
  vertex -0.8801096 -1.479055 1.6441332
 endloop
endfacet
facet normal 0.7750672 0.37903884 -0.5055692
 outer loop
  vertex 1.5622286 1.3685409 -0.3234721
  vertex 1.899009 -0.11729929 -0.92114246
  vertex 1.1859607 1.0908622 -1.1084962
 endloop
endfacet
facet normal 0.9656338 0.022273218 -0.25895008
 outer loop
  vertex 1.899009 -0.11729929 -0.92114246
  vertex 2.2746563 0.3694798 0.5215288
  vertex 2.1649175 -1.2169716 -0.024147386
 endloop
endfacet
facet normal -0.52697253 -0.14493829 -0.8374322
 outer loop
  vertex -0.5493713 -0.5822635 -2.2316544
  vertex -1.082657 -1.5051999 -1.7363359
  vertex -1.4381839 -0.06426289 -1.7620025
 endloop
endfacet
facet normal 0.561199 0.75865626 -0.33090237
 outer loop
  vertex 0.63483965 1.8653057 -0.75736445
  vertex 1.1121548 1.9549947 0.2577746
  vertex 1.5622286 1.3685409 -0.3234721
 endloop
endfacet
facet normal -0.94051284 0.26402965 -0.21383147
 outer loop
  vertex -1.8833464 1.2104055 0.50608766
  vertex -1.6197278 0.7445708 -1.2286001
  vertex -2.1278605 -0.16815485 -0.120630905
 endloop
endfacet
facet normal -0.18721807 0.46376407 0.86595166
 outer loop
  vertex 0.40936494 0.36402553 2.438284
  vertex -0.33185074 1.9013001 1.4547398
  vertex -0.8165214 0.10678916 2.3110123
 endloop
endfacet
facet normal -0.839891 -0.47100887 -0.26969177
 outer loop
  vertex -1.6606555 -0.7418903 -1.2693948
  vertex -1.082657 -1.5051999 -1.7363359
  vertex -1.5572183 -1.5600246 -0.16267736
 endloop
endfacet
facet normal -0.20136166 -0.9760769 0.0820205
 outer loop
  vertex -0.76479447 -2.1935594 -0.76553977
  vertex 0.20816693 -2.2925167 0.44546467
  vertex -0.6957294 -2.0957904 0.5675069
 endloop
endfacet
facet normal -0.3034365 0.6812263 -0.6662259
 outer loop
  vertex -0.5257068 1.8651868 -0.7802433
  vertex -0.7998161 0.6243064 -1.9242183
  vertex -1.1459715 1.5404632 -0.8297751
 endloop
endfacet
facet normal 0.077936694 -0.47993493 0.87383544
 outer loop
  vertex -0.5264645 -1.0799676 2.1744134
  vertex 1.1583344 -1.2268363 1.9434831
  vertex 0.36400694 -0.3476248 2.4972162
 endloop
endfacet
facet normal -0.76121897 -0.19881299 -0.61726743
 outer loop
  vertex -1.4381839 -0.06426289 -1.7620025
  vertex -1.082657 -1.5051999 -1.7363359
  vertex -1.6606555 -0.7418903 -1.2693948
 endloop
endfacet
facet normal -0.6112882 -0.7768256 0.15122417
 outer loop
  vertex -0.6957294 -2.0957904 0.5675069
  vertex -1.5591383 -1.3429725 0.9445396
  vertex -1.5572183 -1.5600246 -0.16267736
 endloop
endfacet
facet normal 0.005881974 0.9528713 -0.30331782
 outer loop
  vertex -0.09335731 2.2791717 0.5286723
  vertex 0.63483965 1.8653057 -0.75736445
  vertex -0.5257068 1.8651868 -0.7802433
 endloop
endfacet
facet normal -0.57955486 -0.8100108 0.08943497
 outer loop
  vertex -1.5572183 -1.5600246 -0.16267736
  vertex -0.76479447 -2.1935594 -0.76553977
  vertex -0.6957294 -2.0957904 0.5675069
 endloop
endfacet
facet normal 0.6403963 0.2662389 -0.7204231
 outer loop
  vertex 1.899009 -0.11729929 -0.92114246
  vertex 0.8302984 -0.558267 -2.034101
  vertex 1.1859607 1.0908622 -1.1084962
 endloop
endfacet
facet normal 0.60157484 -0.42201185 0.6782431
 outer loop
  vertex 2.0234346 -0.99401 1.3210411
  vertex 1.1583344 -1.2268363 1.9434831
  vertex 1.7827705 -1.5022941 1.2182395
 endloop
endfacet
facet normal 0.61299086 -0.19748084 -0.7650121
 outer loop
  vertex 0.8302984 -0.558267 -2.034101
  vertex 1.6333239 -0.761889 -1.3380876
  vertex 1.0327352 -1.6739042 -1.5839005
 endloop
endfacet
facet normal 0.26865757 -0.80070764 0.5354347
 outer loop
  vertex 0.18169631 -1.9077349 1.4152778
  vertex 1.7827705 -1.5022941 1.2182395
  vertex 1.1583344 -1.2268363 1.9434831
 endloop
endfacet
facet normal 0.42976856 0.60835993 -0.6672309
 outer loop
  vertex 1.1859607 1.0908622 -1.1084962
  vertex 0.40178943 1.1940085 -1.5195414
  vertex 0.63483965 1.8653057 -0.75736445
 endloop
endfacet
facet normal -0.827222 0.4550387 0.32961127
 outer loop
  vertex -1.8833464 1.2104055 0.50608766
  vertex -1.9962374 0.5944684 1.0730869
  vertex -1.4838201 1.3810242 1.2732302
 endloop
endfacet
facet normal -0.9408313 -0.22884065 0.2499371
 outer loop
  vertex -2.1278605 -0.16815485 -0.120630905
  vertex -1.5591383 -1.3429725 0.9445396
  vertex -1.9962374 0.5944684 1.0730869
 endloop
endfacet
facet normal -0.6527602 0.24264242 0.71765506
 outer loop
  vertex -1.4838201 1.3810242 1.2732302
  vertex -1.9962374 0.5944684 1.0730869
  vertex -0.8165214 0.10678916 2.3110123
 endloop
endfacet
facet normal 0.18123698 -0.81461185 -0.5509634
 outer loop
  vertex 0.18152626 -2.2607365 -0.996257
  vertex -0.25740078 -1.8683375 -1.7208109
  vertex 1.0327352 -1.6739042 -1.5839005
 endloop
endfacet
facet normal -0.15153655 -0.92018855 0.36095667
 outer loop
  vertex -0.6957294 -2.0957904 0.5675069
  vertex 0.20816693 -2.2925167 0.44546467
  vertex 0.18169631 -1.9077349 1.4152778
 endloop
endfacet
facet normal -0.70799285 0.07093811 0.70264786
 outer loop
  vertex -0.8165214 0.10678916 2.3110123
  vertex -1.9962374 0.5944684 1.0730869
  vertex -1.3489921 -0.74586254 1.8605733
 endloop
endfacet
facet normal -0.42327166 0.8544548 -0.3012443
 outer loop
  vertex -1.1371208 1.9391308 0.28857705
  vertex -0.5257068 1.8651868 -0.7802433
  vertex -1.1459715 1.5404632 -0.8297751
 endloop
endfacet
facet normal -0.1233814 0.49192128 0.8618529
 outer loop
  vertex 0.5313284 1.5109434 1.8011156
  vertex -0.33185074 1.9013001 1.4547398
  vertex 0.40936494 0.36402553 2.438284
 endloop
endfacet
facet normal -0.12143289 0.08960202 0.9885472
 outer loop
  vertex 0.40936494 0.36402553 2.438284
  vertex -0.8165214 0.10678916 2.3110123
  vertex 0.36400694 -0.3476248 2.4972162
 endloop
endfacet
facet normal 0.45888224 -0.86573154 -0.19983976
 outer loop
  vertex 1.596801 -1.8627814 0.52957666
  vertex 0.18152626 -2.2607365 -0.996257
  vertex 1.0327352 -1.6739042 -1.5839005
 endloop
endfacet
facet normal 0.971745 -0.042950634 0.23209229
 outer loop
  vertex 2.1544023 -1.2639694 0.72273576
  vertex 2.2746563 0.3694798 0.5215288
  vertex 2.0234346 -0.99401 1.3210411
 endloop
endfacet
facet normal 0.7552282 0.6514417 -0.07248567
 outer loop
  vertex 1.5622286 1.3685409 -0.3234721
  vertex 1.1121548 1.9549947 0.2577746
  vertex 1.6889163 1.3513458 0.8419525
 endloop
endfacet
facet normal -0.15555407 -0.7366506 0.6581405
 outer loop
  vertex 0.18169631 -1.9077349 1.4152778
  vertex -0.5264645 -1.0799676 2.1744134
  vertex -0.8801096 -1.479055 1.6441332
 endloop
endfacet
facet normal 0.90719426 -0.11152825 -0.40566015
 outer loop
  vertex 2.1649175 -1.2169716 -0.024147386
  vertex 1.6333239 -0.761889 -1.3380876
  vertex 1.899009 -0.11729929 -0.92114246
 endloop
endfacet
facet normal -0.92197037 0.046594102 -0.38444716
 outer loop
  vertex -2.1278605 -0.16815485 -0.120630905
  vertex -1.6197278 0.7445708 -1.2286001
  vertex -1.4381839 -0.06426289 -1.7620025
 endloop
endfacet
facet normal -0.24969582 -0.85805595 0.44876713
 outer loop
  vertex -0.8801096 -1.479055 1.6441332
  vertex -0.6957294 -2.0957904 0.5675069
  vertex 0.18169631 -1.9077349 1.4152778
 endloop
endfacet
facet normal 0.046649203 -0.6531877 0.7557577
 outer loop
  vertex 0.18169631 -1.9077349 1.4152778
  vertex 1.1583344 -1.2268363 1.9434831
  vertex -0.5264645 -1.0799676 2.1744134
 endloop
endfacet
facet normal -0.6445121 -0.56442875 0.51577556
 outer loop
  vertex -1.3489921 -0.74586254 1.8605733
  vertex -1.5591383 -1.3429725 0.9445396
  vertex -0.8801096 -1.479055 1.6441332
 endloop
endfacet
facet normal -0.573104 0.35761663 -0.7373345
 outer loop
  vertex -0.7998161 0.6243064 -1.9242183
  vertex -1.4381839 -0.06426289 -1.7620025
  vertex -1.6197278 0.7445708 -1.2286001
 endloop
endfacet
facet normal 0.6901065 -0.700837 0.18050067
 outer loop
  vertex 2.1544023 -1.2639694 0.72273576
  vertex 1.7827705 -1.5022941 1.2182395
  vertex 1.596801 -1.8627814 0.52957666
 endloop
endfacet
facet normal 0.89139783 0.095544815 0.4430361
 outer loop
  vertex 1.6175396 -0.014193707 1.9264039
  vertex 2.0234346 -0.99401 1.3210411
  vertex 2.2746563 0.3694798 0.5215288
 endloop
endfacet
facet normal -0.92201805 -0.38021457 0.072936125
 outer loop
  vertex -1.5591383 -1.3429725 0.9445396
  vertex -2.1278605 -0.16815485 -0.120630905
  vertex -1.5572183 -1.5600246 -0.16267736
 endloop
endfacet
facet normal 0.18529269 0.2785782 -0.9423698
 outer loop
  vertex -0.5493713 -0.5822635 -2.2316544
  vertex -0.7998161 0.6243064 -1.9242183
  vertex 0.40178943 1.1940085 -1.5195414
 endloop
endfacet
facet normal 0.12957461 0.3084199 -0.942384
 outer loop
  vertex -0.5493713 -0.5822635 -2.2316544
  vertex 0.40178943 1.1940085 -1.5195414
  vertex 0.8302984 -0.558267 -2.034101
 endloop
endfacet
facet normal -0.047422383 0.929059 0.36687946
 outer loop
  vertex -0.09335731 2.2791717 0.5286723
  vertex -0.33185074 1.9013001 1.4547398
  vertex 0.6071749 2.0280948 1.2550313
 endloop
endfacet
facet normal 0.21590807 0.9584946 -0.18620369
 outer loop
  vertex -0.09335731 2.2791717 0.5286723
  vertex 1.1121548 1.9549947 0.2577746
  vertex 0.63483965 1.8653057 -0.75736445
 endloop
endfacet
facet normal 0.6700753 0.18825568 -0.71802425
 outer loop
  vertex 0.8302984 -0.558267 -2.034101
  vertex 1.899009 -0.11729929 -0.92114246
  vertex 1.6333239 -0.761889 -1.3380876
 endloop
endfacet
facet normal -0.34967643 -0.8144597 -0.46301386
 outer loop
  vertex -0.76479447 -2.1935594 -0.76553977
  vertex -1.082657 -1.5051999 -1.7363359
  vertex -0.25740078 -1.8683375 -1.7208109
 endloop
endfacet
facet normal 0.47041035 0.3525857 -0.8089484
 outer loop
  vertex 1.1859607 1.0908622 -1.1084962
  vertex 0.8302984 -0.558267 -2.034101
  vertex 0.40178943 1.1940085 -1.5195414
 endloop
endfacet
facet normal -0.7599157 0.5895436 -0.27380013
 outer loop
  vertex -1.1459715 1.5404632 -0.8297751
  vertex -1.6197278 0.7445708 -1.2286001
  vertex -1.8833464 1.2104055 0.50608766
 endloop
endfacet
facet normal -0.7134198 0.661819 -0.23027766
 outer loop
  vertex -1.1459715 1.5404632 -0.8297751
  vertex -1.8833464 1.2104055 0.50608766
  vertex -1.1371208 1.9391308 0.28857705
 endloop
endfacet
facet normal 0.5757371 0.5522462 0.60295177
 outer loop
  vertex 1.6889163 1.3513458 0.8419525
  vertex 0.6071749 2.0280948 1.2550313
  vertex 0.5313284 1.5109434 1.8011156
 endloop
endfacet
facet normal 0.59831285 0.4788945 0.6424031
 outer loop
  vertex 1.6889163 1.3513458 0.8419525
  vertex 0.5313284 1.5109434 1.8011156
  vertex 1.6175396 -0.014193707 1.9264039
 endloop
endfacet
facet normal 0.33184752 -0.30060896 -0.8941541
 outer loop
  vertex 1.0327352 -1.6739042 -1.5839005
  vertex -0.09625391 -1.2666953 -2.1398034
  vertex 0.8302984 -0.558267 -2.034101
 endloop
endfacet
facet normal -0.910943 -0.36782843 -0.1867755
 outer loop
  vertex -1.6606555 -0.7418903 -1.2693948
  vertex -1.5572183 -1.5600246 -0.16267736
  vertex -2.1278605 -0.16815485 -0.120630905
 endloop
endfacet
endsolid 
