solid 
facet normal -0.030496094 0.6792964 0.7332301
 outer loop
  vertex -0.3584599 1.5467687 1.7299219
  vertex 0.53402305 1.5111724 1.8000195
  vertex 0.11379128 2.0078006 1.3224435
 endloop
endfacet
facet normal 0.4417363 -0.21571496 0.87082493
 outer loop
  vertex 1.3916168 -0.18381047 2.0743322
  vertex 0.5946681 -0.43645278 2.416011
  vertex 1.4006796 -1.1418313 1.8324205
 endloop
endfacet
facet normal -0.7679273 -0.33772483 -0.54426986
 outer loop
  vertex -0.9940514 -1.2346369 -1.9222548
  vertex -1.1038456 -1.6749305 -1.4941362
  vertex -1.5034852 -0.73098177 -1.5160018
 endloop
endfacet
facet normal 0.8467695 0.12060268 -0.5181084
 outer loop
  vertex 1.6339916 -0.7606805 -1.3384616
  vertex 1.702709 0.35273772 -0.96697766
  vertex 2.0923998 -0.42132163 -0.51026875
 endloop
endfacet
facet normal 0.15744723 0.058209717 0.98581034
 outer loop
  vertex 0.5946681 -0.43645278 2.416011
  vertex 0.6644582 0.32698828 2.3597853
  vertex 0.043905742 -0.2607767 2.493602
 endloop
endfacet
facet normal -0.046786133 -0.11659876 -0.9920765
 outer loop
  vertex -0.7012181 -0.7502493 -2.1731293
  vertex -0.4302628 -0.47962034 -2.2177145
  vertex -0.0954996 -1.2658721 -2.1410937
 endloop
endfacet
facet normal -0.998556 -0.012462927 0.052254718
 outer loop
  vertex -2.0217276 -0.53730696 0.3146281
  vertex -2.0090156 0.75447744 0.86564165
  vertex -2.0634565 0.0052342624 -0.3533894
 endloop
endfacet
facet normal -0.89489853 -0.26132765 0.3617519
 outer loop
  vertex -1.7249641 -1.0933181 0.7975007
  vertex -1.4533225 -0.94564265 1.5761652
  vertex -1.868408 -0.071409844 1.1808718
 endloop
endfacet
facet normal 0.9958464 -0.057229906 -0.070814244
 outer loop
  vertex 2.3109264 0.044599604 0.47013474
  vertex 2.258902 -0.91824585 0.51666886
  vertex 2.213876 -1.0416653 -0.016779715
 endloop
endfacet
facet normal -0.97270566 -0.08287774 0.21673733
 outer loop
  vertex -2.0090156 0.75447744 0.86564165
  vertex -2.0217276 -0.53730696 0.3146281
  vertex -1.868408 -0.071409844 1.1808718
 endloop
endfacet
facet normal -0.55150306 0.17042886 -0.81657726
 outer loop
  vertex -1.5325371 0.1512653 -1.6074117
  vertex -0.9617215 0.22114497 -1.9783467
  vertex -1.2111098 -0.33726802 -1.926461
 endloop
endfacet
facet normal 0.8467307 0.52255416 -0.099920675
 outer loop
  vertex 1.7351018 1.3346168 0.6685863
  vertex 2.1851175 0.56300026 0.4467167
  vertex 1.6774416 1.260342 -0.20846243
 endloop
endfacet
facet normal 0.0936258 0.98419863 0.1502906
 outer loop
  vertex 0.36807325 2.192764 0.54048824
  vertex -0.24544783 2.254692 0.5171462
  vertex 0.4629922 2.1008239 1.08344
 endloop
endfacet
facet normal -0.21947853 -0.51696616 -0.8273906
 outer loop
  vertex -0.0954996 -1.2658721 -2.1410937
  vertex -0.25723764 -1.8692427 -1.7211951
  vertex -0.9940514 -1.2346369 -1.9222548
 endloop
endfacet
facet normal -0.3665879 0.908573 0.20027132
 outer loop
  vertex -1.1237644 1.8571452 0.71298105
  vertex -0.38233218 2.0676792 1.1150087
  vertex -0.24544783 2.254692 0.5171462
 endloop
endfacet
facet normal 0.8240935 -0.44105148 0.3554483
 outer loop
  vertex 2.0805457 -1.020198 1.1777061
  vertex 1.8697388 -1.3648218 1.2388338
  vertex 2.060951 -1.3750259 0.782854
 endloop
endfacet
facet normal 0.3867556 -0.6850157 0.61739254
 outer loop
  vertex 0.87809473 -1.3340802 1.9464793
  vertex 1.6366323 -1.6658756 1.1031687
  vertex 1.4006796 -1.1418313 1.8324205
 endloop
endfacet
facet normal 0.3724524 0.04519797 -0.92695004
 outer loop
  vertex 0.76952744 -0.08950689 -1.9449862
  vertex 0.9961727 -0.8405385 -1.8905394
  vertex 0.3796075 -0.7491875 -2.1338236
 endloop
endfacet
facet normal 0.72752243 -0.33925083 0.5963388
 outer loop
  vertex 2.0805457 -1.020198 1.1777061
  vertex 1.8320502 -0.84913963 1.5781794
  vertex 1.8697388 -1.3648218 1.2388338
 endloop
endfacet
facet normal -0.289746 0.9465995 -0.14140952
 outer loop
  vertex -0.24544783 2.254692 0.5171462
  vertex -0.6982952 1.9897796 -0.32830843
  vertex -1.1150879 1.9203787 0.06112181
 endloop
endfacet
facet normal 0.68334943 -0.6649573 0.30143884
 outer loop
  vertex 1.8697388 -1.3648218 1.2388338
  vertex 1.6366323 -1.6658756 1.1031687
  vertex 2.060951 -1.3750259 0.782854
 endloop
endfacet
facet normal -0.6150491 0.7645947 0.19263814
 outer loop
  vertex -1.1237644 1.8571452 0.71298105
  vertex -1.6920667 1.4036108 0.69863355
  vertex -1.4927503 1.4464887 1.1648192
 endloop
endfacet
facet normal 0.04846661 0.43121696 0.90094554
 outer loop
  vertex 0.6644582 0.32698828 2.3597853
  vertex 0.53402305 1.5111724 1.8000195
  vertex -0.1266667 0.3199425 2.4057164
 endloop
endfacet
facet normal -0.43262798 0.5318292 -0.7280047
 outer loop
  vertex -1.4875072 0.6129298 -1.4452876
  vertex -0.62702006 1.1096826 -1.5937526
  vertex -0.70797473 0.6562293 -1.8769052
 endloop
endfacet
facet normal -0.5547582 -0.42085814 0.7177199
 outer loop
  vertex -1.4533225 -0.94564265 1.5761652
  vertex -0.6907926 -0.9505803 2.1626637
  vertex -1.1850078 -0.50557077 2.041608
 endloop
endfacet
facet normal 0.3157858 0.74778867 0.5840303
 outer loop
  vertex 0.4629922 2.1008239 1.08344
  vertex 0.53402305 1.5111724 1.8000195
  vertex 1.001929 1.8162706 1.1563765
 endloop
endfacet
facet normal 0.9454242 0.239426 0.2210164
 outer loop
  vertex 2.3109264 0.044599604 0.47013474
  vertex 2.1851175 0.56300026 0.4467167
  vertex 2.1026967 0.53051215 0.8344759
 endloop
endfacet
facet normal 0.08245557 -0.061824642 -0.9946752
 outer loop
  vertex -0.4302628 -0.47962034 -2.2177145
  vertex 0.3796075 -0.7491875 -2.1338236
  vertex -0.0954996 -1.2658721 -2.1410937
 endloop
endfacet
facet normal -0.78846115 -0.02248688 0.6146733
 outer loop
  vertex -1.7542753 0.68620217 1.3549895
  vertex -1.868408 -0.071409844 1.1808718
  vertex -1.1850078 -0.50557077 2.041608
 endloop
endfacet
facet normal 0.042712092 0.75924844 -0.6493978
 outer loop
  vertex 0.5110681 1.4158856 -1.2973977
  vertex -0.42899662 1.6781446 -1.0526054
  vertex 0.42006102 1.9042678 -0.7323876
 endloop
endfacet
facet normal 0.3850525 0.032726783 0.9223142
 outer loop
  vertex 0.6644582 0.32698828 2.3597853
  vertex 0.5946681 -0.43645278 2.416011
  vertex 1.3916168 -0.18381047 2.0743322
 endloop
endfacet
facet normal -0.877911 0.46149486 0.12765147
 outer loop
  vertex -1.6920667 1.4036108 0.69863355
  vertex -1.931206 1.0678009 0.26801994
  vertex -2.0090156 0.75447744 0.86564165
 endloop
endfacet
facet normal 0.7581 -0.652107 -0.006398736
 outer loop
  vertex 2.060951 -1.3750259 0.782854
  vertex 1.7239262 -1.7619603 0.2865203
  vertex 1.9798495 -1.4612468 -0.03883702
 endloop
endfacet
facet normal -0.91854197 -0.038849305 -0.39341003
 outer loop
  vertex -1.5325371 0.1512653 -1.6074117
  vertex -1.8011653 -0.6697034 -0.89914215
  vertex -2.0634565 0.0052342624 -0.3533894
 endloop
endfacet
facet normal -0.53460443 -0.48658702 0.69096386
 outer loop
  vertex -0.88045365 -1.4798386 1.6432098
  vertex -0.6907926 -0.9505803 2.1626637
  vertex -1.4533225 -0.94564265 1.5761652
 endloop
endfacet
facet normal 0.33533388 -0.914144 -0.2277981
 outer loop
  vertex 0.18052249 -2.1124604 -1.3188734
  vertex 1.1295236 -1.8251692 -1.074768
  vertex 0.20352969 -2.3087816 -0.4971765
 endloop
endfacet
facet normal 0.57464135 0.615876 -0.5389657
 outer loop
  vertex 1.2858858 1.5665467 -0.4563736
  vertex 1.1853498 1.0897505 -1.1083992
  vertex 0.77874106 1.8097367 -0.71919435
 endloop
endfacet
facet normal -0.76780057 -0.09099236 -0.6341946
 outer loop
  vertex -1.5034852 -0.73098177 -1.5160018
  vertex -1.5325371 0.1512653 -1.6074117
  vertex -1.2111098 -0.33726802 -1.926461
 endloop
endfacet
facet normal -0.3702313 0.4653617 0.8039697
 outer loop
  vertex -0.3584599 1.5467687 1.7299219
  vertex -1.4567009 1.2517984 1.3949151
  vertex -0.89835316 0.27087834 2.2198224
 endloop
endfacet
facet normal 0.7527007 0.0073440126 0.658322
 outer loop
  vertex 1.8320502 -0.84913963 1.5781794
  vertex 1.7297432 0.26854768 1.6826848
  vertex 1.3916168 -0.18381047 2.0743322
 endloop
endfacet
facet normal 0.79818743 0.3792113 0.4680765
 outer loop
  vertex 2.1026967 0.53051215 0.8344759
  vertex 1.6406834 1.101337 1.1598713
  vertex 1.7297432 0.26854768 1.6826848
 endloop
endfacet
facet normal -0.39124143 -0.18952279 0.9005616
 outer loop
  vertex -0.60233253 -0.13679259 2.3723557
  vertex -1.1850078 -0.50557077 2.041608
  vertex -0.6907926 -0.9505803 2.1626637
 endloop
endfacet
facet normal 0.5204945 -0.29404876 -0.80163634
 outer loop
  vertex 1.2480779 -1.4259504 -1.5122446
  vertex 0.84527344 -1.6327642 -1.69792
  vertex 0.9961727 -0.8405385 -1.8905394
 endloop
endfacet
facet normal -0.850908 -0.36891177 -0.37397826
 outer loop
  vertex -1.8011653 -0.6697034 -0.89914215
  vertex -1.5034852 -0.73098177 -1.5160018
  vertex -1.1038456 -1.6749305 -1.4941362
 endloop
endfacet
facet normal 0.3410055 0.93486655 0.09868999
 outer loop
  vertex 0.4629922 2.1008239 1.08344
  vertex 1.1560036 1.9199104 0.40261355
  vertex 0.36807325 2.192764 0.54048824
 endloop
endfacet
facet normal -0.54297435 0.32489285 -0.7743536
 outer loop
  vertex -0.9617215 0.22114497 -1.9783467
  vertex -1.5325371 0.1512653 -1.6074117
  vertex -1.4875072 0.6129298 -1.4452876
 endloop
endfacet
facet normal -0.45272374 0.44428113 -0.77308184
 outer loop
  vertex -0.9617215 0.22114497 -1.9783467
  vertex -1.4875072 0.6129298 -1.4452876
  vertex -0.70797473 0.6562293 -1.8769052
 endloop
endfacet
facet normal 0.60511374 -0.7625495 -0.22881353
 outer loop
  vertex 1.7239262 -1.7619603 0.2865203
  vertex 1.1295236 -1.8251692 -1.074768
  vertex 1.9798495 -1.4612468 -0.03883702
 endloop
endfacet
facet normal -0.9872277 0.15157054 -0.049069762
 outer loop
  vertex -2.0090156 0.75447744 0.86564165
  vertex -1.931206 1.0678009 0.26801994
  vertex -2.0634565 0.0052342624 -0.3533894
 endloop
endfacet
facet normal -0.099065706 -0.34268254 0.93421334
 outer loop
  vertex -0.17104988 -1.1845231 2.1319647
  vertex 0.043905742 -0.2607767 2.493602
  vertex -0.6907926 -0.9505803 2.1626637
 endloop
endfacet
facet normal -0.43812206 0.813789 0.38183329
 outer loop
  vertex -1.1237644 1.8571452 0.71298105
  vertex -1.4927503 1.4464887 1.1648192
  vertex -0.38233218 2.0676792 1.1150087
 endloop
endfacet
facet normal 0.8827356 0.31554022 -0.3481555
 outer loop
  vertex 2.1851175 0.56300026 0.4467167
  vertex 1.702709 0.35273772 -0.96697766
  vertex 1.6774416 1.260342 -0.20846243
 endloop
endfacet
facet normal 0.93585193 -0.2839365 0.2087133
 outer loop
  vertex 2.258902 -0.91824585 0.51666886
  vertex 2.0805457 -1.020198 1.1777061
  vertex 2.060951 -1.3750259 0.782854
 endloop
endfacet
facet normal 0.5234594 0.29938626 0.7977206
 outer loop
  vertex 1.3916168 -0.18381047 2.0743322
  vertex 1.7297432 0.26854768 1.6826848
  vertex 0.6644582 0.32698828 2.3597853
 endloop
endfacet
facet normal -0.36594194 0.70303977 0.6097718
 outer loop
  vertex -0.38233218 2.0676792 1.1150087
  vertex -1.4927503 1.4464887 1.1648192
  vertex -0.3584599 1.5467687 1.7299219
 endloop
endfacet
facet normal 0.01368492 -0.9724471 -0.23272194
 outer loop
  vertex -0.49294192 -2.266777 -0.7136512
  vertex 0.18052249 -2.1124604 -1.3188734
  vertex 0.20352969 -2.3087816 -0.4971765
 endloop
endfacet
facet normal 0.9201823 -0.3912789 0.012858305
 outer loop
  vertex 2.060951 -1.3750259 0.782854
  vertex 2.213876 -1.0416653 -0.016779715
  vertex 2.258902 -0.91824585 0.51666886
 endloop
endfacet
facet normal -0.46015143 0.60206777 -0.65251446
 outer loop
  vertex -0.62702006 1.1096826 -1.5937526
  vertex -1.4875072 0.6129298 -1.4452876
  vertex -1.148768 1.5398457 -0.82891077
 endloop
endfacet
facet normal 0.14350814 -0.5909299 -0.7938559
 outer loop
  vertex -0.25723764 -1.8692427 -1.7211951
  vertex -0.0954996 -1.2658721 -2.1410937
  vertex 0.84527344 -1.6327642 -1.69792
 endloop
endfacet
facet normal -0.37844872 0.08335991 -0.92186105
 outer loop
  vertex -0.9617215 0.22114497 -1.9783467
  vertex -0.7012181 -0.7502493 -2.1731293
  vertex -1.2111098 -0.33726802 -1.926461
 endloop
endfacet
facet normal 0.30423114 -0.9525764 0.0064605563
 outer loop
  vertex 0.45075262 -2.2225401 0.5768324
  vertex 0.20352969 -2.3087816 -0.4971765
  vertex 1.5094228 -1.8843135 0.59329337
 endloop
endfacet
facet normal 0.86872125 0.44288394 0.22175926
 outer loop
  vertex 1.7351018 1.3346168 0.6685863
  vertex 2.1026967 0.53051215 0.8344759
  vertex 2.1851175 0.56300026 0.4467167
 endloop
endfacet
facet normal 0.05569432 0.16537611 0.98465675
 outer loop
  vertex 0.043905742 -0.2607767 2.493602
  vertex 0.6644582 0.32698828 2.3597853
  vertex -0.1266667 0.3199425 2.4057164
 endloop
endfacet
facet normal 0.82254434 -0.36273018 -0.43800423
 outer loop
  vertex 2.213876 -1.0416653 -0.016779715
  vertex 1.2480779 -1.4259504 -1.5122446
  vertex 1.6339916 -0.7606805 -1.3384616
 endloop
endfacet
facet normal -0.7953552 0.38543317 0.46781552
 outer loop
  vertex -1.7542753 0.68620217 1.3549895
  vertex -1.4567009 1.2517984 1.3949151
  vertex -2.0090156 0.75447744 0.86564165
 endloop
endfacet
facet normal 0.00341915 0.6888622 -0.7248843
 outer loop
  vertex -0.42899662 1.6781446 -1.0526054
  vertex 0.5110681 1.4158856 -1.2973977
  vertex -0.62702006 1.1096826 -1.5937526
 endloop
endfacet
facet normal 0.50439984 0.41379976 0.7578591
 outer loop
  vertex 0.53402305 1.5111724 1.8000195
  vertex 0.6644582 0.32698828 2.3597853
  vertex 1.7297432 0.26854768 1.6826848
 endloop
endfacet
facet normal -0.7572201 -0.62751985 -0.18120843
 outer loop
  vertex -0.94434786 -2.0538297 -0.8485159
  vertex -1.6690861 -1.301171 -0.4264707
  vertex -1.1038456 -1.6749305 -1.4941362
 endloop
endfacet
facet normal -0.62338984 0.779012 0.067270346
 outer loop
  vertex -1.1237644 1.8571452 0.71298105
  vertex -1.1150879 1.9203787 0.06112181
  vertex -1.6920667 1.4036108 0.69863355
 endloop
endfacet
facet normal 0.30697134 0.9447099 -0.11528934
 outer loop
  vertex 1.0287997 1.8895742 -0.18466479
  vertex 0.36807325 2.192764 0.54048824
  vertex 1.1560036 1.9199104 0.40261355
 endloop
endfacet
facet normal -0.23409781 -0.3317795 -0.91384935
 outer loop
  vertex -0.7012181 -0.7502493 -2.1731293
  vertex -0.0954996 -1.2658721 -2.1410937
  vertex -0.9940514 -1.2346369 -1.9222548
 endloop
endfacet
facet normal -0.059299175 -0.99823594 -0.002911658
 outer loop
  vertex -0.49294192 -2.266777 -0.7136512
  vertex 0.20352969 -2.3087816 -0.4971765
  vertex -0.03754724 -2.2967765 0.29678607
 endloop
endfacet
facet normal -0.14429557 -0.90848875 -0.3922078
 outer loop
  vertex -0.25723764 -1.8692427 -1.7211951
  vertex 0.18052249 -2.1124604 -1.3188734
  vertex -0.49294192 -2.266777 -0.7136512
 endloop
endfacet
facet normal -0.7364147 0.5400686 -0.40745467
 outer loop
  vertex -1.8855832 0.7976471 -0.48098662
  vertex -1.148768 1.5398457 -0.82891077
  vertex -1.4875072 0.6129298 -1.4452876
 endloop
endfacet
facet normal -0.22060989 -0.22081919 0.9500369
 outer loop
  vertex 0.043905742 -0.2607767 2.493602
  vertex -0.60233253 -0.13679259 2.3723557
  vertex -0.6907926 -0.9505803 2.1626637
 endloop
endfacet
facet normal 0.6369831 0.735355 0.23131275
 outer loop
  vertex 1.001929 1.8162706 1.1563765
  vertex 1.7351018 1.3346168 0.6685863
  vertex 1.1560036 1.9199104 0.40261355
 endloop
endfacet
facet normal 0.5917589 -0.19209203 0.78289336
 outer loop
  vertex 1.8320502 -0.84913963 1.5781794
  vertex 1.3916168 -0.18381047 2.0743322
  vertex 1.4006796 -1.1418313 1.8324205
 endloop
endfacet
facet normal -0.44546777 -0.8080999 0.38539982
 outer loop
  vertex -1.3066343 -1.5433818 1.0173689
  vertex -0.69588214 -2.0947394 0.5672347
  vertex -0.88045365 -1.4798386 1.6432098
 endloop
endfacet
facet normal 0.6764477 0.60641235 0.4179506
 outer loop
  vertex 1.7351018 1.3346168 0.6685863
  vertex 1.001929 1.8162706 1.1563765
  vertex 1.6406834 1.101337 1.1598713
 endloop
endfacet
facet normal 0.7533016 0.433969 -0.49417356
 outer loop
  vertex 1.6774416 1.260342 -0.20846243
  vertex 1.702709 0.35273772 -0.96697766
  vertex 1.1853498 1.0897505 -1.1083992
 endloop
endfacet
facet normal 0.9746255 0.013088416 -0.22345877
 outer loop
  vertex 2.0923998 -0.42132163 -0.51026875
  vertex 2.3109264 0.044599604 0.47013474
  vertex 2.213876 -1.0416653 -0.016779715
 endloop
endfacet
facet normal -0.5141966 -0.1283503 -0.84801424
 outer loop
  vertex -0.7012181 -0.7502493 -2.1731293
  vertex -0.9940514 -1.2346369 -1.9222548
  vertex -1.2111098 -0.33726802 -1.926461
 endloop
endfacet
facet normal -0.3328696 -0.61339265 -0.7162034
 outer loop
  vertex -0.25723764 -1.8692427 -1.7211951
  vertex -1.1038456 -1.6749305 -1.4941362
  vertex -0.9940514 -1.2346369 -1.9222548
 endloop
endfacet
facet normal -0.76391715 -0.53069377 0.36714417
 outer loop
  vertex -1.7249641 -1.0933181 0.7975007
  vertex -1.3066343 -1.5433818 1.0173689
  vertex -1.4533225 -0.94564265 1.5761652
 endloop
endfacet
facet normal 0.121034265 -0.991299 0.05173946
 outer loop
  vertex 0.45075262 -2.2225401 0.5768324
  vertex -0.03754724 -2.2967765 0.29678607
  vertex 0.20352969 -2.3087816 -0.4971765
 endloop
endfacet
facet normal 0.5504421 0.74873614 -0.369334
 outer loop
  vertex 0.77874106 1.8097367 -0.71919435
  vertex 1.0287997 1.8895742 -0.18466479
  vertex 1.2858858 1.5665467 -0.4563736
 endloop
endfacet
facet normal 0.7046523 -0.6087432 -0.3645502
 outer loop
  vertex 1.1295236 -1.8251692 -1.074768
  vertex 1.2480779 -1.4259504 -1.5122446
  vertex 1.9798495 -1.4612468 -0.03883702
 endloop
endfacet
facet normal -0.97168046 0.19713408 -0.130289
 outer loop
  vertex -1.931206 1.0678009 0.26801994
  vertex -1.8855832 0.7976471 -0.48098662
  vertex -2.0634565 0.0052342624 -0.3533894
 endloop
endfacet
facet normal -0.8062247 -0.12094215 0.5791155
 outer loop
  vertex -1.4533225 -0.94564265 1.5761652
  vertex -1.1850078 -0.50557077 2.041608
  vertex -1.868408 -0.071409844 1.1808718
 endloop
endfacet
facet normal -0.8851711 0.026594635 0.46450484
 outer loop
  vertex -2.0090156 0.75447744 0.86564165
  vertex -1.868408 -0.071409844 1.1808718
  vertex -1.7542753 0.68620217 1.3549895
 endloop
endfacet
facet normal 0.8735821 -0.48539555 -0.035290126
 outer loop
  vertex 2.060951 -1.3750259 0.782854
  vertex 1.9798495 -1.4612468 -0.03883702
  vertex 2.213876 -1.0416653 -0.016779715
 endloop
endfacet
facet normal 0.013857075 -0.36730853 0.92999595
 outer loop
  vertex 0.043905742 -0.2607767 2.493602
  vertex -0.17104988 -1.1845231 2.1319647
  vertex 0.5946681 -0.43645278 2.416011
 endloop
endfacet
facet normal -0.90100634 -0.07395837 -0.4274548
 outer loop
  vertex -1.8011653 -0.6697034 -0.89914215
  vertex -1.5325371 0.1512653 -1.6074117
  vertex -1.5034852 -0.73098177 -1.5160018
 endloop
endfacet
facet normal -0.23697454 0.43401316 0.86918104
 outer loop
  vertex -0.1266667 0.3199425 2.4057164
  vertex -0.3584599 1.5467687 1.7299219
  vertex -0.89835316 0.27087834 2.2198224
 endloop
endfacet
facet normal -0.8572372 -0.41124812 -0.30986977
 outer loop
  vertex -1.8011653 -0.6697034 -0.89914215
  vertex -1.1038456 -1.6749305 -1.4941362
  vertex -1.6690861 -1.301171 -0.4264707
 endloop
endfacet
facet normal -0.25896862 -0.9618541 0.08815766
 outer loop
  vertex -0.49294192 -2.266777 -0.7136512
  vertex -0.03754724 -2.2967765 0.29678607
  vertex -0.69588214 -2.0947394 0.5672347
 endloop
endfacet
facet normal 0.16117628 0.18238033 -0.9699276
 outer loop
  vertex 0.3796075 -0.7491875 -2.1338236
  vertex -0.4302628 -0.47962034 -2.2177145
  vertex 0.76952744 -0.08950689 -1.9449862
 endloop
endfacet
facet normal 0.8054557 -0.42768425 -0.41027704
 outer loop
  vertex 1.2480779 -1.4259504 -1.5122446
  vertex 2.213876 -1.0416653 -0.016779715
  vertex 1.9798495 -1.4612468 -0.03883702
 endloop
endfacet
facet normal 0.7082668 0.51334757 -0.48459515
 outer loop
  vertex 1.2858858 1.5665467 -0.4563736
  vertex 1.6774416 1.260342 -0.20846243
  vertex 1.1853498 1.0897505 -1.1083992
 endloop
endfacet
facet normal 0.63621515 -0.7553923 0.15688434
 outer loop
  vertex 1.7239262 -1.7619603 0.2865203
  vertex 2.060951 -1.3750259 0.782854
  vertex 1.6366323 -1.6658756 1.1031687
 endloop
endfacet
facet normal 0.64906466 -0.74436456 0.15696035
 outer loop
  vertex 1.7239262 -1.7619603 0.2865203
  vertex 1.6366323 -1.6658756 1.1031687
  vertex 1.5094228 -1.8843135 0.59329337
 endloop
endfacet
facet normal 0.3225949 -0.35674432 0.87673604
 outer loop
  vertex 0.87809473 -1.3340802 1.9464793
  vertex 1.4006796 -1.1418313 1.8324205
  vertex 0.5946681 -0.43645278 2.416011
 endloop
endfacet
facet normal 0.43427718 0.87614137 0.20923582
 outer loop
  vertex 1.1560036 1.9199104 0.40261355
  vertex 0.4629922 2.1008239 1.08344
  vertex 1.001929 1.8162706 1.1563765
 endloop
endfacet
facet normal -0.7956988 0.39516896 0.45902604
 outer loop
  vertex -1.4927503 1.4464887 1.1648192
  vertex -2.0090156 0.75447744 0.86564165
  vertex -1.4567009 1.2517984 1.3949151
 endloop
endfacet
facet normal -0.32998246 0.70863706 -0.6236546
 outer loop
  vertex -0.42899662 1.6781446 -1.0526054
  vertex -0.62702006 1.1096826 -1.5937526
  vertex -1.148768 1.5398457 -0.82891077
 endloop
endfacet
facet normal -0.39540693 0.91470563 0.083467826
 outer loop
  vertex -1.1150879 1.9203787 0.06112181
  vertex -1.1237644 1.8571452 0.71298105
  vertex -0.24544783 2.254692 0.5171462
 endloop
endfacet
facet normal -0.4385267 -0.89726794 0.05103429
 outer loop
  vertex -0.49294192 -2.266777 -0.7136512
  vertex -0.69588214 -2.0947394 0.5672347
  vertex -0.94434786 -2.0538297 -0.8485159
 endloop
endfacet
facet normal -0.055551033 -0.93687844 0.34521443
 outer loop
  vertex -0.03754724 -2.2967765 0.29678607
  vertex 0.45075262 -2.2225401 0.5768324
  vertex -0.15893765 -1.9185871 1.3036216
 endloop
endfacet
facet normal 0.09571497 -0.43747586 0.89412165
 outer loop
  vertex -0.17104988 -1.1845231 2.1319647
  vertex 0.87809473 -1.3340802 1.9464793
  vertex 0.5946681 -0.43645278 2.416011
 endloop
endfacet
facet normal -0.71419334 -0.1759268 -0.6774789
 outer loop
  vertex -1.2111098 -0.33726802 -1.926461
  vertex -0.9940514 -1.2346369 -1.9222548
  vertex -1.5034852 -0.73098177 -1.5160018
 endloop
endfacet
facet normal -0.37496203 0.677903 0.6323378
 outer loop
  vertex -1.4567009 1.2517984 1.3949151
  vertex -0.3584599 1.5467687 1.7299219
  vertex -1.4927503 1.4464887 1.1648192
 endloop
endfacet
facet normal -0.58158463 -0.7928558 0.18204115
 outer loop
  vertex -0.69588214 -2.0947394 0.5672347
  vertex -1.3066343 -1.5433818 1.0173689
  vertex -1.4454929 -1.647296 0.12115988
 endloop
endfacet
facet normal -0.029506313 0.9582376 -0.28444722
 outer loop
  vertex -0.24544783 2.254692 0.5171462
  vertex 0.42006102 1.9042678 -0.7323876
  vertex -0.6982952 1.9897796 -0.32830843
 endloop
endfacet
facet normal 0.21256709 0.7647668 0.6082326
 outer loop
  vertex 0.4629922 2.1008239 1.08344
  vertex 0.11379128 2.0078006 1.3224435
  vertex 0.53402305 1.5111724 1.8000195
 endloop
endfacet
facet normal -0.30517876 0.8283123 -0.469856
 outer loop
  vertex -0.42899662 1.6781446 -1.0526054
  vertex -1.148768 1.5398457 -0.82891077
  vertex -0.6982952 1.9897796 -0.32830843
 endloop
endfacet
facet normal 0.36032435 -0.8322547 -0.42132935
 outer loop
  vertex 1.1295236 -1.8251692 -1.074768
  vertex 0.18052249 -2.1124604 -1.3188734
  vertex 0.84527344 -1.6327642 -1.69792
 endloop
endfacet
facet normal 0.04048578 -0.9092704 0.4142319
 outer loop
  vertex -0.15893765 -1.9185871 1.3036216
  vertex 0.45075262 -2.2225401 0.5768324
  vertex 0.42392328 -1.7730489 1.5661219
 endloop
endfacet
facet normal -0.5420302 -0.83736026 0.07093036
 outer loop
  vertex -1.4454929 -1.647296 0.12115988
  vertex -0.94434786 -2.0538297 -0.8485159
  vertex -0.69588214 -2.0947394 0.5672347
 endloop
endfacet
facet normal 0.6205311 0.2962728 -0.72606033
 outer loop
  vertex 1.702709 0.35273772 -0.96697766
  vertex 0.76952744 -0.08950689 -1.9449862
  vertex 1.1853498 1.0897505 -1.1083992
 endloop
endfacet
facet normal -0.76366454 -0.61706233 0.18986961
 outer loop
  vertex -1.4454929 -1.647296 0.12115988
  vertex -1.3066343 -1.5433818 1.0173689
  vertex -1.7249641 -1.0933181 0.7975007
 endloop
endfacet
facet normal -0.077584915 0.26907358 -0.95998955
 outer loop
  vertex -0.9617215 0.22114497 -1.9783467
  vertex -0.70797473 0.6562293 -1.8769052
  vertex -0.4302628 -0.47962034 -2.2177145
 endloop
endfacet
facet normal 0.64832634 -0.38489643 0.65690774
 outer loop
  vertex 1.8320502 -0.84913963 1.5781794
  vertex 1.4006796 -1.1418313 1.8324205
  vertex 1.8697388 -1.3648218 1.2388338
 endloop
endfacet
facet normal 0.65604234 -0.18974279 -0.73048353
 outer loop
  vertex 0.9961727 -0.8405385 -1.8905394
  vertex 1.6339916 -0.7606805 -1.3384616
  vertex 1.2480779 -1.4259504 -1.5122446
 endloop
endfacet
facet normal 0.28278762 -0.7783163 0.56058437
 outer loop
  vertex 0.42392328 -1.7730489 1.5661219
  vertex 1.6366323 -1.6658756 1.1031687
  vertex 0.87809473 -1.3340802 1.9464793
 endloop
endfacet
facet normal 0.47329664 0.610552 -0.63499343
 outer loop
  vertex 1.1853498 1.0897505 -1.1083992
  vertex 0.5110681 1.4158856 -1.2973977
  vertex 0.77874106 1.8097367 -0.71919435
 endloop
endfacet
facet normal -0.8216386 0.48019326 0.307123
 outer loop
  vertex -1.6920667 1.4036108 0.69863355
  vertex -2.0090156 0.75447744 0.86564165
  vertex -1.4927503 1.4464887 1.1648192
 endloop
endfacet
facet normal -0.48256683 -0.022806006 0.87556225
 outer loop
  vertex -0.89835316 0.27087834 2.2198224
  vertex -1.1850078 -0.50557077 2.041608
  vertex -0.60233253 -0.13679259 2.3723557
 endloop
endfacet
facet normal -0.925628 -0.23976855 0.29278642
 outer loop
  vertex -2.0217276 -0.53730696 0.3146281
  vertex -1.7249641 -1.0933181 0.7975007
  vertex -1.868408 -0.071409844 1.1808718
 endloop
endfacet
facet normal -0.61561465 0.271672 0.7397384
 outer loop
  vertex -1.4567009 1.2517984 1.3949151
  vertex -1.7542753 0.68620217 1.3549895
  vertex -0.89835316 0.27087834 2.2198224
 endloop
endfacet
facet normal -0.24202822 -0.6340791 0.7344155
 outer loop
  vertex -0.6907926 -0.9505803 2.1626637
  vertex -0.88045365 -1.4798386 1.6432098
  vertex -0.17104988 -1.1845231 2.1319647
 endloop
endfacet
facet normal 0.17386925 -0.74751604 -0.6410844
 outer loop
  vertex 0.18052249 -2.1124604 -1.3188734
  vertex -0.25723764 -1.8692427 -1.7211951
  vertex 0.84527344 -1.6327642 -1.69792
 endloop
endfacet
facet normal 0.9030507 0.08048837 0.42192546
 outer loop
  vertex 2.1026967 0.53051215 0.8344759
  vertex 1.7297432 0.26854768 1.6826848
  vertex 2.0805457 -1.020198 1.1777061
 endloop
endfacet
facet normal 0.9070619 0.07858774 0.41359735
 outer loop
  vertex 2.1026967 0.53051215 0.8344759
  vertex 2.0805457 -1.020198 1.1777061
  vertex 2.3109264 0.044599604 0.47013474
 endloop
endfacet
facet normal -0.14952359 -0.9314131 0.33183166
 outer loop
  vertex -0.69588214 -2.0947394 0.5672347
  vertex -0.03754724 -2.2967765 0.29678607
  vertex -0.15893765 -1.9185871 1.3036216
 endloop
endfacet
facet normal -0.88657576 -0.46241674 0.012414068
 outer loop
  vertex -1.4454929 -1.647296 0.12115988
  vertex -1.7249641 -1.0933181 0.7975007
  vertex -2.0217276 -0.53730696 0.3146281
 endloop
endfacet
facet normal -0.88115275 -0.46852964 0.06363781
 outer loop
  vertex -1.4454929 -1.647296 0.12115988
  vertex -2.0217276 -0.53730696 0.3146281
  vertex -1.6690861 -1.301171 -0.4264707
 endloop
endfacet
facet normal 0.46904892 -0.6382622 0.61042154
 outer loop
  vertex 1.8697388 -1.3648218 1.2388338
  vertex 1.4006796 -1.1418313 1.8324205
  vertex 1.6366323 -1.6658756 1.1031687
 endloop
endfacet
facet normal 0.2335711 -0.88284695 0.40746266
 outer loop
  vertex 1.6366323 -1.6658756 1.1031687
  vertex 0.42392328 -1.7730489 1.5661219
  vertex 0.45075262 -2.2225401 0.5768324
 endloop
endfacet
facet normal 0.28418228 -0.90492517 0.31678182
 outer loop
  vertex 1.6366323 -1.6658756 1.1031687
  vertex 0.45075262 -2.2225401 0.5768324
  vertex 1.5094228 -1.8843135 0.59329337
 endloop
endfacet
facet normal -0.00879638 0.95493287 0.29669145
 outer loop
  vertex -0.24544783 2.254692 0.5171462
  vertex -0.38233218 2.0676792 1.1150087
  vertex 0.11379128 2.0078006 1.3224435
 endloop
endfacet
facet normal -0.04115801 0.9499734 0.30960733
 outer loop
  vertex -0.24544783 2.254692 0.5171462
  vertex 0.11379128 2.0078006 1.3224435
  vertex 0.4629922 2.1008239 1.08344
 endloop
endfacet
facet normal -0.7314715 0.67166007 -0.11756835
 outer loop
  vertex -1.6920667 1.4036108 0.69863355
  vertex -1.1150879 1.9203787 0.06112181
  vertex -1.931206 1.0678009 0.26801994
 endloop
endfacet
facet normal 0.10708775 0.9482576 -0.29889748
 outer loop
  vertex -0.24544783 2.254692 0.5171462
  vertex 0.36807325 2.192764 0.54048824
  vertex 1.0287997 1.8895742 -0.18466479
 endloop
endfacet
facet normal 0.25506827 0.93173194 -0.25848728
 outer loop
  vertex 1.0287997 1.8895742 -0.18466479
  vertex 0.77874106 1.8097367 -0.71919435
  vertex 0.42006102 1.9042678 -0.7323876
 endloop
endfacet
facet normal 0.18088485 0.9677966 -0.17507243
 outer loop
  vertex 1.0287997 1.8895742 -0.18466479
  vertex 0.42006102 1.9042678 -0.7323876
  vertex -0.24544783 2.254692 0.5171462
 endloop
endfacet
facet normal 0.92787683 0.21130432 -0.3072377
 outer loop
  vertex 2.1851175 0.56300026 0.4467167
  vertex 2.3109264 0.044599604 0.47013474
  vertex 2.0923998 -0.42132163 -0.51026875
 endloop
endfacet
facet normal 0.9040708 0.25108615 -0.34584945
 outer loop
  vertex 2.1851175 0.56300026 0.4467167
  vertex 2.0923998 -0.42132163 -0.51026875
  vertex 1.702709 0.35273772 -0.96697766
 endloop
endfacet
facet normal -0.082491234 0.9039512 -0.41960365
 outer loop
  vertex -0.42899662 1.6781446 -1.0526054
  vertex -0.6982952 1.9897796 -0.32830843
  vertex 0.42006102 1.9042678 -0.7323876
 endloop
endfacet
facet normal 0.56469977 -0.68007046 -0.46756643
 outer loop
  vertex 1.1295236 -1.8251692 -1.074768
  vertex 0.84527344 -1.6327642 -1.69792
  vertex 1.2480779 -1.4259504 -1.5122446
 endloop
endfacet
facet normal -0.6866018 0.08783419 0.7217085
 outer loop
  vertex -0.89835316 0.27087834 2.2198224
  vertex -1.7542753 0.68620217 1.3549895
  vertex -1.1850078 -0.50557077 2.041608
 endloop
endfacet
facet normal 0.6620843 0.20010182 -0.72222143
 outer loop
  vertex 0.76952744 -0.08950689 -1.9449862
  vertex 1.702709 0.35273772 -0.96697766
  vertex 1.6339916 -0.7606805 -1.3384616
 endloop
endfacet
facet normal 0.6383072 0.13772173 -0.7573617
 outer loop
  vertex 0.76952744 -0.08950689 -1.9449862
  vertex 1.6339916 -0.7606805 -1.3384616
  vertex 0.9961727 -0.8405385 -1.8905394
 endloop
endfacet
facet normal 0.854994 0.029848434 0.5177782
 outer loop
  vertex 2.0805457 -1.020198 1.1777061
  vertex 1.7297432 0.26854768 1.6826848
  vertex 1.8320502 -0.84913963 1.5781794
 endloop
endfacet
facet normal -0.45174557 0.82636744 -0.33621833
 outer loop
  vertex -1.1150879 1.9203787 0.06112181
  vertex -0.6982952 1.9897796 -0.32830843
  vertex -1.148768 1.5398457 -0.82891077
 endloop
endfacet
facet normal -0.30902097 -0.8515913 -0.42343643
 outer loop
  vertex -0.94434786 -2.0538297 -0.8485159
  vertex -1.1038456 -1.6749305 -1.4941362
  vertex -0.25723764 -1.8692427 -1.7211951
 endloop
endfacet
facet normal -0.28656498 -0.8664223 -0.40889254
 outer loop
  vertex -0.94434786 -2.0538297 -0.8485159
  vertex -0.25723764 -1.8692427 -1.7211951
  vertex -0.49294192 -2.266777 -0.7136512
 endloop
endfacet
facet normal -0.050091274 0.47460553 0.87877214
 outer loop
  vertex 0.53402305 1.5111724 1.8000195
  vertex -0.3584599 1.5467687 1.7299219
  vertex -0.1266667 0.3199425 2.4057164
 endloop
endfacet
facet normal -0.7461377 -0.65658385 -0.11034584
 outer loop
  vertex -1.6690861 -1.301171 -0.4264707
  vertex -0.94434786 -2.0538297 -0.8485159
  vertex -1.4454929 -1.647296 0.12115988
 endloop
endfacet
facet normal -0.16489796 0.10006253 0.9812218
 outer loop
  vertex -0.1266667 0.3199425 2.4057164
  vertex -0.60233253 -0.13679259 2.3723557
  vertex 0.043905742 -0.2607767 2.493602
 endloop
endfacet
facet normal 0.81401247 0.44831598 0.36931887
 outer loop
  vertex 1.6406834 1.101337 1.1598713
  vertex 2.1026967 0.53051215 0.8344759
  vertex 1.7351018 1.3346168 0.6685863
 endloop
endfacet
facet normal 0.38178435 -0.91887665 -0.099531084
 outer loop
  vertex 1.7239262 -1.7619603 0.2865203
  vertex 1.5094228 -1.8843135 0.59329337
  vertex 0.20352969 -2.3087816 -0.4971765
 endloop
endfacet
facet normal 0.39416215 -0.9098195 -0.12986392
 outer loop
  vertex 1.7239262 -1.7619603 0.2865203
  vertex 0.20352969 -2.3087816 -0.4971765
  vertex 1.1295236 -1.8251692 -1.074768
 endloop
endfacet
facet normal 0.96623635 -0.03990531 0.25454846
 outer loop
  vertex 2.258902 -0.91824585 0.51666886
  vertex 2.3109264 0.044599604 0.47013474
  vertex 2.0805457 -1.020198 1.1777061
 endloop
endfacet
facet normal 0.4383834 0.41207403 -0.79875845
 outer loop
  vertex 1.1853498 1.0897505 -1.1083992
  vertex 0.76952744 -0.08950689 -1.9449862
  vertex 0.33993348 0.7714779 -1.7365845
 endloop
endfacet
facet normal 0.42979172 0.427789 -0.7951577
 outer loop
  vertex 1.1853498 1.0897505 -1.1083992
  vertex 0.33993348 0.7714779 -1.7365845
  vertex 0.5110681 1.4158856 -1.2973977
 endloop
endfacet
facet normal 0.73039913 0.6748748 -0.10517222
 outer loop
  vertex 1.6774416 1.260342 -0.20846243
  vertex 1.1560036 1.9199104 0.40261355
  vertex 1.7351018 1.3346168 0.6685863
 endloop
endfacet
facet normal -0.11052727 -0.74463004 0.6582628
 outer loop
  vertex -0.15893765 -1.9185871 1.3036216
  vertex 0.42392328 -1.7730489 1.5661219
  vertex -0.17104988 -1.1845231 2.1319647
 endloop
endfacet
facet normal -0.14266577 -0.7417928 0.65527844
 outer loop
  vertex -0.15893765 -1.9185871 1.3036216
  vertex -0.17104988 -1.1845231 2.1319647
  vertex -0.88045365 -1.4798386 1.6432098
 endloop
endfacet
facet normal 0.8900113 -0.16411048 -0.42537937
 outer loop
  vertex 2.213876 -1.0416653 -0.016779715
  vertex 1.6339916 -0.7606805 -1.3384616
  vertex 2.0923998 -0.42132163 -0.51026875
 endloop
endfacet
facet normal -0.90572554 0.13882083 -0.40048715
 outer loop
  vertex -2.0634565 0.0052342624 -0.3533894
  vertex -1.8855832 0.7976471 -0.48098662
  vertex -1.4875072 0.6129298 -1.4452876
 endloop
endfacet
facet normal -0.9081038 0.21480486 -0.35945275
 outer loop
  vertex -2.0634565 0.0052342624 -0.3533894
  vertex -1.4875072 0.6129298 -1.4452876
  vertex -1.5325371 0.1512653 -1.6074117
 endloop
endfacet
facet normal 0.09714437 0.27966982 -0.9551689
 outer loop
  vertex -0.70797473 0.6562293 -1.8769052
  vertex 0.33993348 0.7714779 -1.7365845
  vertex 0.76952744 -0.08950689 -1.9449862
 endloop
endfacet
facet normal 0.11342481 0.31087488 -0.9436586
 outer loop
  vertex -0.70797473 0.6562293 -1.8769052
  vertex 0.76952744 -0.08950689 -1.9449862
  vertex -0.4302628 -0.47962034 -2.2177145
 endloop
endfacet
facet normal -0.31241003 -0.8468625 0.4303765
 outer loop
  vertex -0.88045365 -1.4798386 1.6432098
  vertex -0.69588214 -2.0947394 0.5672347
  vertex -0.15893765 -1.9185871 1.3036216
 endloop
endfacet
facet normal -0.72935045 0.6386002 -0.24543355
 outer loop
  vertex -1.931206 1.0678009 0.26801994
  vertex -1.1150879 1.9203787 0.06112181
  vertex -1.148768 1.5398457 -0.82891077
 endloop
endfacet
facet normal -0.7435727 0.61325854 -0.2664836
 outer loop
  vertex -1.931206 1.0678009 0.26801994
  vertex -1.148768 1.5398457 -0.82891077
  vertex -1.8855832 0.7976471 -0.48098662
 endloop
endfacet
facet normal 0.22170347 0.75510204 -0.6169833
 outer loop
  vertex 0.42006102 1.9042678 -0.7323876
  vertex 0.77874106 1.8097367 -0.71919435
  vertex 0.5110681 1.4158856 -1.2973977
 endloop
endfacet
facet normal 0.31780887 -0.27948645 -0.90602696
 outer loop
  vertex 0.84527344 -1.6327642 -1.69792
  vertex -0.0954996 -1.2658721 -2.1410937
  vertex 0.3796075 -0.7491875 -2.1338236
 endloop
endfacet
facet normal 0.31604525 -0.28055704 -0.90631294
 outer loop
  vertex 0.84527344 -1.6327642 -1.69792
  vertex 0.3796075 -0.7491875 -2.1338236
  vertex 0.9961727 -0.8405385 -1.8905394
 endloop
endfacet
facet normal 0.034243204 -0.67446697 0.7375105
 outer loop
  vertex 0.42392328 -1.7730489 1.5661219
  vertex 0.87809473 -1.3340802 1.9464793
  vertex -0.17104988 -1.1845231 2.1319647
 endloop
endfacet
facet normal -0.24119711 0.18156055 0.9533413
 outer loop
  vertex -0.1266667 0.3199425 2.4057164
  vertex -0.89835316 0.27087834 2.2198224
  vertex -0.60233253 -0.13679259 2.3723557
 endloop
endfacet
facet normal 0.06908709 0.5492388 -0.83280474
 outer loop
  vertex -0.62702006 1.1096826 -1.5937526
  vertex 0.5110681 1.4158856 -1.2973977
  vertex 0.33993348 0.7714779 -1.7365845
 endloop
endfacet
facet normal 0.056646865 0.52150893 -0.8513633
 outer loop
  vertex -0.62702006 1.1096826 -1.5937526
  vertex 0.33993348 0.7714779 -1.7365845
  vertex -0.70797473 0.6562293 -1.8769052
 endloop
endfacet
facet normal -0.27460742 0.11771688 -0.9543236
 outer loop
  vertex -0.7012181 -0.7502493 -2.1731293
  vertex -0.9617215 0.22114497 -1.9783467
  vertex -0.4302628 -0.47962034 -2.2177145
 endloop
endfacet
facet normal -0.6252514 -0.6093141 0.48764437
 outer loop
  vertex -1.4533225 -0.94564265 1.5761652
  vertex -1.3066343 -1.5433818 1.0173689
  vertex -0.88045365 -1.4798386 1.6432098
 endloop
endfacet
facet normal 0.676689 0.7112578 -0.19027393
 outer loop
  vertex 1.1560036 1.9199104 0.40261355
  vertex 1.6774416 1.260342 -0.20846243
  vertex 1.2858858 1.5665467 -0.4563736
 endloop
endfacet
facet normal 0.6871191 0.70256495 -0.18512084
 outer loop
  vertex 1.1560036 1.9199104 0.40261355
  vertex 1.2858858 1.5665467 -0.4563736
  vertex 1.0287997 1.8895742 -0.18466479
 endloop
endfacet
facet normal 0.56561446 0.48101357 0.6698554
 outer loop
  vertex 0.53402305 1.5111724 1.8000195
  vertex 1.7297432 0.26854768 1.6826848
  vertex 1.6406834 1.101337 1.1598713
 endloop
endfacet
facet normal 0.56450385 0.50753564 0.65095544
 outer loop
  vertex 0.53402305 1.5111724 1.8000195
  vertex 1.6406834 1.101337 1.1598713
  vertex 1.001929 1.8162706 1.1563765
 endloop
endfacet
facet normal -0.17742333 0.747506 0.6401217
 outer loop
  vertex 0.11379128 2.0078006 1.3224435
  vertex -0.38233218 2.0676792 1.1150087
  vertex -0.3584599 1.5467687 1.7299219
 endloop
endfacet
facet normal -0.9434705 -0.30108622 -0.13860218
 outer loop
  vertex -1.8011653 -0.6697034 -0.89914215
  vertex -1.6690861 -1.301171 -0.4264707
  vertex -2.0217276 -0.53730696 0.3146281
 endloop
endfacet
facet normal -0.95624626 -0.2534609 -0.14611866
 outer loop
  vertex -1.8011653 -0.6697034 -0.89914215
  vertex -2.0217276 -0.53730696 0.3146281
  vertex -2.0634565 0.0052342624 -0.3533894
 endloop
endfacet
endsolid 
