solid 
facet normal -0.54140294 -0.8368055 -0.08148197
 outer loop
  vertex -0.91858715 -2.0753014 -0.414109
  vertex -1.1422932 -1.9083011 -0.64276856
  vertex -0.8488554 -2.067316 -0.95944643
 endloop
endfacet
facet normal 0.6423366 0.6813131 0.35102165
 outer loop
  vertex 0.98075825 1.9053231 0.9684649
  vertex 1.0131043 1.7178247 1.2731985
  vertex 1.6501416 1.4205135 0.68454427
 endloop
endfacet
facet normal -0.043136854 0.6528682 0.7562423
 outer loop
  vertex -0.19643073 1.4804043 1.8061467
  vertex 0.23629777 1.4651476 1.8440012
  vertex 0.14058013 1.8426331 1.512656
 endloop
endfacet
facet normal 0.42184237 -0.22056761 0.879431
 outer loop
  vertex 1.316772 -0.29789844 2.1135135
  vertex 0.7087721 -0.47636726 2.3603954
  vertex 1.3640649 -0.9408533 1.9295704
 endloop
endfacet
facet normal -0.12358576 -0.76439863 -0.6327885
 outer loop
  vertex -0.26341856 -1.9876904 -1.5236298
  vertex -0.41046578 -1.719489 -1.8188941
  vertex -0.079556786 -1.8368261 -1.7417804
 endloop
endfacet
facet normal -0.76037484 -0.29577598 -0.57822716
 outer loop
  vertex -1.0912923 -0.99302346 -1.9240519
  vertex -1.2248366 -1.5231855 -1.4772501
  vertex -1.5045142 -0.73032784 -1.5150353
 endloop
endfacet
facet normal 0.07178284 -0.13402998 0.988374
 outer loop
  vertex 0.13255663 -0.121481195 2.4877849
  vertex -0.05570423 -0.3265537 2.4736485
  vertex 0.3444977 -0.5483061 2.414512
 endloop
endfacet
facet normal -0.535237 -0.5736293 -0.620057
 outer loop
  vertex -0.8441188 -1.4289014 -1.8802531
  vertex -0.840686 -1.8014427 -1.5385695
  vertex -1.0569872 -1.7226073 -1.4247895
 endloop
endfacet
facet normal 0.53948337 0.16335429 -0.82599825
 outer loop
  vertex 0.9863688 0.15748978 -1.711326
  vertex 1.2214209 -0.70768225 -1.7289082
  vertex 0.6393014 -0.22844924 -2.0143313
 endloop
endfacet
facet normal 0.37491348 -0.85397345 0.36078966
 outer loop
  vertex 1.4126544 -1.6628357 1.2728969
  vertex 1.4413396 -1.851616 0.7962539
  vertex 1.7186551 -1.6370236 1.0160134
 endloop
endfacet
facet normal 0.6304672 0.76223546 0.14665678
 outer loop
  vertex 1.6501416 1.4205135 0.68454427
  vertex 1.2966076 1.7887526 0.29047272
  vertex 0.9585989 2.0080366 0.6038392
 endloop
endfacet
facet normal -0.23481002 -0.7748621 -0.5869011
 outer loop
  vertex -0.840686 -1.8014427 -1.5385695
  vertex -0.41046578 -1.719489 -1.8188941
  vertex -0.26341856 -1.9876904 -1.5236298
 endloop
endfacet
facet normal 0.819484 0.15321743 -0.5522412
 outer loop
  vertex 1.5887277 -0.61769754 -1.3761201
  vertex 1.6016961 0.34387177 -1.0900918
  vertex 1.9951333 -0.38400108 -0.70820683
 endloop
endfacet
facet normal 0.6234202 0.690177 -0.36742747
 outer loop
  vertex 1.1271052 1.5703099 -0.66188514
  vertex 1.1749215 1.7811214 -0.18476544
  vertex 1.4077841 1.4825234 -0.35055107
 endloop
endfacet
facet normal 0.13704695 0.07806841 0.9874834
 outer loop
  vertex 0.6377709 -0.16458069 2.4210765
  vertex 0.6510139 0.15815885 2.3937235
  vertex 0.13255663 -0.121481195 2.4877849
 endloop
endfacet
facet normal -0.06670512 -0.15853204 -0.98509794
 outer loop
  vertex -0.60901535 -0.8467828 -2.1748042
  vertex -0.43363142 -0.64778364 -2.2187052
  vertex -0.03256463 -1.1496717 -2.1650941
 endloop
endfacet
facet normal -0.3915523 0.11895469 0.91243446
 outer loop
  vertex -0.8225425 0.3954879 2.2093935
  vertex -0.9427591 0.016116507 2.207264
  vertex -0.60301286 -0.13673845 2.3729868
 endloop
endfacet
facet normal -0.9989676 0.010290517 0.044248283
 outer loop
  vertex -2.0697756 -0.31206 0.214775
  vertex -2.035879 0.73203117 0.73722357
  vertex -2.083567 -0.023764586 -0.1636304
 endloop
endfacet
facet normal -0.56280357 0.5502563 0.6168226
 outer loop
  vertex -1.264669 1.3090692 1.4717745
  vertex -1.3702414 1.5072075 1.198692
  vertex -1.5572417 1.1310976 1.3635894
 endloop
endfacet
facet normal -0.9157638 -0.23933099 0.32264125
 outer loop
  vertex -1.8101678 -0.907287 0.74581295
  vertex -1.6454972 -0.69422805 1.3712474
  vertex -1.9157686 -0.1638574 0.99754864
 endloop
endfacet
facet normal 0.99756825 -0.05459386 -0.04332404
 outer loop
  vertex 2.305223 0.0011451597 0.38015383
  vertex 2.2608728 -0.9170772 0.5160369
  vertex 2.2432945 -0.8332279 0.005621051
 endloop
endfacet
facet normal -0.97606647 -0.07114412 0.2055061
 outer loop
  vertex -2.035879 0.73203117 0.73722357
  vertex -2.0697756 -0.31206 0.214775
  vertex -1.9157686 -0.1638574 0.99754864
 endloop
endfacet
facet normal 0.36021256 -0.10257149 -0.92721415
 outer loop
  vertex 0.9161297 -1.007635 -1.8987938
  vertex 0.38163966 -0.75065345 -2.1348655
  vertex 0.73016673 -0.66846496 -2.0085585
 endloop
endfacet
facet normal -0.41279915 -0.37925032 0.8281099
 outer loop
  vertex -0.8435296 -1.1105049 1.9698973
  vertex -0.5060698 -0.86701673 2.249626
  vertex -1.059546 -0.61883885 2.0873854
 endloop
endfacet
facet normal 0.7137323 0.40373158 0.5723521
 outer loop
  vertex 1.8239678 0.20843492 1.5606929
  vertex 1.6375709 1.1011332 1.1634322
  vertex 1.4717101 0.62827116 1.7038156
 endloop
endfacet
facet normal -0.54872566 0.15742393 -0.8210468
 outer loop
  vertex -1.4316335 0.23681839 -1.6789002
  vertex -1.1359478 0.2655116 -1.8710127
  vertex -1.126225 -0.24688162 -1.9757547
 endloop
endfacet
facet normal -0.23166649 -0.010420236 -0.97273946
 outer loop
  vertex -0.60901535 -0.8467828 -2.1748042
  vertex -0.8565785 -0.57085687 -2.1188006
  vertex -0.43363142 -0.64778364 -2.2187052
 endloop
endfacet
facet normal 0.17416276 -0.14975907 0.9732623
 outer loop
  vertex 0.6377709 -0.16458069 2.4210765
  vertex 0.3444977 -0.5483061 2.414512
  vertex 0.7087721 -0.47636726 2.3603954
 endloop
endfacet
facet normal -0.37488303 0.7603853 0.53035545
 outer loop
  vertex -1.3702414 1.5072075 1.198692
  vertex -0.3019614 2.0596693 1.1617286
  vertex -0.7293967 1.9637595 0.99710333
 endloop
endfacet
facet normal 0.8532332 0.519227 -0.04895157
 outer loop
  vertex 1.8579768 1.154711 0.6068634
  vertex 2.086888 0.76319206 0.4439982
  vertex 1.8223304 1.1772599 0.22471596
 endloop
endfacet
facet normal 0.1102298 0.98709905 0.116124146
 outer loop
  vertex 0.36624268 2.1942723 0.5331165
  vertex -0.09913314 2.2367566 0.6137379
  vertex 0.41682467 2.134148 0.9961821
 endloop
endfacet
facet normal -0.78382856 0.31418094 -0.5356335
 outer loop
  vertex -1.5221393 0.7488564 -1.2461162
  vertex -1.4316335 0.23681839 -1.6789002
  vertex -1.6633595 0.41416192 -1.2357774
 endloop
endfacet
facet normal 0.5803765 -0.4460241 -0.68134105
 outer loop
  vertex 1.2770698 -1.363625 -1.4876186
  vertex 0.9706101 -1.6142775 -1.5845817
  vertex 0.96723664 -1.3619584 -1.7526301
 endloop
endfacet
facet normal 0.49405807 -0.010464283 -0.86936593
 outer loop
  vertex 0.9161297 -1.007635 -1.8987938
  vertex 0.73016673 -0.66846496 -2.0085585
  vertex 1.2214209 -0.70768225 -1.7289082
 endloop
endfacet
facet normal -0.40855157 -0.18515356 -0.89375824
 outer loop
  vertex -0.8565785 -0.57085687 -2.1188006
  vertex -0.60901535 -0.8467828 -2.1748042
  vertex -1.0912923 -0.99302346 -1.9240519
 endloop
endfacet
facet normal -0.20333964 -0.48325634 -0.8515376
 outer loop
  vertex -0.117668055 -1.3223195 -2.1142094
  vertex -0.41046578 -1.719489 -1.8188941
  vertex -0.8441188 -1.4289014 -1.8802531
 endloop
endfacet
facet normal -0.5134342 0.374795 0.7719547
 outer loop
  vertex -1.264669 1.3090692 1.4717745
  vertex -1.5572417 1.1310976 1.3635894
  vertex -0.8225425 0.3954879 2.2093935
 endloop
endfacet
facet normal -0.39376494 0.8950275 0.20946369
 outer loop
  vertex -1.1235539 1.8570379 0.7121543
  vertex -0.7293967 1.9637595 0.99710333
  vertex -0.3778708 2.197442 0.65941375
 endloop
endfacet
facet normal -0.31597587 0.90171695 0.29506913
 outer loop
  vertex -0.3778708 2.197442 0.65941375
  vertex -0.7293967 1.9637595 0.99710333
  vertex -0.3019614 2.0596693 1.1617286
 endloop
endfacet
facet normal 0.807151 -0.46605605 0.36235213
 outer loop
  vertex 2.0622377 -1.1380124 1.1116668
  vertex 1.871903 -1.3670285 1.241084
  vertex 1.9759341 -1.427599 0.9314456
 endloop
endfacet
facet normal 0.15142564 0.8710313 0.46730596
 outer loop
  vertex 0.41682467 2.134148 0.9961821
  vertex 0.14662395 2.0604458 1.2211143
  vertex 0.55807525 2.0032618 1.1943754
 endloop
endfacet
facet normal 0.36489853 -0.68945014 0.6257056
 outer loop
  vertex 0.83410406 -1.4815171 1.8100861
  vertex 1.4126544 -1.6628357 1.2728969
  vertex 1.4205214 -1.2141535 1.7627013
 endloop
endfacet
facet normal 0.32860136 0.05548808 -0.9428373
 outer loop
  vertex 0.6393014 -0.22844924 -2.0143313
  vertex 0.73016673 -0.66846496 -2.0085585
  vertex 0.38163966 -0.75065345 -2.1348655
 endloop
endfacet
facet normal 0.4668057 -0.8195129 -0.3324021
 outer loop
  vertex 0.8592921 -1.7935096 -1.4552557
  vertex 1.2326744 -1.7376971 -1.0685015
  vertex 0.9669706 -1.9341748 -0.95723885
 endloop
endfacet
facet normal 0.761204 -0.31107196 0.5690367
 outer loop
  vertex 2.0622377 -1.1380124 1.1116668
  vertex 1.8320684 -0.84766173 1.57829
  vertex 1.871903 -1.3670285 1.241084
 endloop
endfacet
facet normal -0.23588873 0.95637167 -0.17236492
 outer loop
  vertex -0.16345938 2.2424958 0.34290418
  vertex -0.6976634 1.9895878 -0.3292821
  vertex -0.9167353 2.00256 0.04250325
 endloop
endfacet
facet normal 0.657797 -0.6662353 0.35133117
 outer loop
  vertex 1.871903 -1.3670285 1.241084
  vertex 1.7186551 -1.6370236 1.0160134
  vertex 1.9759341 -1.427599 0.9314456
 endloop
endfacet
facet normal -0.6005313 0.76115966 0.2449454
 outer loop
  vertex -1.1235539 1.8570379 0.7121543
  vertex -1.5092617 1.5892743 0.598583
  vertex -1.6245836 1.3635072 1.0174128
 endloop
endfacet
facet normal 0.9467208 0.26202208 -0.18725403
 outer loop
  vertex 2.2110775 0.44669747 0.5276273
  vertex 2.305223 0.0011451597 0.38015383
  vertex 2.1021826 0.58893645 0.17610875
 endloop
endfacet
facet normal 0.044732474 0.42759544 0.9028627
 outer loop
  vertex 0.673336 0.40250906 2.3256133
  vertex 0.23629777 1.4651476 1.8440012
  vertex 0.006188732 0.26570526 2.4234574
 endloop
endfacet
facet normal 0.48273215 -0.48098 -0.73186606
 outer loop
  vertex 0.96723664 -1.3619584 -1.7526301
  vertex 0.9706101 -1.6142775 -1.5845817
  vertex 0.6778122 -1.5652015 -1.8099611
 endloop
endfacet
facet normal 0.4981486 0.09155772 -0.86224425
 outer loop
  vertex 1.2214209 -0.70768225 -1.7289082
  vertex 0.73016673 -0.66846496 -2.0085585
  vertex 0.6393014 -0.22844924 -2.0143313
 endloop
endfacet
facet normal -0.40508148 0.5689943 -0.7156498
 outer loop
  vertex -1.2753997 0.7712997 -1.5074947
  vertex -0.7911932 1.2063582 -1.4356681
  vertex -0.88381475 0.6876391 -1.7956611
 endloop
endfacet
facet normal -0.9656051 0.12132182 -0.22997363
 outer loop
  vertex -2.083567 -0.023764586 -0.1636304
  vertex -1.9246039 0.6905538 -0.45424214
  vertex -1.978768 -0.04666155 -0.61573553
 endloop
endfacet
facet normal -0.54249763 -0.4131357 0.73144734
 outer loop
  vertex -1.2427746 -1.0857639 1.6877606
  vertex -0.8435296 -1.1105049 1.9698973
  vertex -1.059546 -0.61883885 2.0873854
 endloop
endfacet
facet normal -0.08974076 0.9569504 0.27602988
 outer loop
  vertex -0.09913314 2.2367566 0.6137379
  vertex -0.3778708 2.197442 0.65941375
  vertex -0.3019614 2.0596693 1.1617286
 endloop
endfacet
facet normal 0.3125581 -0.54803807 0.7758618
 outer loop
  vertex 1.4205214 -1.2141535 1.7627013
  vertex 0.79042417 -1.1024795 2.09542
  vertex 0.83410406 -1.4815171 1.8100861
 endloop
endfacet
facet normal 0.87770766 0.4099636 0.24811102
 outer loop
  vertex 2.2110775 0.44669747 0.5276273
  vertex 2.086888 0.76319206 0.4439982
  vertex 1.8579768 1.154711 0.6068634
 endloop
endfacet
facet normal -0.43646014 0.17223568 -0.883084
 outer loop
  vertex -0.86634314 0.12493327 -2.0316818
  vertex -1.126225 -0.24688162 -1.9757547
  vertex -1.1359478 0.2655116 -1.8710127
 endloop
endfacet
facet normal -0.4273196 -0.6163853 0.661413
 outer loop
  vertex -0.8435296 -1.1105049 1.9698973
  vertex -1.0123827 -1.482043 1.5145617
  vertex -0.6629043 -1.4772135 1.7448502
 endloop
endfacet
facet normal 0.099203974 -0.7702314 0.6300017
 outer loop
  vertex 0.19410199 -1.6640605 1.6876898
  vertex 0.47772148 -1.8467999 1.4196147
  vertex 0.83410406 -1.4815171 1.8100861
 endloop
endfacet
facet normal 0.36660674 0.3478063 -0.8629196
 outer loop
  vertex 0.6393014 -0.22844924 -2.0143313
  vertex 0.34049907 0.7722405 -1.7379403
  vertex 0.9863688 0.15748978 -1.711326
 endloop
endfacet
facet normal -0.15626945 -0.5582248 0.8148405
 outer loop
  vertex -0.05148552 -1.0573955 2.2063825
  vertex -0.5060698 -0.86701673 2.249626
  vertex -0.2880133 -1.3658894 1.9496807
 endloop
endfacet
facet normal 0.36558998 0.7390532 0.56581306
 outer loop
  vertex 0.55807525 2.0032618 1.1943754
  vertex 0.6837314 1.5953481 1.6459932
  vertex 1.0131043 1.7178247 1.2731985
 endloop
endfacet
facet normal 0.9338772 0.20371383 0.29389447
 outer loop
  vertex 2.2899961 0.02963617 0.565943
  vertex 2.2110775 0.44669747 0.5276273
  vertex 2.1042793 0.39959073 0.8996407
 endloop
endfacet
facet normal -0.6063006 -0.79513824 0.012441217
 outer loop
  vertex -0.91858715 -2.0753014 -0.414109
  vertex -1.3379679 -1.748157 0.05644073
  vertex -1.1422932 -1.9083011 -0.64276856
 endloop
endfacet
facet normal 0.09885491 -0.027259078 -0.9947284
 outer loop
  vertex -0.43363142 -0.64778364 -2.2187052
  vertex 0.38163966 -0.75065345 -2.1348655
  vertex -0.03256463 -1.1496717 -2.1650941
 endloop
endfacet
facet normal -0.109439015 0.50281096 -0.85744053
 outer loop
  vertex -0.39148155 0.6652685 -1.8716182
  vertex -0.88381475 0.6876391 -1.7956611
  vertex -0.4514674 1.1311752 -1.59075
 endloop
endfacet
facet normal 0.36974445 -0.6836533 -0.62921166
 outer loop
  vertex 0.9706101 -1.6142775 -1.5845817
  vertex 0.8592921 -1.7935096 -1.4552557
  vertex 0.6778122 -1.5652015 -1.8099611
 endloop
endfacet
facet normal -0.9406555 -0.1678951 -0.29492098
 outer loop
  vertex -1.7457961 -0.493693 -1.1043136
  vertex -1.7890023 -0.8127264 -0.78488463
  vertex -1.978768 -0.04666155 -0.61573553
 endloop
endfacet
facet normal 0.49939835 -0.8443114 0.19426681
 outer loop
  vertex 1.4413396 -1.851616 0.7962539
  vertex 1.5447401 -1.8711401 0.4455896
  vertex 1.7186551 -1.6370236 1.0160134
 endloop
endfacet
facet normal -0.7817974 0.0028349666 0.6235261
 outer loop
  vertex -1.7537125 0.6852015 1.3547579
  vertex -1.8297142 0.06972092 1.262263
  vertex -1.2760322 -0.355367 1.9584203
 endloop
endfacet
facet normal 0.061096005 0.77161163 -0.6331531
 outer loop
  vertex 0.3284469 1.4485711 -1.3011451
  vertex -0.14458445 1.5585626 -1.2127455
  vertex 0.44889906 1.8388019 -0.81395525
 endloop
endfacet
facet normal 0.6983907 -0.041035824 0.71453935
 outer loop
  vertex 1.8320684 -0.84766173 1.57829
  vertex 1.5086191 0.0036630372 1.9433208
  vertex 1.316772 -0.29789844 2.1135135
 endloop
endfacet
facet normal 0.42153314 0.059392992 0.90486586
 outer loop
  vertex 0.6510139 0.15815885 2.3937235
  vertex 0.6377709 -0.16458069 2.4210765
  vertex 1.316772 -0.29789844 2.1135135
 endloop
endfacet
facet normal 0.28832027 0.7662027 -0.57428634
 outer loop
  vertex 0.44889906 1.8388019 -0.81395525
  vertex 0.75941896 1.8482434 -0.64546216
  vertex 0.8041784 1.6143037 -0.93510884
 endloop
endfacet
facet normal 0.5722769 -0.68296814 -0.45393136
 outer loop
  vertex 0.9706101 -1.6142775 -1.5845817
  vertex 1.2326744 -1.7376971 -1.0685015
  vertex 0.8592921 -1.7935096 -1.4552557
 endloop
endfacet
facet normal -0.080221 0.7993261 0.5955186
 outer loop
  vertex -0.3019614 2.0596693 1.1617286
  vertex 0.14058013 1.8426331 1.512656
  vertex 0.14662395 2.0604458 1.2211143
 endloop
endfacet
facet normal 0.7908981 0.54328513 -0.28164086
 outer loop
  vertex 1.8223304 1.1772599 0.22471596
  vertex 1.636531 1.0770209 -0.49040306
  vertex 1.4077841 1.4825234 -0.35055107
 endloop
endfacet
facet normal 0.96553785 -0.249452 -0.074231535
 outer loop
  vertex 2.2432945 -0.8332279 0.005621051
  vertex 2.2608728 -0.9170772 0.5160369
  vertex 2.154919 -1.1580312 -0.05240153
 endloop
endfacet
facet normal 0.8561989 0.21674512 -0.468983
 outer loop
  vertex 1.9951333 -0.38400108 -0.70820683
  vertex 1.6016961 0.34387177 -1.0900918
  vertex 1.8327917 0.49159792 -0.5999191
 endloop
endfacet
facet normal -0.8861125 0.4386216 0.14971878
 outer loop
  vertex -1.7834042 1.2773662 0.6338648
  vertex -2.0019908 0.90781045 0.4228213
  vertex -2.035879 0.73203117 0.73722357
 endloop
endfacet
facet normal 0.37021834 0.87440866 0.31360468
 outer loop
  vertex 0.55807525 2.0032618 1.1943754
  vertex 0.98075825 1.9053231 0.9684649
  vertex 0.41682467 2.134148 0.9961821
 endloop
endfacet
facet normal -0.6678658 0.5512897 0.50003487
 outer loop
  vertex -1.6245836 1.3635072 1.0174128
  vertex -1.5572417 1.1310976 1.3635894
  vertex -1.3702414 1.5072075 1.198692
 endloop
endfacet
facet normal 0.78209776 -0.6231256 -0.006127667
 outer loop
  vertex 2.1315353 -1.2749021 0.6118554
  vertex 1.8188269 -1.6656996 0.44008064
  vertex 1.9785007 -1.4605678 -0.040091652
 endloop
endfacet
facet normal -0.9208486 -0.058581322 -0.38549453
 outer loop
  vertex -1.6246507 -0.0268131 -1.4646481
  vertex -1.7457961 -0.493693 -1.1043136
  vertex -1.978768 -0.04666155 -0.61573553
 endloop
endfacet
facet normal -0.73328555 0.6620279 0.15495619
 outer loop
  vertex -1.7834042 1.2773662 0.6338648
  vertex -1.6245836 1.3635072 1.0174128
  vertex -1.5092617 1.5892743 0.598583
 endloop
endfacet
facet normal -0.49621367 -0.5734128 0.6518971
 outer loop
  vertex -1.0123827 -1.482043 1.5145617
  vertex -0.8435296 -1.1105049 1.9698973
  vertex -1.2427746 -1.0857639 1.6877606
 endloop
endfacet
facet normal 0.30687308 -0.9294351 -0.2048887
 outer loop
  vertex 0.18123096 -2.1139586 -1.3185323
  vertex 0.9669706 -1.9341748 -0.95723885
  vertex 0.27766338 -2.3099227 -0.28514966
 endloop
endfacet
facet normal 0.5637378 0.5976984 -0.57004946
 outer loop
  vertex 1.1271052 1.5703099 -0.66188514
  vertex 1.1831871 1.089542 -1.1105106
  vertex 0.8041784 1.6143037 -0.93510884
 endloop
endfacet
facet normal -0.7949299 -0.09280534 -0.5995611
 outer loop
  vertex -1.5045142 -0.73032784 -1.5150353
  vertex -1.6246507 -0.0268131 -1.4646481
  vertex -1.2830313 -0.56950396 -1.8335828
 endloop
endfacet
facet normal -0.0045298007 -0.82849896 0.5599723
 outer loop
  vertex 0.47772148 -1.8467999 1.4196147
  vertex 0.19410199 -1.6640605 1.6876898
  vertex -0.039369937 -1.9339937 1.2864254
 endloop
endfacet
facet normal -0.40934306 0.44499168 0.7965053
 outer loop
  vertex -0.69561857 1.1119555 1.8743465
  vertex -1.264669 1.3090692 1.4717745
  vertex -0.8225425 0.3954879 2.2093935
 endloop
endfacet
facet normal 0.76721334 0.01656834 0.64117783
 outer loop
  vertex 1.8320684 -0.84766173 1.57829
  vertex 1.8239678 0.20843492 1.5606929
  vertex 1.5086191 0.0036630372 1.9433208
 endloop
endfacet
facet normal 0.79813653 0.37610304 0.47066408
 outer loop
  vertex 2.0149312 0.7499821 0.80411845
  vertex 1.6375709 1.1011332 1.1634322
  vertex 1.8239678 0.20843492 1.5606929
 endloop
endfacet
facet normal -0.35764936 -0.20151076 0.91185546
 outer loop
  vertex -0.60301286 -0.13673845 2.3729868
  vertex -1.059546 -0.61883885 2.0873854
  vertex -0.5060698 -0.86701673 2.249626
 endloop
endfacet
facet normal 0.24038449 -0.94932956 -0.2024568
 outer loop
  vertex 0.27766338 -2.3099227 -0.28514966
  vertex 0.015331453 -2.2602317 -0.82962936
  vertex 0.18123096 -2.1139586 -1.3185323
 endloop
endfacet
facet normal 0.38583517 -0.30370802 -0.8711444
 outer loop
  vertex 0.96723664 -1.3619584 -1.7526301
  vertex 0.6778122 -1.5652015 -1.8099611
  vertex 0.9161297 -1.007635 -1.8987938
 endloop
endfacet
facet normal 0.4835324 0.8158171 -0.31723619
 outer loop
  vertex 1.1749215 1.7811214 -0.18476544
  vertex 0.75941896 1.8482434 -0.64546216
  vertex 0.93487984 1.9342583 -0.15682462
 endloop
endfacet
facet normal 0.21900158 0.53210497 -0.81786466
 outer loop
  vertex 0.34049907 0.7722405 -1.7379403
  vertex 0.3284469 1.4485711 -1.3011451
  vertex 0.6402696 1.3998122 -1.2493702
 endloop
endfacet
facet normal -0.48393413 -0.7926882 -0.37074688
 outer loop
  vertex -0.840686 -1.8014427 -1.5385695
  vertex -0.8488554 -2.067316 -0.95944643
  vertex -1.0569872 -1.7226073 -1.4247895
 endloop
endfacet
facet normal -0.868487 -0.32422587 -0.37497735
 outer loop
  vertex -1.7890023 -0.8127264 -0.78488463
  vertex -1.5045142 -0.73032784 -1.5150353
  vertex -1.2248366 -1.5231855 -1.4772501
 endloop
endfacet
facet normal 0.28861073 0.9529957 0.092211135
 outer loop
  vertex 0.41682467 2.134148 0.9961821
  vertex 0.9585989 2.0080366 0.6038392
  vertex 0.36624268 2.1942723 0.5331165
 endloop
endfacet
facet normal -0.6375431 -0.34105816 0.6908097
 outer loop
  vertex -1.059546 -0.61883885 2.0873854
  vertex -1.4271666 -0.78203505 1.66754
  vertex -1.2427746 -1.0857639 1.6877606
 endloop
endfacet
facet normal -0.6259772 0.26126522 0.7347741
 outer loop
  vertex -1.5572417 1.1310976 1.3635894
  vertex -1.7537125 0.6852015 1.3547579
  vertex -1.1285721 0.34177914 2.0094461
 endloop
endfacet
facet normal -0.5566757 0.32369307 0.76507187
 outer loop
  vertex -1.5572417 1.1310976 1.3635894
  vertex -1.1285721 0.34177914 2.0094461
  vertex -0.8225425 0.3954879 2.2093935
 endloop
endfacet
facet normal 0.6207288 -0.7431279 -0.24991335
 outer loop
  vertex 1.6094593 -1.7870035 0.013962331
  vertex 1.2326744 -1.7376971 -1.0685015
  vertex 1.9785007 -1.4605678 -0.040091652
 endloop
endfacet
facet normal -0.9422413 -0.31849772 0.103636205
 outer loop
  vertex -1.8853464 -0.8777765 0.15299521
  vertex -1.8101678 -0.907287 0.74581295
  vertex -2.0697756 -0.31206 0.214775
 endloop
endfacet
facet normal -0.7953895 -0.37740576 0.47425774
 outer loop
  vertex -1.4271666 -0.78203505 1.66754
  vertex -1.6454972 -0.69422805 1.3712474
  vertex -1.4679147 -1.1818241 1.2810553
 endloop
endfacet
facet normal 0.9021956 0.31141403 0.2984369
 outer loop
  vertex 2.1042793 0.39959073 0.8996407
  vertex 2.2110775 0.44669747 0.5276273
  vertex 2.0149312 0.7499821 0.80411845
 endloop
endfacet
facet normal -0.9925299 0.11410154 -0.04318756
 outer loop
  vertex -2.035879 0.73203117 0.73722357
  vertex -2.0019908 0.90781045 0.4228213
  vertex -2.083567 -0.023764586 -0.1636304
 endloop
endfacet
facet normal -0.05454044 -0.34321755 0.93767107
 outer loop
  vertex -0.05148552 -1.0573955 2.2063825
  vertex -0.05570423 -0.3265537 2.4736485
  vertex -0.5060698 -0.86701673 2.249626
 endloop
endfacet
facet normal -0.46986943 0.81220454 0.34575522
 outer loop
  vertex -1.1235539 1.8570379 0.7121543
  vertex -1.3702414 1.5072075 1.198692
  vertex -0.7293967 1.9637595 0.99710333
 endloop
endfacet
facet normal -0.569803 -0.08332762 -0.8175457
 outer loop
  vertex -1.126225 -0.24688162 -1.9757547
  vertex -1.0912923 -0.99302346 -1.9240519
  vertex -1.2830313 -0.56950396 -1.8335828
 endloop
endfacet
facet normal 0.5198346 0.8415906 -0.14661905
 outer loop
  vertex 1.1749215 1.7811214 -0.18476544
  vertex 0.93487984 1.9342583 -0.15682462
  vertex 1.2966076 1.7887526 0.29047272
 endloop
endfacet
facet normal 0.8681634 0.35577518 -0.34600046
 outer loop
  vertex 2.1021826 0.58893645 0.17610875
  vertex 1.8327917 0.49159792 -0.5999191
  vertex 1.636531 1.0770209 -0.49040306
 endloop
endfacet
facet normal 0.12094746 -0.10931629 0.9866214
 outer loop
  vertex 0.3444977 -0.5483061 2.414512
  vertex 0.6377709 -0.16458069 2.4210765
  vertex 0.13255663 -0.121481195 2.4877849
 endloop
endfacet
facet normal -0.8915277 -0.15422189 0.42590374
 outer loop
  vertex -1.9157686 -0.1638574 0.99754864
  vertex -1.6454972 -0.69422805 1.3712474
  vertex -1.8297142 0.06972092 1.262263
 endloop
endfacet
facet normal 0.98040646 0.19022012 0.051181275
 outer loop
  vertex 2.305223 0.0011451597 0.38015383
  vertex 2.2110775 0.44669747 0.5276273
  vertex 2.2899961 0.02963617 0.565943
 endloop
endfacet
facet normal 0.9364522 -0.28296474 0.2073358
 outer loop
  vertex 2.2608728 -0.9170772 0.5160369
  vertex 2.0622377 -1.1380124 1.1116668
  vertex 2.1315353 -1.2749021 0.6118554
 endloop
endfacet
facet normal 0.51914704 0.33257565 0.7873244
 outer loop
  vertex 1.5086191 0.0036630372 1.9433208
  vertex 1.4717101 0.62827116 1.7038156
  vertex 0.673336 0.40250906 2.3256133
 endloop
endfacet
facet normal -0.686233 0.013046242 -0.7272648
 outer loop
  vertex -1.126225 -0.24688162 -1.9757547
  vertex -1.2830313 -0.56950396 -1.8335828
  vertex -1.4316335 0.23681839 -1.6789002
 endloop
endfacet
facet normal -0.08976127 -0.8014106 0.59134084
 outer loop
  vertex -0.039369937 -1.9339937 1.2864254
  vertex 0.19410199 -1.6640605 1.6876898
  vertex -0.30291 -1.8462406 1.3653486
 endloop
endfacet
facet normal -0.370523 0.75286543 0.54397285
 outer loop
  vertex -0.3019614 2.0596693 1.1617286
  vertex -1.3702414 1.5072075 1.198692
  vertex -0.45375842 1.7615287 1.4709636
 endloop
endfacet
facet normal -0.026364785 -0.9552155 -0.2947339
 outer loop
  vertex -0.42237628 -2.2442377 -0.842311
  vertex 0.18123096 -2.1139586 -1.3185323
  vertex 0.015331453 -2.2602317 -0.82962936
 endloop
endfacet
facet normal 0.1270783 0.6723393 0.7292537
 outer loop
  vertex 0.14058013 1.8426331 1.512656
  vertex 0.23629777 1.4651476 1.8440012
  vertex 0.6837314 1.5953481 1.6459932
 endloop
endfacet
facet normal -0.5583884 -0.053592127 0.82784677
 outer loop
  vertex -0.9427591 0.016116507 2.207264
  vertex -1.2760322 -0.355367 1.9584203
  vertex -1.059546 -0.61883885 2.0873854
 endloop
endfacet
facet normal 0.93766844 -0.3464063 -0.027939085
 outer loop
  vertex 2.1315353 -1.2749021 0.6118554
  vertex 2.154919 -1.1580312 -0.05240153
  vertex 2.2608728 -0.9170772 0.5160369
 endloop
endfacet
facet normal -0.46347213 0.62030095 -0.6327877
 outer loop
  vertex -0.7911932 1.2063582 -1.4356681
  vertex -1.2753997 0.7712997 -1.5074947
  vertex -0.97629356 1.5261105 -0.98665255
 endloop
endfacet
facet normal 0.1333906 -0.5746179 -0.8074783
 outer loop
  vertex -0.079556786 -1.8368261 -1.7417804
  vertex -0.117668055 -1.3223195 -2.1142094
  vertex 0.6778122 -1.5652015 -1.8099611
 endloop
endfacet
facet normal -0.35834262 0.11103484 -0.9269638
 outer loop
  vertex -0.86634314 0.12493327 -2.0316818
  vertex -0.8565785 -0.57085687 -2.1188006
  vertex -1.126225 -0.24688162 -1.9757547
 endloop
endfacet
facet normal 0.31475118 -0.94887084 0.023995008
 outer loop
  vertex 0.3539397 -2.2677422 0.3823148
  vertex 0.27766338 -2.3099227 -0.28514966
  vertex 1.5447401 -1.8711401 0.4455896
 endloop
endfacet
facet normal 0.8899014 0.42537895 0.16470659
 outer loop
  vertex 1.8579768 1.154711 0.6068634
  vertex 2.0149312 0.7499821 0.80411845
  vertex 2.2110775 0.44669747 0.5276273
 endloop
endfacet
facet normal -0.6843746 0.3963192 -0.6120152
 outer loop
  vertex -1.2753997 0.7712997 -1.5074947
  vertex -1.4316335 0.23681839 -1.6789002
  vertex -1.5221393 0.7488564 -1.2461162
 endloop
endfacet
facet normal 0.07645144 0.18764637 0.97925687
 outer loop
  vertex 0.13255663 -0.121481195 2.4877849
  vertex 0.6510139 0.15815885 2.3937235
  vertex 0.006188732 0.26570526 2.4234574
 endloop
endfacet
facet normal 0.20605794 -0.35846588 0.91051763
 outer loop
  vertex 0.7087721 -0.47636726 2.3603954
  vertex 0.3444977 -0.5483061 2.414512
  vertex 0.79042417 -1.1024795 2.09542
 endloop
endfacet
facet normal -0.33462062 0.35564092 -0.8726675
 outer loop
  vertex -0.86634314 0.12493327 -2.0316818
  vertex -1.1359478 0.2655116 -1.8710127
  vertex -0.88381475 0.6876391 -1.7956611
 endloop
endfacet
facet normal 0.8325121 -0.3520389 -0.42777604
 outer loop
  vertex 2.154919 -1.1580312 -0.05240153
  vertex 1.4983246 -1.4338979 -1.1032012
  vertex 1.6468555 -0.8729292 -1.2757893
 endloop
endfacet
facet normal -0.6356826 0.70920986 -0.3048425
 outer loop
  vertex -1.1998292 1.8599477 0.092659935
  vertex -1.0248483 1.7123331 -0.6156469
  vertex -1.4493082 1.2604392 -0.7818504
 endloop
endfacet
facet normal -0.781339 0.33382964 0.5273207
 outer loop
  vertex -1.7537125 0.6852015 1.3547579
  vertex -1.5572417 1.1310976 1.3635894
  vertex -1.9216845 0.78451914 1.0429965
 endloop
endfacet
facet normal 0.020938437 -0.8304686 -0.5566719
 outer loop
  vertex 0.18123096 -2.1139586 -1.3185323
  vertex -0.26341856 -1.9876904 -1.5236298
  vertex -0.079556786 -1.8368261 -1.7417804
 endloop
endfacet
facet normal 0.9367215 -0.035882723 -0.34823155
 outer loop
  vertex 2.23019 -0.39524305 -0.07476022
  vertex 2.2432945 -0.8332279 0.005621051
  vertex 1.9951333 -0.38400108 -0.70820683
 endloop
endfacet
facet normal 0.3605493 -0.43068004 0.8273566
 outer loop
  vertex 1.4205214 -1.2141535 1.7627013
  vertex 1.3640649 -0.9408533 1.9295704
  vertex 0.79042417 -1.1024795 2.09542
 endloop
endfacet
facet normal 0.012122135 0.6575594 -0.7533052
 outer loop
  vertex -0.14458445 1.5585626 -1.2127455
  vertex 0.3284469 1.4485711 -1.3011451
  vertex -0.4514674 1.1311752 -1.59075
 endloop
endfacet
facet normal 0.47466502 0.43259028 0.7665238
 outer loop
  vertex 0.6837314 1.5953481 1.6459932
  vertex 0.673336 0.40250906 2.3256133
  vertex 1.4717101 0.62827116 1.7038156
 endloop
endfacet
facet normal -0.7751214 -0.5993459 -0.19992813
 outer loop
  vertex -1.1422932 -1.9083011 -0.64276856
  vertex -1.6700863 -1.2986245 -0.4242076
  vertex -1.2248366 -1.5231855 -1.4772501
 endloop
endfacet
facet normal -0.583569 0.8085322 0.07564973
 outer loop
  vertex -1.1235539 1.8570379 0.7121543
  vertex -1.1998292 1.8599477 0.092659935
  vertex -1.5092617 1.5892743 0.598583
 endloop
endfacet
facet normal 0.59760165 -0.79905945 -0.06615395
 outer loop
  vertex 1.6094593 -1.7870035 0.013962331
  vertex 1.8188269 -1.6656996 0.44008064
  vertex 1.5447401 -1.8711401 0.4455896
 endloop
endfacet
facet normal 0.6501733 -0.7524608 -0.10524964
 outer loop
  vertex 1.9785007 -1.4605678 -0.040091652
  vertex 1.8188269 -1.6656996 0.44008064
  vertex 1.6094593 -1.7870035 0.013962331
 endloop
endfacet
facet normal -0.36797392 -0.29719967 -0.88106054
 outer loop
  vertex -0.60901535 -0.8467828 -2.1748042
  vertex -0.8441188 -1.4289014 -1.8802531
  vertex -1.0912923 -0.99302346 -1.9240519
 endloop
endfacet
facet normal 0.30937204 0.9455243 -0.101355106
 outer loop
  vertex 0.93487984 1.9342583 -0.15682462
  vertex 0.36624268 2.1942723 0.5331165
  vertex 0.9585989 2.0080366 0.6038392
 endloop
endfacet
facet normal 0.07371987 -0.59435004 0.80082047
 outer loop
  vertex 0.83410406 -1.4815171 1.8100861
  vertex 0.79042417 -1.1024795 2.09542
  vertex -0.05148552 -1.0573955 2.2063825
 endloop
endfacet
facet normal -0.23761146 -0.36044896 -0.9020074
 outer loop
  vertex -0.60901535 -0.8467828 -2.1748042
  vertex -0.117668055 -1.3223195 -2.1142094
  vertex -0.8441188 -1.4289014 -1.8802531
 endloop
endfacet
facet normal -0.1059809 -0.2326928 -0.9667586
 outer loop
  vertex -0.117668055 -1.3223195 -2.1142094
  vertex -0.60901535 -0.8467828 -2.1748042
  vertex -0.03256463 -1.1496717 -2.1650941
 endloop
endfacet
facet normal -0.9584109 -0.190489 -0.21251428
 outer loop
  vertex -1.7890023 -0.8127264 -0.78488463
  vertex -2.083567 -0.023764586 -0.1636304
  vertex -1.978768 -0.04666155 -0.61573553
 endloop
endfacet
facet normal 0.2798539 -0.93741566 0.20720449
 outer loop
  vertex 0.533988 -2.1121752 0.8429403
  vertex 0.3539397 -2.2677422 0.3823148
  vertex 1.4413396 -1.851616 0.7962539
 endloop
endfacet
facet normal -0.037522756 -0.9973479 -0.062363632
 outer loop
  vertex -0.47837615 -2.270042 -0.46804953
  vertex 0.27766338 -2.3099227 -0.28514966
  vertex -0.017563608 -2.3170657 0.006716108
 endloop
endfacet
facet normal -0.09206559 -0.9246047 -0.36963502
 outer loop
  vertex -0.26341856 -1.9876904 -1.5236298
  vertex 0.18123096 -2.1139586 -1.3185323
  vertex -0.42237628 -2.2442377 -0.842311
 endloop
endfacet
facet normal -0.7633668 0.49032184 -0.42054215
 outer loop
  vertex -1.7492554 1.0134772 -0.5253269
  vertex -1.4493082 1.2604392 -0.7818504
  vertex -1.5221393 0.7488564 -1.2461162
 endloop
endfacet
facet normal -0.24175464 -0.19273883 0.9510029
 outer loop
  vertex -0.05570423 -0.3265537 2.4736485
  vertex -0.60301286 -0.13673845 2.3729868
  vertex -0.5060698 -0.86701673 2.249626
 endloop
endfacet
facet normal 0.6253196 0.76022786 0.17615041
 outer loop
  vertex 0.98075825 1.9053231 0.9684649
  vertex 1.6501416 1.4205135 0.68454427
  vertex 0.9585989 2.0080366 0.6038392
 endloop
endfacet
facet normal 0.39672086 -0.08749665 0.91375977
 outer loop
  vertex 1.316772 -0.29789844 2.1135135
  vertex 0.6377709 -0.16458069 2.4210765
  vertex 0.7087721 -0.47636726 2.3603954
 endloop
endfacet
facet normal -0.51101846 -0.59364665 -0.6216461
 outer loop
  vertex -1.2248366 -1.5231855 -1.4772501
  vertex -0.8441188 -1.4289014 -1.8802531
  vertex -1.0569872 -1.7226073 -1.4247895
 endloop
endfacet
facet normal 0.22819848 -0.377049 -0.89764106
 outer loop
  vertex 0.6778122 -1.5652015 -1.8099611
  vertex -0.117668055 -1.3223195 -2.1142094
  vertex -0.03256463 -1.1496717 -2.1650941
 endloop
endfacet
facet normal 0.16026591 0.9240195 -0.3471352
 outer loop
  vertex 0.75941896 1.8482434 -0.64546216
  vertex 0.44889906 1.8388019 -0.81395525
  vertex 0.20532611 2.0133634 -0.461753
 endloop
endfacet
facet normal 0.6130977 -0.17528306 0.7703162
 outer loop
  vertex 1.8320684 -0.84766173 1.57829
  vertex 1.316772 -0.29789844 2.1135135
  vertex 1.3640649 -0.9408533 1.9295704
 endloop
endfacet
facet normal 0.087709576 0.26002672 0.96160966
 outer loop
  vertex 0.006188732 0.26570526 2.4234574
  vertex 0.6510139 0.15815885 2.3937235
  vertex 0.673336 0.40250906 2.3256133
 endloop
endfacet
facet normal 0.7982266 0.3581976 -0.4842818
 outer loop
  vertex 1.8327917 0.49159792 -0.5999191
  vertex 1.6016961 0.34387177 -1.0900918
  vertex 1.636531 1.0770209 -0.49040306
 endloop
endfacet
facet normal -0.4525005 -0.81184065 0.36899602
 outer loop
  vertex -1.3073523 -1.5438997 1.0167471
  vertex -0.66742945 -2.0963798 0.5859553
  vertex -1.0123827 -1.482043 1.5145617
 endloop
endfacet
facet normal 0.6734248 0.60674417 0.42232755
 outer loop
  vertex 1.6501416 1.4205135 0.68454427
  vertex 1.0131043 1.7178247 1.2731985
  vertex 1.6375709 1.1011332 1.1634322
 endloop
endfacet
facet normal -0.124092914 0.3805239 -0.91640747
 outer loop
  vertex -0.86634314 0.12493327 -2.0316818
  vertex -0.88381475 0.6876391 -1.7956611
  vertex -0.39148155 0.6652685 -1.8716182
 endloop
endfacet
facet normal 0.7429132 0.40231162 -0.5350003
 outer loop
  vertex 1.636531 1.0770209 -0.49040306
  vertex 1.6016961 0.34387177 -1.0900918
  vertex 1.1831871 1.089542 -1.1105106
 endloop
endfacet
facet normal -0.8906755 -0.25573677 -0.37589353
 outer loop
  vertex -1.5045142 -0.73032784 -1.5150353
  vertex -1.7890023 -0.8127264 -0.78488463
  vertex -1.7457961 -0.493693 -1.1043136
 endloop
endfacet
facet normal -0.7387382 -0.0068565714 -0.6739575
 outer loop
  vertex -1.2830313 -0.56950396 -1.8335828
  vertex -1.6246507 -0.0268131 -1.4646481
  vertex -1.4316335 0.23681839 -1.6789002
 endloop
endfacet
facet normal -0.6021897 0.76086944 0.24175437
 outer loop
  vertex -1.3702414 1.5072075 1.198692
  vertex -1.1235539 1.8570379 0.7121543
  vertex -1.6245836 1.3635072 1.0174128
 endloop
endfacet
facet normal 0.88211817 -0.4086618 0.23422879
 outer loop
  vertex 2.0622377 -1.1380124 1.1116668
  vertex 1.9759341 -1.427599 0.9314456
  vertex 2.1315353 -1.2749021 0.6118554
 endloop
endfacet
facet normal 0.98671067 -0.00029822803 -0.16248693
 outer loop
  vertex 2.23019 -0.39524305 -0.07476022
  vertex 2.305223 0.0011451597 0.38015383
  vertex 2.2432945 -0.8332279 0.005621051
 endloop
endfacet
facet normal -0.8354239 0.19362909 -0.51436824
 outer loop
  vertex -1.6633595 0.41416192 -1.2357774
  vertex -1.4316335 0.23681839 -1.6789002
  vertex -1.6246507 -0.0268131 -1.4646481
 endloop
endfacet
facet normal -0.54328746 -0.08332353 -0.83540165
 outer loop
  vertex -0.8565785 -0.57085687 -2.1188006
  vertex -1.0912923 -0.99302346 -1.9240519
  vertex -1.126225 -0.24688162 -1.9757547
 endloop
endfacet
facet normal -0.3303984 -0.6396188 -0.6940639
 outer loop
  vertex -0.41046578 -1.719489 -1.8188941
  vertex -0.840686 -1.8014427 -1.5385695
  vertex -0.8441188 -1.4289014 -1.8802531
 endloop
endfacet
facet normal -0.75231844 -0.57209307 0.3266901
 outer loop
  vertex -1.6024753 -1.2763237 0.80569667
  vertex -1.3073523 -1.5438997 1.0167471
  vertex -1.4679147 -1.1818241 1.2810553
 endloop
endfacet
facet normal 0.09083143 0.9958662 -0.00047024744
 outer loop
  vertex -0.09913314 2.2367566 0.6137379
  vertex 0.36624268 2.1942723 0.5331165
  vertex -0.16345938 2.2424958 0.34290418
 endloop
endfacet
facet normal 0.07752434 -0.99552417 0.054053023
 outer loop
  vertex 0.3539397 -2.2677422 0.3823148
  vertex -0.017563608 -2.3170657 0.006716108
  vertex 0.27766338 -2.3099227 -0.28514966
 endloop
endfacet
facet normal -0.2829237 0.95754355 -0.055357486
 outer loop
  vertex -0.9167353 2.00256 0.04250325
  vertex -0.3778708 2.197442 0.65941375
  vertex -0.16345938 2.2424958 0.34290418
 endloop
endfacet
facet normal 0.54585814 0.74480975 -0.38379335
 outer loop
  vertex 0.75941896 1.8482434 -0.64546216
  vertex 1.1749215 1.7811214 -0.18476544
  vertex 1.1271052 1.5703099 -0.66188514
 endloop
endfacet
facet normal 0.6920395 -0.6426814 -0.32869723
 outer loop
  vertex 1.2326744 -1.7376971 -1.0685015
  vertex 1.4983246 -1.4338979 -1.1032012
  vertex 1.9785007 -1.4605678 -0.040091652
 endloop
endfacet
facet normal -0.24406935 -0.5917233 0.76830566
 outer loop
  vertex -0.8435296 -1.1105049 1.9698973
  vertex -0.6629043 -1.4772135 1.7448502
  vertex -0.2880133 -1.3658894 1.9496807
 endloop
endfacet
facet normal -0.23549953 -0.57432616 0.78402126
 outer loop
  vertex -0.8435296 -1.1105049 1.9698973
  vertex -0.2880133 -1.3658894 1.9496807
  vertex -0.5060698 -0.86701673 2.249626
 endloop
endfacet
facet normal -0.9779001 0.1658067 -0.12735592
 outer loop
  vertex -2.0019908 0.90781045 0.4228213
  vertex -1.9246039 0.6905538 -0.45424214
  vertex -2.083567 -0.023764586 -0.1636304
 endloop
endfacet
facet normal -0.84253967 0.5348324 -0.06388503
 outer loop
  vertex -1.7378623 1.2831501 0.08166323
  vertex -2.0019908 0.90781045 0.4228213
  vertex -1.7834042 1.2773662 0.6338648
 endloop
endfacet
facet normal -0.5773189 0.606216 -0.5469964
 outer loop
  vertex -1.4493082 1.2604392 -0.7818504
  vertex -0.97629356 1.5261105 -0.98665255
  vertex -1.2753997 0.7712997 -1.5074947
 endloop
endfacet
facet normal -0.22743532 0.58229285 -0.78051794
 outer loop
  vertex -0.88381475 0.6876391 -1.7956611
  vertex -0.7911932 1.2063582 -1.4356681
  vertex -0.4514674 1.1311752 -1.59075
 endloop
endfacet
facet normal 0.30593005 -0.941311 0.14261946
 outer loop
  vertex 1.5447401 -1.8711401 0.4455896
  vertex 1.4413396 -1.851616 0.7962539
  vertex 0.3539397 -2.2677422 0.3823148
 endloop
endfacet
facet normal 0.21348326 -0.7518411 -0.6238267
 outer loop
  vertex 0.18123096 -2.1139586 -1.3185323
  vertex -0.079556786 -1.8368261 -1.7417804
  vertex 0.6778122 -1.5652015 -1.8099611
 endloop
endfacet
facet normal 0.23552519 -0.75792193 -0.6083438
 outer loop
  vertex 0.18123096 -2.1139586 -1.3185323
  vertex 0.6778122 -1.5652015 -1.8099611
  vertex 0.8592921 -1.7935096 -1.4552557
 endloop
endfacet
facet normal 0.64791125 0.30579486 0.6976392
 outer loop
  vertex 1.8239678 0.20843492 1.5606929
  vertex 1.4717101 0.62827116 1.7038156
  vertex 1.5086191 0.0036630372 1.9433208
 endloop
endfacet
facet normal -0.6872856 -0.226968 0.69001746
 outer loop
  vertex -1.2760322 -0.355367 1.9584203
  vertex -1.4271666 -0.78203505 1.66754
  vertex -1.059546 -0.61883885 2.0873854
 endloop
endfacet
facet normal -0.48917916 0.39273518 -0.77875715
 outer loop
  vertex -1.4316335 0.23681839 -1.6789002
  vertex -1.2753997 0.7712997 -1.5074947
  vertex -0.88381475 0.6876391 -1.7956611
 endloop
endfacet
facet normal -0.51875794 0.44062623 -0.73262453
 outer loop
  vertex -1.4316335 0.23681839 -1.6789002
  vertex -0.88381475 0.6876391 -1.7956611
  vertex -1.1359478 0.2655116 -1.8710127
 endloop
endfacet
facet normal 0.51942253 -0.8261283 -0.21843132
 outer loop
  vertex 1.6094593 -1.7870035 0.013962331
  vertex 0.9669706 -1.9341748 -0.95723885
  vertex 1.2326744 -1.7376971 -1.0685015
 endloop
endfacet
facet normal -0.81495464 -0.100437984 0.57075477
 outer loop
  vertex -1.6454972 -0.69422805 1.3712474
  vertex -1.4271666 -0.78203505 1.66754
  vertex -1.2760322 -0.355367 1.9584203
 endloop
endfacet
facet normal -0.8101549 -0.11330686 0.5751614
 outer loop
  vertex -1.6454972 -0.69422805 1.3712474
  vertex -1.2760322 -0.355367 1.9584203
  vertex -1.8297142 0.06972092 1.262263
 endloop
endfacet
facet normal -0.17565668 -0.9126499 0.36907285
 outer loop
  vertex -0.66742945 -2.0963798 0.5859553
  vertex -0.19734003 -2.2373168 0.46117812
  vertex -0.039369937 -1.9339937 1.2864254
 endloop
endfacet
facet normal -0.18825701 -0.90610665 0.37885374
 outer loop
  vertex -0.66742945 -2.0963798 0.5859553
  vertex -0.039369937 -1.9339937 1.2864254
  vertex -0.30291 -1.8462406 1.3653486
 endloop
endfacet
facet normal -0.13109428 0.9899992 0.05211544
 outer loop
  vertex -0.16345938 2.2424958 0.34290418
  vertex -0.3778708 2.197442 0.65941375
  vertex -0.09913314 2.2367566 0.6137379
 endloop
endfacet
facet normal 0.91098416 0.09537629 0.40126213
 outer loop
  vertex 2.0690393 -0.5175018 1.1976302
  vertex 2.2899961 0.02963617 0.565943
  vertex 2.1042793 0.39959073 0.8996407
 endloop
endfacet
facet normal 0.90545684 0.099292375 0.4126607
 outer loop
  vertex 2.0690393 -0.5175018 1.1976302
  vertex 2.1042793 0.39959073 0.8996407
  vertex 1.8239678 0.20843492 1.5606929
 endloop
endfacet
facet normal -0.8750315 0.035501886 0.4827625
 outer loop
  vertex -1.9216845 0.78451914 1.0429965
  vertex -1.8297142 0.06972092 1.262263
  vertex -1.7537125 0.6852015 1.3547579
 endloop
endfacet
facet normal 0.86134046 -0.5046525 -0.058468226
 outer loop
  vertex 2.1315353 -1.2749021 0.6118554
  vertex 1.9785007 -1.4605678 -0.040091652
  vertex 2.154919 -1.1580312 -0.05240153
 endloop
endfacet
facet normal 0.4642239 -0.65681446 0.5942145
 outer loop
  vertex 1.871903 -1.3670285 1.241084
  vertex 1.4205214 -1.2141535 1.7627013
  vertex 1.4126544 -1.6628357 1.2728969
 endloop
endfacet
facet normal 0.48977703 -0.70526814 0.5125577
 outer loop
  vertex 1.871903 -1.3670285 1.241084
  vertex 1.4126544 -1.6628357 1.2728969
  vertex 1.7186551 -1.6370236 1.0160134
 endloop
endfacet
facet normal -0.05161944 -0.343256 0.93782234
 outer loop
  vertex -0.05570423 -0.3265537 2.4736485
  vertex -0.05148552 -1.0573955 2.2063825
  vertex 0.3444977 -0.5483061 2.414512
 endloop
endfacet
facet normal -0.9239685 -0.37809896 0.057648674
 outer loop
  vertex -1.6700863 -1.2986245 -0.4242076
  vertex -1.5550165 -1.5010945 0.092146784
  vertex -1.6024753 -1.2763237 0.80569667
 endloop
endfacet
facet normal -0.87412816 -0.47782776 0.08706692
 outer loop
  vertex -1.6024753 -1.2763237 0.80569667
  vertex -1.8101678 -0.907287 0.74581295
  vertex -1.8853464 -0.8777765 0.15299521
 endloop
endfacet
facet normal -0.8554291 -0.5148442 0.05636036
 outer loop
  vertex -1.6024753 -1.2763237 0.80569667
  vertex -1.8853464 -0.8777765 0.15299521
  vertex -1.6700863 -1.2986245 -0.4242076
 endloop
endfacet
facet normal -0.9425862 -0.02971364 0.3326386
 outer loop
  vertex -2.035879 0.73203117 0.73722357
  vertex -1.9157686 -0.1638574 0.99754864
  vertex -1.8297142 0.06972092 1.262263
 endloop
endfacet
facet normal -0.936021 -0.012542845 0.3517207
 outer loop
  vertex -2.035879 0.73203117 0.73722357
  vertex -1.8297142 0.06972092 1.262263
  vertex -1.9216845 0.78451914 1.0429965
 endloop
endfacet
facet normal -0.88449085 -0.118725345 -0.45119867
 outer loop
  vertex -1.7457961 -0.493693 -1.1043136
  vertex -1.6246507 -0.0268131 -1.4646481
  vertex -1.5045142 -0.73032784 -1.5150353
 endloop
endfacet
facet normal 0.2740626 -0.8883756 0.36834562
 outer loop
  vertex 0.533988 -2.1121752 0.8429403
  vertex 1.4413396 -1.851616 0.7962539
  vertex 1.4126544 -1.6628357 1.2728969
 endloop
endfacet
facet normal 0.23851772 -0.8731616 0.4250859
 outer loop
  vertex 0.533988 -2.1121752 0.8429403
  vertex 1.4126544 -1.6628357 1.2728969
  vertex 0.47772148 -1.8467999 1.4196147
 endloop
endfacet
facet normal -0.21714771 0.45413756 0.86406356
 outer loop
  vertex -0.4270837 0.40286592 2.3145177
  vertex -0.19643073 1.4804043 1.8061467
  vertex -0.69561857 1.1119555 1.8743465
 endloop
endfacet
facet normal -0.23773494 0.4457031 0.86303586
 outer loop
  vertex -0.4270837 0.40286592 2.3145177
  vertex -0.69561857 1.1119555 1.8743465
  vertex -0.8225425 0.3954879 2.2093935
 endloop
endfacet
facet normal -0.84681314 0.34479177 -0.40500137
 outer loop
  vertex -1.5221393 0.7488564 -1.2461162
  vertex -1.6633595 0.41416192 -1.2357774
  vertex -1.9246039 0.6905538 -0.45424214
 endloop
endfacet
facet normal -0.83959585 0.36793342 -0.3996294
 outer loop
  vertex -1.5221393 0.7488564 -1.2461162
  vertex -1.9246039 0.6905538 -0.45424214
  vertex -1.7492554 1.0134772 -0.5253269
 endloop
endfacet
facet normal -0.7280696 0.68068546 -0.08112887
 outer loop
  vertex -1.5092617 1.5892743 0.598583
  vertex -1.1998292 1.8599477 0.092659935
  vertex -1.7378623 1.2831501 0.08166323
 endloop
endfacet
facet normal -0.75305873 0.65563035 -0.05523997
 outer loop
  vertex -1.5092617 1.5892743 0.598583
  vertex -1.7378623 1.2831501 0.08166323
  vertex -1.7834042 1.2773662 0.6338648
 endloop
endfacet
facet normal 0.82935256 0.33365643 0.4481603
 outer loop
  vertex 2.0149312 0.7499821 0.80411845
  vertex 1.8239678 0.20843492 1.5606929
  vertex 2.1042793 0.39959073 0.8996407
 endloop
endfacet
facet normal 0.6088343 -0.31798166 0.7267794
 outer loop
  vertex 1.4205214 -1.2141535 1.7627013
  vertex 1.8320684 -0.84766173 1.57829
  vertex 1.3640649 -0.9408533 1.9295704
 endloop
endfacet
facet normal -0.86549866 -0.41738975 -0.2769437
 outer loop
  vertex -1.7890023 -0.8127264 -0.78488463
  vertex -1.2248366 -1.5231855 -1.4772501
  vertex -1.6700863 -1.2986245 -0.4242076
 endloop
endfacet
facet normal -0.8806336 0.43890166 -0.17846541
 outer loop
  vertex -1.7378623 1.2831501 0.08166323
  vertex -1.7492554 1.0134772 -0.5253269
  vertex -1.9246039 0.6905538 -0.45424214
 endloop
endfacet
facet normal -0.87540114 0.44551107 -0.18759736
 outer loop
  vertex -1.7378623 1.2831501 0.08166323
  vertex -1.9246039 0.6905538 -0.45424214
  vertex -2.0019908 0.90781045 0.4228213
 endloop
endfacet
facet normal 0.23458593 0.4796811 0.84550315
 outer loop
  vertex 0.673336 0.40250906 2.3256133
  vertex 0.6837314 1.5953481 1.6459932
  vertex 0.23629777 1.4651476 1.8440012
 endloop
endfacet
facet normal -0.037442774 0.96206075 0.27025402
 outer loop
  vertex -0.3019614 2.0596693 1.1617286
  vertex 0.14662395 2.0604458 1.2211143
  vertex 0.41682467 2.134148 0.9961821
 endloop
endfacet
facet normal -0.030453034 0.95435005 0.29713377
 outer loop
  vertex -0.3019614 2.0596693 1.1617286
  vertex 0.41682467 2.134148 0.9961821
  vertex -0.09913314 2.2367566 0.6137379
 endloop
endfacet
facet normal -0.031461522 -0.9865073 0.16066645
 outer loop
  vertex -0.19734003 -2.2373168 0.46117812
  vertex -0.017563608 -2.3170657 0.006716108
  vertex 0.3539397 -2.2677422 0.3823148
 endloop
endfacet
facet normal -0.22199127 -0.96768314 0.11962164
 outer loop
  vertex -0.66742945 -2.0963798 0.5859553
  vertex -0.47837615 -2.270042 -0.46804953
  vertex -0.017563608 -2.3170657 0.006716108
 endloop
endfacet
facet normal -0.2717443 -0.9604318 0.061039507
 outer loop
  vertex -0.66742945 -2.0963798 0.5859553
  vertex -0.017563608 -2.3170657 0.006716108
  vertex -0.19734003 -2.2373168 0.46117812
 endloop
endfacet
facet normal 0.117443815 0.12817685 -0.9847729
 outer loop
  vertex 0.38163966 -0.75065345 -2.1348655
  vertex -0.43363142 -0.64778364 -2.2187052
  vertex -0.46195912 -0.23263024 -2.1680477
 endloop
endfacet
facet normal 0.13589975 0.15867034 -0.977934
 outer loop
  vertex 0.38163966 -0.75065345 -2.1348655
  vertex -0.46195912 -0.23263024 -2.1680477
  vertex 0.6393014 -0.22844924 -2.0143313
 endloop
endfacet
facet normal 0.79544854 -0.47895762 -0.37129682
 outer loop
  vertex 1.4983246 -1.4338979 -1.1032012
  vertex 2.154919 -1.1580312 -0.05240153
  vertex 1.9785007 -1.4605678 -0.040091652
 endloop
endfacet
facet normal 0.6910765 0.5511206 -0.4676316
 outer loop
  vertex 1.1271052 1.5703099 -0.66188514
  vertex 1.4077841 1.4825234 -0.35055107
  vertex 1.636531 1.0770209 -0.49040306
 endloop
endfacet
facet normal 0.6857781 0.53770024 -0.4904966
 outer loop
  vertex 1.1271052 1.5703099 -0.66188514
  vertex 1.636531 1.0770209 -0.49040306
  vertex 1.1831871 1.089542 -1.1105106
 endloop
endfacet
facet normal 0.47490346 0.87438166 -0.09961645
 outer loop
  vertex 1.2966076 1.7887526 0.29047272
  vertex 0.93487984 1.9342583 -0.15682462
  vertex 0.9585989 2.0080366 0.6038392
 endloop
endfacet
facet normal 0.16770992 0.96013963 -0.22361852
 outer loop
  vertex -0.16345938 2.2424958 0.34290418
  vertex 0.36624268 2.1942723 0.5331165
  vertex 0.93487984 1.9342583 -0.15682462
 endloop
endfacet
facet normal 0.20327161 0.94923127 -0.24008456
 outer loop
  vertex 0.93487984 1.9342583 -0.15682462
  vertex 0.75941896 1.8482434 -0.64546216
  vertex 0.20532611 2.0133634 -0.461753
 endloop
endfacet
facet normal 0.18407358 0.9643273 -0.19023626
 outer loop
  vertex 0.93487984 1.9342583 -0.15682462
  vertex 0.20532611 2.0133634 -0.461753
  vertex -0.16345938 2.2424958 0.34290418
 endloop
endfacet
facet normal 0.59544706 -0.79057825 0.14292929
 outer loop
  vertex 1.7186551 -1.6370236 1.0160134
  vertex 1.5447401 -1.8711401 0.4455896
  vertex 1.8188269 -1.6656996 0.44008064
 endloop
endfacet
facet normal 0.653394 -0.7418901 0.15058374
 outer loop
  vertex 1.7186551 -1.6370236 1.0160134
  vertex 1.8188269 -1.6656996 0.44008064
  vertex 1.9759341 -1.427599 0.9314456
 endloop
endfacet
facet normal 0.346339 -0.32695553 0.87928915
 outer loop
  vertex 0.79042417 -1.1024795 2.09542
  vertex 1.3640649 -0.9408533 1.9295704
  vertex 0.7087721 -0.47636726 2.3603954
 endloop
endfacet
facet normal -0.08492077 0.9052075 -0.41639885
 outer loop
  vertex -0.53705657 1.7145913 -0.9598501
  vertex -0.6976634 1.9895878 -0.3292821
  vertex 0.20532611 2.0133634 -0.461753
 endloop
endfacet
facet normal -0.042179573 0.8832782 -0.46694812
 outer loop
  vertex -0.53705657 1.7145913 -0.9598501
  vertex 0.20532611 2.0133634 -0.461753
  vertex 0.44889906 1.8388019 -0.81395525
 endloop
endfacet
facet normal 0.37559322 0.89777297 0.23007287
 outer loop
  vertex 0.9585989 2.0080366 0.6038392
  vertex 0.41682467 2.134148 0.9961821
  vertex 0.98075825 1.9053231 0.9684649
 endloop
endfacet
facet normal -0.15471032 0.7153371 -0.6814379
 outer loop
  vertex -0.7911932 1.2063582 -1.4356681
  vertex -0.53705657 1.7145913 -0.9598501
  vertex -0.14458445 1.5585626 -1.2127455
 endloop
endfacet
facet normal -0.15363742 0.71424514 -0.68282455
 outer loop
  vertex -0.7911932 1.2063582 -1.4356681
  vertex -0.14458445 1.5585626 -1.2127455
  vertex -0.4514674 1.1311752 -1.59075
 endloop
endfacet
facet normal 0.6429886 -0.60396683 -0.47094557
 outer loop
  vertex 1.2326744 -1.7376971 -1.0685015
  vertex 0.9706101 -1.6142775 -1.5845817
  vertex 1.2770698 -1.363625 -1.4876186
 endloop
endfacet
facet normal 0.6342149 -0.60898304 -0.47635207
 outer loop
  vertex 1.2326744 -1.7376971 -1.0685015
  vertex 1.2770698 -1.363625 -1.4876186
  vertex 1.4983246 -1.4338979 -1.1032012
 endloop
endfacet
facet normal -0.7911388 0.4253832 0.4394865
 outer loop
  vertex -1.6245836 1.3635072 1.0174128
  vertex -1.9216845 0.78451914 1.0429965
  vertex -1.5572417 1.1310976 1.3635894
 endloop
endfacet
facet normal -0.2733828 0.72670996 -0.6302019
 outer loop
  vertex -0.53705657 1.7145913 -0.9598501
  vertex -0.7911932 1.2063582 -1.4356681
  vertex -0.97629356 1.5261105 -0.98665255
 endloop
endfacet
facet normal -0.6946909 0.09475157 0.7130404
 outer loop
  vertex -1.1285721 0.34177914 2.0094461
  vertex -1.7537125 0.6852015 1.3547579
  vertex -1.2760322 -0.355367 1.9584203
 endloop
endfacet
facet normal -0.6541945 0.08335479 0.75171906
 outer loop
  vertex -1.1285721 0.34177914 2.0094461
  vertex -1.2760322 -0.355367 1.9584203
  vertex -0.9427591 0.016116507 2.207264
 endloop
endfacet
facet normal -0.01964254 -0.5872016 -0.80920243
 outer loop
  vertex -0.41046578 -1.719489 -1.8188941
  vertex -0.117668055 -1.3223195 -2.1142094
  vertex -0.079556786 -1.8368261 -1.7417804
 endloop
endfacet
facet normal 0.91464645 0.2121395 -0.34412017
 outer loop
  vertex 1.9951333 -0.38400108 -0.70820683
  vertex 1.8327917 0.49159792 -0.5999191
  vertex 2.1021826 0.58893645 0.17610875
 endloop
endfacet
facet normal 0.92177933 0.20394325 -0.32974255
 outer loop
  vertex 2.1021826 0.58893645 0.17610875
  vertex 2.305223 0.0011451597 0.38015383
  vertex 2.23019 -0.39524305 -0.07476022
 endloop
endfacet
facet normal 0.9187146 0.20546249 -0.33726642
 outer loop
  vertex 2.1021826 0.58893645 0.17610875
  vertex 2.23019 -0.39524305 -0.07476022
  vertex 1.9951333 -0.38400108 -0.70820683
 endloop
endfacet
facet normal -0.4408458 0.89567536 0.058486216
 outer loop
  vertex -0.9167353 2.00256 0.04250325
  vertex -1.1998292 1.8599477 0.092659935
  vertex -1.1235539 1.8570379 0.7121543
 endloop
endfacet
facet normal -0.41007233 0.9092893 0.07094892
 outer loop
  vertex -0.9167353 2.00256 0.04250325
  vertex -1.1235539 1.8570379 0.7121543
  vertex -0.3778708 2.197442 0.65941375
 endloop
endfacet
facet normal -0.57618123 0.697747 -0.4256339
 outer loop
  vertex -1.4493082 1.2604392 -0.7818504
  vertex -1.0248483 1.7123331 -0.6156469
  vertex -0.97629356 1.5261105 -0.98665255
 endloop
endfacet
facet normal -0.8693294 -0.37595296 0.3208206
 outer loop
  vertex -1.6024753 -1.2763237 0.80569667
  vertex -1.4679147 -1.1818241 1.2810553
  vertex -1.6454972 -0.69422805 1.3712474
 endloop
endfacet
facet normal -0.83659506 -0.41229856 0.36071962
 outer loop
  vertex -1.6024753 -1.2763237 0.80569667
  vertex -1.6454972 -0.69422805 1.3712474
  vertex -1.8101678 -0.907287 0.74581295
 endloop
endfacet
facet normal 0.48328757 0.19382101 0.8537368
 outer loop
  vertex 1.5086191 0.0036630372 1.9433208
  vertex 0.673336 0.40250906 2.3256133
  vertex 0.6510139 0.15815885 2.3937235
 endloop
endfacet
facet normal 0.48243812 0.1772105 0.85781693
 outer loop
  vertex 1.5086191 0.0036630372 1.9433208
  vertex 0.6510139 0.15815885 2.3937235
  vertex 1.316772 -0.29789844 2.1135135
 endloop
endfacet
facet normal 0.93271023 0.32431442 -0.15770768
 outer loop
  vertex 2.086888 0.76319206 0.4439982
  vertex 2.2110775 0.44669747 0.5276273
  vertex 2.1021826 0.58893645 0.17610875
 endloop
endfacet
facet normal 0.84278065 0.015429377 0.5380359
 outer loop
  vertex 2.0690393 -0.5175018 1.1976302
  vertex 1.8239678 0.20843492 1.5606929
  vertex 1.8320684 -0.84766173 1.57829
 endloop
endfacet
facet normal 0.8746975 -0.07590365 0.4786886
 outer loop
  vertex 2.0690393 -0.5175018 1.1976302
  vertex 1.8320684 -0.84766173 1.57829
  vertex 2.0622377 -1.1380124 1.1116668
 endloop
endfacet
facet normal -0.6509541 -0.719554 -0.24186957
 outer loop
  vertex -1.0569872 -1.7226073 -1.4247895
  vertex -0.8488554 -2.067316 -0.95944643
  vertex -1.1422932 -1.9083011 -0.64276856
 endloop
endfacet
facet normal -0.7123883 -0.66135806 -0.2347522
 outer loop
  vertex -1.0569872 -1.7226073 -1.4247895
  vertex -1.1422932 -1.9083011 -0.64276856
  vertex -1.2248366 -1.5231855 -1.4772501
 endloop
endfacet
facet normal 0.8555867 -0.00860664 -0.51758796
 outer loop
  vertex 1.9951333 -0.38400108 -0.70820683
  vertex 1.6468555 -0.8729292 -1.2757893
  vertex 1.5887277 -0.61769754 -1.3761201
 endloop
endfacet
facet normal -0.45310554 0.8407657 -0.29632473
 outer loop
  vertex -0.9167353 2.00256 0.04250325
  vertex -0.6976634 1.9895878 -0.3292821
  vertex -1.0248483 1.7123331 -0.6156469
 endloop
endfacet
facet normal -0.47105145 0.8330776 -0.2899865
 outer loop
  vertex -0.9167353 2.00256 0.04250325
  vertex -1.0248483 1.7123331 -0.6156469
  vertex -1.1998292 1.8599477 0.092659935
 endloop
endfacet
facet normal 0.65475124 0.19273706 -0.7308579
 outer loop
  vertex 1.5887277 -0.61769754 -1.3761201
  vertex 1.2214209 -0.70768225 -1.7289082
  vertex 0.9863688 0.15748978 -1.711326
 endloop
endfacet
facet normal 0.6639559 0.20495903 -0.71913445
 outer loop
  vertex 1.5887277 -0.61769754 -1.3761201
  vertex 0.9863688 0.15748978 -1.711326
  vertex 1.6016961 0.34387177 -1.0900918
 endloop
endfacet
facet normal -0.444372 -0.89329743 0.06747785
 outer loop
  vertex -0.47837615 -2.270042 -0.46804953
  vertex -0.66742945 -2.0963798 0.5859553
  vertex -1.0083379 -1.9468286 0.32073495
 endloop
endfacet
facet normal -0.39049748 -0.91375846 0.11205874
 outer loop
  vertex -0.47837615 -2.270042 -0.46804953
  vertex -1.0083379 -1.9468286 0.32073495
  vertex -0.91858715 -2.0753014 -0.414109
 endloop
endfacet
facet normal -0.06254932 0.44385368 0.8939136
 outer loop
  vertex 0.006188732 0.26570526 2.4234574
  vertex 0.23629777 1.4651476 1.8440012
  vertex -0.19643073 1.4804043 1.8061467
 endloop
endfacet
facet normal -0.08545962 0.44002908 0.89390767
 outer loop
  vertex 0.006188732 0.26570526 2.4234574
  vertex -0.19643073 1.4804043 1.8061467
  vertex -0.4270837 0.40286592 2.3145177
 endloop
endfacet
facet normal 0.5113392 0.7054647 -0.4907665
 outer loop
  vertex 0.8041784 1.6143037 -0.93510884
  vertex 0.75941896 1.8482434 -0.64546216
  vertex 1.1271052 1.5703099 -0.66188514
 endloop
endfacet
facet normal 0.77701503 -0.36378598 -0.51371914
 outer loop
  vertex 1.4983246 -1.4338979 -1.1032012
  vertex 1.2770698 -1.363625 -1.4876186
  vertex 1.6468555 -0.8729292 -1.2757893
 endloop
endfacet
facet normal -0.76624936 -0.6389244 -0.06809922
 outer loop
  vertex -1.6700863 -1.2986245 -0.4242076
  vertex -1.1422932 -1.9083011 -0.64276856
  vertex -1.3379679 -1.748157 0.05644073
 endloop
endfacet
facet normal -0.7546172 -0.6503907 -0.0868608
 outer loop
  vertex -1.6700863 -1.2986245 -0.4242076
  vertex -1.3379679 -1.748157 0.05644073
  vertex -1.5550165 -1.5010945 0.092146784
 endloop
endfacet
facet normal -0.002383951 -0.93845624 0.34538993
 outer loop
  vertex -0.039369937 -1.9339937 1.2864254
  vertex -0.19734003 -2.2373168 0.46117812
  vertex 0.3539397 -2.2677422 0.3823148
 endloop
endfacet
facet normal -0.03585052 -0.9424856 0.3323186
 outer loop
  vertex -0.039369937 -1.9339937 1.2864254
  vertex 0.3539397 -2.2677422 0.3823148
  vertex 0.533988 -2.1121752 0.8429403
 endloop
endfacet
facet normal 0.7647229 -0.6409619 0.06608114
 outer loop
  vertex 1.9759341 -1.427599 0.9314456
  vertex 1.8188269 -1.6656996 0.44008064
  vertex 2.1315353 -1.2749021 0.6118554
 endloop
endfacet
facet normal 0.09429262 -0.43870068 0.8936725
 outer loop
  vertex -0.05148552 -1.0573955 2.2063825
  vertex 0.79042417 -1.1024795 2.09542
  vertex 0.3444977 -0.5483061 2.414512
 endloop
endfacet
facet normal 0.99558616 -0.03521275 0.08699581
 outer loop
  vertex 2.2608728 -0.9170772 0.5160369
  vertex 2.305223 0.0011451597 0.38015383
  vertex 2.2899961 0.02963617 0.565943
 endloop
endfacet
facet normal -0.61120266 -0.4143558 -0.67434466
 outer loop
  vertex -0.8441188 -1.4289014 -1.8802531
  vertex -1.2248366 -1.5231855 -1.4772501
  vertex -1.0912923 -0.99302346 -1.9240519
 endloop
endfacet
facet normal -0.75147057 -0.20634751 -0.62666786
 outer loop
  vertex -1.2830313 -0.56950396 -1.8335828
  vertex -1.0912923 -0.99302346 -1.9240519
  vertex -1.5045142 -0.73032784 -1.5150353
 endloop
endfacet
facet normal -0.14677368 0.098747104 0.98422897
 outer loop
  vertex 0.006188732 0.26570526 2.4234574
  vertex -0.60301286 -0.13673845 2.3729868
  vertex -0.05570423 -0.3265537 2.4736485
 endloop
endfacet
facet normal -0.18465255 0.10213384 0.9774825
 outer loop
  vertex 0.006188732 0.26570526 2.4234574
  vertex -0.05570423 -0.3265537 2.4736485
  vertex 0.13255663 -0.121481195 2.4877849
 endloop
endfacet
facet normal -0.55981195 0.17284624 0.81039166
 outer loop
  vertex -0.9427591 0.016116507 2.207264
  vertex -0.8225425 0.3954879 2.2093935
  vertex -1.1285721 0.34177914 2.0094461
 endloop
endfacet
facet normal 0.79603827 0.48510355 0.36193603
 outer loop
  vertex 1.6375709 1.1011332 1.1634322
  vertex 2.0149312 0.7499821 0.80411845
  vertex 1.8579768 1.154711 0.6068634
 endloop
endfacet
facet normal 0.7832704 0.5075226 0.35903803
 outer loop
  vertex 1.6375709 1.1011332 1.1634322
  vertex 1.8579768 1.154711 0.6068634
  vertex 1.6501416 1.4205135 0.68454427
 endloop
endfacet
facet normal -0.25832856 -0.88266873 -0.39263493
 outer loop
  vertex -0.26341856 -1.9876904 -1.5236298
  vertex -0.42237628 -2.2442377 -0.842311
  vertex -0.8488554 -2.067316 -0.95944643
 endloop
endfacet
facet normal -0.27127346 -0.8732673 -0.40474057
 outer loop
  vertex -0.26341856 -1.9876904 -1.5236298
  vertex -0.8488554 -2.067316 -0.95944643
  vertex -0.840686 -1.8014427 -1.5385695
 endloop
endfacet
facet normal -0.37592348 0.6748784 0.63499665
 outer loop
  vertex -1.264669 1.3090692 1.4717745
  vertex -0.45375842 1.7615287 1.4709636
  vertex -1.3702414 1.5072075 1.198692
 endloop
endfacet
facet normal -0.7482685 -0.42008725 0.51344043
 outer loop
  vertex -1.4271666 -0.78203505 1.66754
  vertex -1.4679147 -1.1818241 1.2810553
  vertex -1.2427746 -1.0857639 1.6877606
 endloop
endfacet
facet normal -0.023527704 0.83409286 -0.55112225
 outer loop
  vertex -0.14458445 1.5585626 -1.2127455
  vertex -0.53705657 1.7145913 -0.9598501
  vertex 0.44889906 1.8388019 -0.81395525
 endloop
endfacet
facet normal 0.9544542 -0.044910166 0.29495788
 outer loop
  vertex 2.2608728 -0.9170772 0.5160369
  vertex 2.2899961 0.02963617 0.565943
  vertex 2.0690393 -0.5175018 1.1976302
 endloop
endfacet
facet normal 0.952975 -0.051811058 0.29858708
 outer loop
  vertex 2.2608728 -0.9170772 0.5160369
  vertex 2.0690393 -0.5175018 1.1976302
  vertex 2.0622377 -1.1380124 1.1116668
 endloop
endfacet
facet normal 0.38552666 -0.9153333 -0.11633611
 outer loop
  vertex 0.27766338 -2.3099227 -0.28514966
  vertex 0.9669706 -1.9341748 -0.95723885
  vertex 1.6094593 -1.7870035 0.013962331
 endloop
endfacet
facet normal 0.3861291 -0.9145567 -0.12037636
 outer loop
  vertex 0.27766338 -2.3099227 -0.28514966
  vertex 1.6094593 -1.7870035 0.013962331
  vertex 1.5447401 -1.8711401 0.4455896
 endloop
endfacet
facet normal -0.538773 -0.8085414 0.23661059
 outer loop
  vertex -1.0083379 -1.9468286 0.32073495
  vertex -0.66742945 -2.0963798 0.5859553
  vertex -1.3073523 -1.5438997 1.0167471
 endloop
endfacet
facet normal -0.611074 -0.77006435 0.18327451
 outer loop
  vertex -1.0083379 -1.9468286 0.32073495
  vertex -1.3073523 -1.5438997 1.0167471
  vertex -1.3379679 -1.748157 0.05644073
 endloop
endfacet
facet normal 0.7532988 0.6545398 -0.06417519
 outer loop
  vertex 1.8223304 1.1772599 0.22471596
  vertex 1.2966076 1.7887526 0.29047272
  vertex 1.6501416 1.4205135 0.68454427
 endloop
endfacet
facet normal 0.782085 0.6221169 -0.03624382
 outer loop
  vertex 1.8223304 1.1772599 0.22471596
  vertex 1.6501416 1.4205135 0.68454427
  vertex 1.8579768 1.154711 0.6068634
 endloop
endfacet
facet normal -0.06940805 0.9506169 -0.3025062
 outer loop
  vertex -0.16345938 2.2424958 0.34290418
  vertex 0.20532611 2.0133634 -0.461753
  vertex -0.6976634 1.9895878 -0.3292821
 endloop
endfacet
facet normal -0.41041642 -0.90952134 -0.065797634
 outer loop
  vertex -0.47837615 -2.270042 -0.46804953
  vertex -0.91858715 -2.0753014 -0.414109
  vertex -0.8488554 -2.067316 -0.95944643
 endloop
endfacet
facet normal -0.35301062 -0.9282972 -0.11682363
 outer loop
  vertex -0.47837615 -2.270042 -0.46804953
  vertex -0.8488554 -2.067316 -0.95944643
  vertex -0.42237628 -2.2442377 -0.842311
 endloop
endfacet
facet normal 0.14849219 0.79075146 0.5938537
 outer loop
  vertex 0.55807525 2.0032618 1.1943754
  vertex 0.14662395 2.0604458 1.2211143
  vertex 0.14058013 1.8426331 1.512656
 endloop
endfacet
facet normal 0.18908103 0.7543083 0.628703
 outer loop
  vertex 0.55807525 2.0032618 1.1943754
  vertex 0.14058013 1.8426331 1.512656
  vertex 0.6837314 1.5953481 1.6459932
 endloop
endfacet
facet normal -0.619434 0.5741072 -0.535446
 outer loop
  vertex -1.5221393 0.7488564 -1.2461162
  vertex -1.4493082 1.2604392 -0.7818504
  vertex -1.2753997 0.7712997 -1.5074947
 endloop
endfacet
facet normal 0.87077814 0.43339372 -0.23219699
 outer loop
  vertex 1.8223304 1.1772599 0.22471596
  vertex 2.086888 0.76319206 0.4439982
  vertex 2.1021826 0.58893645 0.17610875
 endloop
endfacet
facet normal 0.8568358 0.43096128 -0.28302798
 outer loop
  vertex 1.8223304 1.1772599 0.22471596
  vertex 2.1021826 0.58893645 0.17610875
  vertex 1.636531 1.0770209 -0.49040306
 endloop
endfacet
facet normal 0.43945092 0.41164464 -0.798393
 outer loop
  vertex 0.34049907 0.7722405 -1.7379403
  vertex 0.6402696 1.3998122 -1.2493702
  vertex 1.1831871 1.089542 -1.1105106
 endloop
endfacet
facet normal 0.43405798 0.42156196 -0.7961652
 outer loop
  vertex 0.34049907 0.7722405 -1.7379403
  vertex 1.1831871 1.089542 -1.1105106
  vertex 0.9863688 0.15748978 -1.711326
 endloop
endfacet
facet normal -0.32685456 0.8268023 -0.45778164
 outer loop
  vertex -0.53705657 1.7145913 -0.9598501
  vertex -0.97629356 1.5261105 -0.98665255
  vertex -1.0248483 1.7123331 -0.6156469
 endloop
endfacet
facet normal -0.31853265 0.8364736 -0.4459247
 outer loop
  vertex -0.53705657 1.7145913 -0.9598501
  vertex -1.0248483 1.7123331 -0.6156469
  vertex -0.6976634 1.9895878 -0.3292821
 endloop
endfacet
facet normal -0.03427965 -0.99668026 -0.07384749
 outer loop
  vertex -0.47837615 -2.270042 -0.46804953
  vertex -0.42237628 -2.2442377 -0.842311
  vertex 0.015331453 -2.2602317 -0.82962936
 endloop
endfacet
facet normal -0.03460116 -0.99663657 -0.074285306
 outer loop
  vertex -0.47837615 -2.270042 -0.46804953
  vertex 0.015331453 -2.2602317 -0.82962936
  vertex 0.27766338 -2.3099227 -0.28514966
 endloop
endfacet
facet normal 0.35005984 -0.8789308 -0.3239426
 outer loop
  vertex 0.9669706 -1.9341748 -0.95723885
  vertex 0.18123096 -2.1139586 -1.3185323
  vertex 0.8592921 -1.7935096 -1.4552557
 endloop
endfacet
facet normal 0.89724493 -0.16258645 -0.4105085
 outer loop
  vertex 2.154919 -1.1580312 -0.05240153
  vertex 1.6468555 -0.8729292 -1.2757893
  vertex 1.9951333 -0.38400108 -0.70820683
 endloop
endfacet
facet normal 0.8932844 -0.16862051 -0.41666538
 outer loop
  vertex 2.154919 -1.1580312 -0.05240153
  vertex 1.9951333 -0.38400108 -0.70820683
  vertex 2.2432945 -0.8332279 0.005621051
 endloop
endfacet
facet normal 0.044265922 -0.90588987 0.42119357
 outer loop
  vertex -0.039369937 -1.9339937 1.2864254
  vertex 0.533988 -2.1121752 0.8429403
  vertex 0.47772148 -1.8467999 1.4196147
 endloop
endfacet
facet normal -0.11816751 -0.7655979 0.6323735
 outer loop
  vertex -0.2880133 -1.3658894 1.9496807
  vertex -0.6629043 -1.4772135 1.7448502
  vertex -0.30291 -1.8462406 1.3653486
 endloop
endfacet
facet normal -0.12948221 -0.76436526 0.63164866
 outer loop
  vertex -0.2880133 -1.3658894 1.9496807
  vertex -0.30291 -1.8462406 1.3653486
  vertex 0.19410199 -1.6640605 1.6876898
 endloop
endfacet
facet normal -0.55877215 -0.8258193 0.07613199
 outer loop
  vertex -1.3379679 -1.748157 0.05644073
  vertex -0.91858715 -2.0753014 -0.414109
  vertex -1.0083379 -1.9468286 0.32073495
 endloop
endfacet
facet normal -0.91758186 0.11669615 -0.3800336
 outer loop
  vertex -1.6633595 0.41416192 -1.2357774
  vertex -1.6246507 -0.0268131 -1.4646481
  vertex -1.978768 -0.04666155 -0.61573553
 endloop
endfacet
facet normal -0.9214412 0.14652301 -0.35982913
 outer loop
  vertex -1.6633595 0.41416192 -1.2357774
  vertex -1.978768 -0.04666155 -0.61573553
  vertex -1.9246039 0.6905538 -0.45424214
 endloop
endfacet
facet normal -0.32932293 0.58357537 0.7422845
 outer loop
  vertex -0.69561857 1.1119555 1.8743465
  vertex -0.19643073 1.4804043 1.8061467
  vertex -0.45375842 1.7615287 1.4709636
 endloop
endfacet
facet normal -0.32469797 0.583267 0.74456084
 outer loop
  vertex -0.69561857 1.1119555 1.8743465
  vertex -0.45375842 1.7615287 1.4709636
  vertex -1.264669 1.3090692 1.4717745
 endloop
endfacet
facet normal -0.3399549 -0.8375131 0.42778784
 outer loop
  vertex -1.0123827 -1.482043 1.5145617
  vertex -0.66742945 -2.0963798 0.5859553
  vertex -0.30291 -1.8462406 1.3653486
 endloop
endfacet
facet normal -0.31326923 -0.81201506 0.4924366
 outer loop
  vertex -1.0123827 -1.482043 1.5145617
  vertex -0.30291 -1.8462406 1.3653486
  vertex -0.6629043 -1.4772135 1.7448502
 endloop
endfacet
facet normal 0.13075562 0.30003202 -0.9449253
 outer loop
  vertex 0.34049907 0.7722405 -1.7379403
  vertex 0.6393014 -0.22844924 -2.0143313
  vertex -0.46195912 -0.23263024 -2.1680477
 endloop
endfacet
facet normal 0.1284183 0.30179536 -0.9446842
 outer loop
  vertex 0.34049907 0.7722405 -1.7379403
  vertex -0.46195912 -0.23263024 -2.1680477
  vertex -0.39148155 0.6652685 -1.8716182
 endloop
endfacet
facet normal 0.6199514 0.32843605 -0.71259385
 outer loop
  vertex 1.6016961 0.34387177 -1.0900918
  vertex 0.9863688 0.15748978 -1.711326
  vertex 1.1831871 1.089542 -1.1105106
 endloop
endfacet
facet normal -0.72985995 -0.66442674 0.16075327
 outer loop
  vertex -1.6024753 -1.2763237 0.80569667
  vertex -1.5550165 -1.5010945 0.092146784
  vertex -1.3379679 -1.748157 0.05644073
 endloop
endfacet
facet normal -0.724727 -0.668895 0.16537914
 outer loop
  vertex -1.6024753 -1.2763237 0.80569667
  vertex -1.3379679 -1.748157 0.05644073
  vertex -1.3073523 -1.5438997 1.0167471
 endloop
endfacet
facet normal 0.24073963 0.72762966 -0.6423391
 outer loop
  vertex 0.3284469 1.4485711 -1.3011451
  vertex 0.44889906 1.8388019 -0.81395525
  vertex 0.8041784 1.6143037 -0.93510884
 endloop
endfacet
facet normal 0.22087824 0.7480714 -0.6257812
 outer loop
  vertex 0.3284469 1.4485711 -1.3011451
  vertex 0.8041784 1.6143037 -0.93510884
  vertex 0.6402696 1.3998122 -1.2493702
 endloop
endfacet
facet normal -0.040157508 0.31608263 -0.9478814
 outer loop
  vertex -0.86634314 0.12493327 -2.0316818
  vertex -0.39148155 0.6652685 -1.8716182
  vertex -0.46195912 -0.23263024 -2.1680477
 endloop
endfacet
facet normal 0.63984907 -0.38336694 0.6660502
 outer loop
  vertex 1.8320684 -0.84766173 1.57829
  vertex 1.4205214 -1.2141535 1.7627013
  vertex 1.871903 -1.3670285 1.241084
 endloop
endfacet
facet normal -0.7372141 0.6224892 -0.26272142
 outer loop
  vertex -1.4493082 1.2604392 -0.7818504
  vertex -1.7492554 1.0134772 -0.5253269
  vertex -1.7378623 1.2831501 0.08166323
 endloop
endfacet
facet normal -0.7050463 0.6624867 -0.25302407
 outer loop
  vertex -1.4493082 1.2604392 -0.7818504
  vertex -1.7378623 1.2831501 0.08166323
  vertex -1.1998292 1.8599477 0.092659935
 endloop
endfacet
facet normal 0.036169734 -0.64092356 0.76675206
 outer loop
  vertex 0.19410199 -1.6640605 1.6876898
  vertex 0.83410406 -1.4815171 1.8100861
  vertex -0.05148552 -1.0573955 2.2063825
 endloop
endfacet
facet normal 0.01489872 -0.6462846 0.762951
 outer loop
  vertex 0.19410199 -1.6640605 1.6876898
  vertex -0.05148552 -1.0573955 2.2063825
  vertex -0.2880133 -1.3658894 1.9496807
 endloop
endfacet
facet normal 0.6288765 -0.21724957 -0.7465366
 outer loop
  vertex 0.96723664 -1.3619584 -1.7526301
  vertex 0.9161297 -1.007635 -1.8987938
  vertex 1.2214209 -0.70768225 -1.7289082
 endloop
endfacet
facet normal 0.67570823 -0.2033244 -0.7085743
 outer loop
  vertex 1.2214209 -0.70768225 -1.7289082
  vertex 1.6468555 -0.8729292 -1.2757893
  vertex 1.2770698 -1.363625 -1.4876186
 endloop
endfacet
facet normal 0.63350844 -0.21921235 -0.7420329
 outer loop
  vertex 1.2214209 -0.70768225 -1.7289082
  vertex 1.2770698 -1.363625 -1.4876186
  vertex 0.96723664 -1.3619584 -1.7526301
 endloop
endfacet
facet normal -0.25565833 0.18614751 0.94867694
 outer loop
  vertex -0.4270837 0.40286592 2.3145177
  vertex -0.8225425 0.3954879 2.2093935
  vertex -0.60301286 -0.13673845 2.3729868
 endloop
endfacet
facet normal -0.19040492 0.16690294 0.9674138
 outer loop
  vertex -0.4270837 0.40286592 2.3145177
  vertex -0.60301286 -0.13673845 2.3729868
  vertex 0.006188732 0.26570526 2.4234574
 endloop
endfacet
facet normal 0.27936774 -0.26638228 -0.92249346
 outer loop
  vertex 0.38163966 -0.75065345 -2.1348655
  vertex 0.9161297 -1.007635 -1.8987938
  vertex 0.6778122 -1.5652015 -1.8099611
 endloop
endfacet
facet normal 0.3103229 -0.25270715 -0.9164272
 outer loop
  vertex 0.38163966 -0.75065345 -2.1348655
  vertex 0.6778122 -1.5652015 -1.8099611
  vertex -0.03256463 -1.1496717 -2.1650941
 endloop
endfacet
facet normal 0.24316138 -0.8091127 0.53498524
 outer loop
  vertex 0.47772148 -1.8467999 1.4196147
  vertex 1.4126544 -1.6628357 1.2728969
  vertex 0.83410406 -1.4815171 1.8100861
 endloop
endfacet
facet normal -0.22198524 0.118070886 -0.96787494
 outer loop
  vertex -0.8565785 -0.57085687 -2.1188006
  vertex -0.86634314 0.12493327 -2.0316818
  vertex -0.46195912 -0.23263024 -2.1680477
 endloop
endfacet
facet normal -0.21063684 0.10423093 -0.9719918
 outer loop
  vertex -0.8565785 -0.57085687 -2.1188006
  vertex -0.46195912 -0.23263024 -2.1680477
  vertex -0.43363142 -0.64778364 -2.2187052
 endloop
endfacet
facet normal -0.64079505 -0.6173206 0.45639566
 outer loop
  vertex -1.4679147 -1.1818241 1.2810553
  vertex -1.3073523 -1.5438997 1.0167471
  vertex -1.0123827 -1.482043 1.5145617
 endloop
endfacet
facet normal -0.6406476 -0.58818495 0.49356776
 outer loop
  vertex -1.4679147 -1.1818241 1.2810553
  vertex -1.0123827 -1.482043 1.5145617
  vertex -1.2427746 -1.0857639 1.6877606
 endloop
endfacet
facet normal 0.4952647 0.5752896 -0.65096444
 outer loop
  vertex 1.1831871 1.089542 -1.1105106
  vertex 0.6402696 1.3998122 -1.2493702
  vertex 0.8041784 1.6143037 -0.93510884
 endloop
endfacet
facet normal 0.07879174 0.5221002 -0.8492368
 outer loop
  vertex 0.34049907 0.7722405 -1.7379403
  vertex -0.39148155 0.6652685 -1.8716182
  vertex -0.4514674 1.1311752 -1.59075
 endloop
endfacet
facet normal 0.090041816 0.54145205 -0.835896
 outer loop
  vertex 0.34049907 0.7722405 -1.7379403
  vertex -0.4514674 1.1311752 -1.59075
  vertex 0.3284469 1.4485711 -1.3011451
 endloop
endfacet
facet normal -0.8612079 0.44518977 0.24520808
 outer loop
  vertex -1.7834042 1.2773662 0.6338648
  vertex -2.035879 0.73203117 0.73722357
  vertex -1.9216845 0.78451914 1.0429965
 endloop
endfacet
facet normal -0.8560911 0.45048642 0.25331792
 outer loop
  vertex -1.7834042 1.2773662 0.6338648
  vertex -1.9216845 0.78451914 1.0429965
  vertex -1.6245836 1.3635072 1.0174128
 endloop
endfacet
facet normal 0.71815884 0.6681114 -0.1946149
 outer loop
  vertex 1.4077841 1.4825234 -0.35055107
  vertex 1.1749215 1.7811214 -0.18476544
  vertex 1.2966076 1.7887526 0.29047272
 endloop
endfacet
facet normal 0.7354765 0.65209854 -0.18396176
 outer loop
  vertex 1.4077841 1.4825234 -0.35055107
  vertex 1.2966076 1.7887526 0.29047272
  vertex 1.8223304 1.1772599 0.22471596
 endloop
endfacet
facet normal -0.14742416 0.74720794 0.6480328
 outer loop
  vertex 0.14058013 1.8426331 1.512656
  vertex -0.3019614 2.0596693 1.1617286
  vertex -0.45375842 1.7615287 1.4709636
 endloop
endfacet
facet normal -0.14462514 0.7006573 0.6986866
 outer loop
  vertex 0.14058013 1.8426331 1.512656
  vertex -0.45375842 1.7615287 1.4709636
  vertex -0.19643073 1.4804043 1.8061467
 endloop
endfacet
facet normal 0.6027426 0.49959952 0.622175
 outer loop
  vertex 1.4717101 0.62827116 1.7038156
  vertex 1.6375709 1.1011332 1.1634322
  vertex 1.0131043 1.7178247 1.2731985
 endloop
endfacet
facet normal 0.5623487 0.49768758 0.6603567
 outer loop
  vertex 1.4717101 0.62827116 1.7038156
  vertex 1.0131043 1.7178247 1.2731985
  vertex 0.6837314 1.5953481 1.6459932
 endloop
endfacet
facet normal 0.42017683 0.792093 0.44276428
 outer loop
  vertex 0.98075825 1.9053231 0.9684649
  vertex 0.55807525 2.0032618 1.1943754
  vertex 1.0131043 1.7178247 1.2731985
 endloop
endfacet
facet normal -0.46604982 -0.08062573 0.88107723
 outer loop
  vertex -0.9427591 0.016116507 2.207264
  vertex -1.059546 -0.61883885 2.0873854
  vertex -0.60301286 -0.13673845 2.3729868
 endloop
endfacet
facet normal -0.9590684 -0.24101143 -0.14866509
 outer loop
  vertex -2.0697756 -0.31206 0.214775
  vertex -2.083567 -0.023764586 -0.1636304
  vertex -1.7890023 -0.8127264 -0.78488463
 endloop
endfacet
facet normal -0.94053507 -0.31828573 -0.11869276
 outer loop
  vertex -1.7890023 -0.8127264 -0.78488463
  vertex -1.6700863 -1.2986245 -0.4242076
  vertex -1.8853464 -0.8777765 0.15299521
 endloop
endfacet
facet normal -0.94784236 -0.2961298 -0.11790669
 outer loop
  vertex -1.7890023 -0.8127264 -0.78488463
  vertex -1.8853464 -0.8777765 0.15299521
  vertex -2.0697756 -0.31206 0.214775
 endloop
endfacet
facet normal -0.95052385 -0.2119289 0.22713554
 outer loop
  vertex -2.0697756 -0.31206 0.214775
  vertex -1.8101678 -0.907287 0.74581295
  vertex -1.9157686 -0.1638574 0.99754864
 endloop
endfacet
facet normal 0.70266515 -0.115930684 -0.7020127
 outer loop
  vertex 1.6468555 -0.8729292 -1.2757893
  vertex 1.2214209 -0.70768225 -1.7289082
  vertex 1.5887277 -0.61769754 -1.3761201
 endloop
endfacet
endsolid 
