solid 
facet normal 0 0 -1
 outer loop
  vertex -0.61197215 0.39406684 -0.2961524
  vertex 0.6038463 0.3883914 -0.2961524
  vertex 0 -0.7406857 -0.2961524
 endloop
endfacet
facet normal -0.8159434 -0.44003838 0.37497002
 outer loop
  vertex -0.61197215 0.39406684 -0.2961524
  vertex 0 -0.7406857 -0.2961524
  vertex 9.934108e-09 -0.01708489 0.55301446
 endloop
endfacet
facet normal 0.0042069242 0.9012271 0.4333266
 outer loop
  vertex 0.6038463 0.3883914 -0.2961524
  vertex -0.61197215 0.39406684 -0.2961524
  vertex 9.934108e-09 -0.01708489 0.55301446
 endloop
endfacet
facet normal 0.818212 -0.43759128 0.37288475
 outer loop
  vertex 0 -0.7406857 -0.2961524
  vertex 0.6038463 0.3883914 -0.2961524
  vertex 9.934108e-09 -0.01708489 0.55301446
 endloop
endfacet
endsolid 
