# Blender 4.2.3 LTS
# www.blender.org
mtllib ship.mtl
o Cube
v 0.000000 1.497056 0.000000
v 1.414214 -1.487157 0.000000
v -1.414214 -1.487157 0.000000
v -0.000000 -0.694220 -0.500000
v -0.000000 -0.694220 0.500000
vn -0.4891 -0.8722 -0.0000
vn 0.4891 -0.8722 -0.0000
vn 0.4249 0.2014 -0.8825
vn -0.4249 0.2014 0.8825
vn -0.4249 0.2014 -0.8825
vn 0.4249 0.2014 0.8825
vt 0.997215 0.994179
vt 0.008766 0.993956
vt 0.996376 0.005508
vt 0.006284 0.005321
vt 0.007123 0.005508
vt 0.498949 0.498237
vt 0.006284 0.994179
vt 0.994734 0.993956
vt 0.997215 0.005321
s 0
usemtl Material
f 4/5/3 1/6/3 2/7/3
f 5/8/4 1/6/4 3/9/4
f 4/5/5 3/9/5 1/6/5
f 5/8/6 2/7/6 1/6/6
usemtl Material2
f 2/1/1 5/2/1 4/3/1
f 4/3/2 5/2/2 3/4/2
